<svg width="70" height="71" viewBox="0 0 70 71" fill="none" xmlns="http://www.w3.org/2000/svg">
<g clip-path="url(#clip0_2050_3977)">
<g clip-path="url(#clip1_2050_3977)">
<path d="M51.9153 12.3517C50.1694 13.7188 43.2435 14.74 34.9505 14.74C26.6576 14.74 19.7317 13.7188 17.9858 12.3517C19.7317 10.9847 26.6658 9.9635 34.9505 9.9635C43.2353 9.9635 50.1694 10.9847 51.9153 12.3517Z" stroke="#3F4E55" stroke-width="0.354118" stroke-linecap="square" stroke-linejoin="bevel"/>
<path d="M54.1553 11.6188C53.9165 9.71646 45.4094 8.18469 34.9589 8.18469C24.5083 8.18469 16.3142 9.65881 15.7789 11.5118C15.7624 11.5776 15.7542 11.6353 15.7542 11.7012C15.7542 11.7506 15.7542 11.8082 15.7706 11.8576C15.8859 12.3435 16.5283 12.7965 17.6071 13.2082C20.6871 14.3941 27.3 15.2176 34.9589 15.2176C42.6177 15.2176 49.2306 14.3941 52.3106 13.2082C53.4636 12.7635 54.1224 12.2694 54.1636 11.7506C54.1636 11.7094 54.1636 11.66 54.1636 11.6188H54.1553ZM51.9153 12.3518C50.1694 13.7188 43.2436 14.74 34.9506 14.74C26.6577 14.74 19.7318 13.7188 17.9859 12.3518C17.7059 12.1376 17.5659 11.907 17.5659 11.6765C17.5659 9.98822 25.3483 8.61293 34.9506 8.61293C44.553 8.61293 52.3353 9.98822 52.3353 11.6765C52.3353 11.907 52.1871 12.1294 51.9153 12.3518Z" stroke="#3F4E55" stroke-width="0.354118" stroke-linecap="square" stroke-linejoin="bevel"/>
<path d="M51.9153 12.3517C50.1694 13.7188 43.2435 14.74 34.9505 14.74C26.6576 14.74 19.7317 13.7188 17.9858 12.3517C19.7317 10.9847 26.6658 9.9635 34.9505 9.9635C43.2353 9.9635 50.1694 10.9847 51.9153 12.3517Z" stroke="#3F4E55" stroke-width="0.354118" stroke-linecap="square" stroke-linejoin="bevel"/>
<path d="M54.1553 11.7012C54.1553 11.7012 54.1553 11.7341 54.1553 11.7506C54.1553 11.7094 54.1553 11.66 54.1553 11.6188C54.1553 11.6435 54.1553 11.6765 54.1553 11.7012Z" stroke="#3F4E55" stroke-width="0.354118" stroke-linecap="square" stroke-linejoin="bevel"/>
<path d="M52.3353 11.6764C52.3353 11.907 52.1871 12.1294 51.9153 12.3517C50.1694 10.9847 43.2353 9.9635 34.9506 9.9635C26.6659 9.9635 19.7318 10.9847 17.9859 12.3517C17.7059 12.1376 17.5659 11.907 17.5659 11.6764C17.5659 9.98821 25.3483 8.61292 34.9506 8.61292C44.553 8.61292 52.3353 9.98821 52.3353 11.6764Z" stroke="#3F4E55" stroke-width="0.354118" stroke-linecap="square" stroke-linejoin="bevel"/>
<path d="M51.9153 12.3517C50.1694 13.7188 43.2435 14.74 34.9505 14.74C26.6576 14.74 19.7317 13.7188 17.9858 12.3517C19.7317 10.9847 26.6658 9.9635 34.9505 9.9635C43.2353 9.9635 50.1694 10.9847 51.9153 12.3517Z" stroke="#3F4E55" stroke-width="0.354118" stroke-linecap="square" stroke-linejoin="bevel"/>
<path d="M51.9153 12.3517C50.1694 13.7188 43.2435 14.74 34.9505 14.74C26.6576 14.74 19.7317 13.7188 17.9858 12.3517C19.7317 10.9847 26.6658 9.9635 34.9505 9.9635C43.2353 9.9635 50.1694 10.9847 51.9153 12.3517Z" stroke="#3F4E55" stroke-width="0.354118" stroke-linecap="square" stroke-linejoin="bevel"/>
<path d="M15.7623 11.8576C15.7376 12.3271 16.5199 12.7965 17.5988 13.2082C20.6788 14.3941 27.2917 15.2176 34.9505 15.2176C42.6093 15.2176 49.2223 14.3941 52.3023 13.2082C53.4552 12.7635 54.1141 12.2694 54.1552 11.7506" stroke="#3F4E55" stroke-width="0.354118" stroke-linecap="square" stroke-linejoin="bevel"/>
<path d="M15.7458 11.7012C13.7941 22.5635 12.0482 37.3788 11.867 42.3447C11.6858 47.3106 11.4964 55.0435 21.4364 62.7682C26.1305 65.1565 29.5399 65.1565 34.967 65.4035" stroke="#3F4E55" stroke-width="0.354118" stroke-linecap="square" stroke-linejoin="bevel"/>
<path d="M54.1636 11.7012C56.1153 22.5635 57.8612 37.3788 58.0424 42.3447C58.2236 47.3106 58.413 55.0435 48.473 62.7682C43.7789 65.1565 40.3694 65.1565 34.9424 65.4035" stroke="#3F4E55" stroke-width="0.354118" stroke-linecap="square" stroke-linejoin="bevel"/>
</g>
</g>
<defs>
<clipPath id="clip0_2050_3977">
<rect width="70" height="70" fill="white" transform="translate(0 0.179993)"/>
</clipPath>
<clipPath id="clip1_2050_3977">
<rect width="70" height="70" fill="white" transform="translate(0 0.179993)"/>
</clipPath>
</defs>
</svg>
