<svg width="70" height="71" viewBox="0 0 70 71" fill="none" xmlns="http://www.w3.org/2000/svg">
<g clip-path="url(#clip0_2050_4009)">
<g clip-path="url(#clip1_2050_4009)">
<path d="M59.4094 27.9741C56.8976 29.9424 46.9247 31.4165 35 31.4165C23.0753 31.4165 13.1023 29.9424 10.5906 27.9741C13.1023 26.0059 23.0753 24.5318 35 24.5318C46.9247 24.5318 56.8976 26.0059 59.4094 27.9741Z" stroke="#3F4E55" stroke-width="0.354118" stroke-linecap="square" stroke-linejoin="bevel"/>
<path d="M62.6294 26.92C62.2835 24.1776 50.0458 21.9788 35 21.9788C19.9541 21.9788 8.16936 24.1035 7.40348 26.7718C7.37878 26.8624 7.3623 26.9529 7.3623 27.0435C7.3623 27.1176 7.37054 27.1918 7.38701 27.2659C7.55172 27.9576 8.48231 28.6165 10.0223 29.2094C14.4611 30.9224 23.9729 32.1 34.9917 32.1C46.0105 32.1 55.5223 30.9224 59.9611 29.2094C61.6164 28.5753 62.5635 27.8588 62.6211 27.1094C62.6211 27.0435 62.6211 26.9776 62.6211 26.92H62.6294ZM59.4094 27.9741C56.8976 29.9424 46.9247 31.4165 35 31.4165C23.0752 31.4165 13.1023 29.9424 10.5905 27.9741C10.1952 27.6612 9.98113 27.34 9.98113 27.0024C9.98113 24.5647 21.1811 22.5965 35 22.5965C48.8188 22.5965 60.0188 24.5729 60.0188 27.0024C60.0188 27.3318 59.8129 27.6612 59.4094 27.9741Z" stroke="#3F4E55" stroke-width="0.354118" stroke-linecap="square" stroke-linejoin="bevel"/>
<path d="M59.4094 27.9741C56.8976 29.9424 46.9247 31.4165 35 31.4165C23.0753 31.4165 13.1023 29.9424 10.5906 27.9741C13.1023 26.0059 23.0753 24.5318 35 24.5318C46.9247 24.5318 56.8976 26.0059 59.4094 27.9741Z" stroke="#3F4E55" stroke-width="0.354118" stroke-linecap="square" stroke-linejoin="bevel"/>
<path d="M62.6377 27.0435C62.6377 27.0435 62.6377 27.0929 62.6377 27.1176C62.6377 27.0518 62.6377 26.9859 62.6377 26.9282C62.6377 26.9694 62.6377 27.0106 62.6377 27.0435Z" stroke="#3F4E55" stroke-width="0.354118" stroke-linecap="square" stroke-linejoin="bevel"/>
<path d="M60.0188 27.0023C60.0188 27.3318 59.813 27.6612 59.4094 27.9741C56.8977 26.0059 46.9247 24.5318 35 24.5318C23.0753 24.5318 13.1024 26.0059 10.5906 27.9741C10.1953 27.6612 9.9812 27.34 9.9812 27.0023C9.9812 24.5647 21.1812 22.5965 35 22.5965C48.8189 22.5965 60.0188 24.5729 60.0188 27.0023Z" stroke="#3F4E55" stroke-width="0.354118" stroke-linecap="square" stroke-linejoin="bevel"/>
<path d="M59.4094 27.9741C56.8976 29.9424 46.9247 31.4165 35 31.4165C23.0753 31.4165 13.1023 29.9424 10.5906 27.9741C13.1023 26.0059 23.0753 24.5318 35 24.5318C46.9247 24.5318 56.8976 26.0059 59.4094 27.9741Z" stroke="#3F4E55" stroke-width="0.354118" stroke-linecap="square" stroke-linejoin="bevel"/>
<path d="M59.4094 27.9741C56.8976 29.9424 46.9247 31.4165 35 31.4165C23.0753 31.4165 13.1023 29.9424 10.5906 27.9741C13.1023 26.0059 23.0753 24.5318 35 24.5318C46.9247 24.5318 56.8976 26.0059 59.4094 27.9741Z" stroke="#3F4E55" stroke-width="0.354118" stroke-linecap="square" stroke-linejoin="bevel"/>
<path d="M7.38707 27.2659C7.34589 27.9494 8.48236 28.6165 10.0224 29.2094C14.4612 30.9223 23.973 32.1 34.9918 32.1C46.0106 32.1 55.5224 30.9223 59.9612 29.2094C61.6165 28.5753 62.5635 27.8588 62.6212 27.1094" stroke="#3F4E55" stroke-width="0.354118" stroke-linecap="square" stroke-linejoin="bevel"/>
<path d="M7.36241 27.0435C4.94124 42.5835 -0.502292 55.5047 16.0095 62.5623C23.2977 65.3129 30.4048 65.4612 37.1742 65.4118" stroke="#3F4E55" stroke-width="0.354118" stroke-linecap="square" stroke-linejoin="bevel"/>
<path d="M62.6377 27.0435C65.0589 42.5835 70.5024 55.5047 53.9906 62.5623C46.7024 65.3129 39.5953 65.4612 32.8259 65.4118" stroke="#3F4E55" stroke-width="0.354118" stroke-linecap="square" stroke-linejoin="bevel"/>
</g>
</g>
<defs>
<clipPath id="clip0_2050_4009">
<rect width="70" height="70" fill="white" transform="translate(0 0.179993)"/>
</clipPath>
<clipPath id="clip1_2050_4009">
<rect width="70" height="70" fill="white" transform="translate(0 0.179993)"/>
</clipPath>
</defs>
</svg>
