<svg width="70" height="70" viewBox="0 0 70 70" fill="none" xmlns="http://www.w3.org/2000/svg">
<g clip-path="url(#clip0_2050_3793)">
<g clip-path="url(#clip1_2050_3793)">
<path d="M55.4893 15.5318C53.381 17.1871 45.0057 18.4224 34.9998 18.4224C24.994 18.4224 16.6104 17.1871 14.5022 15.5318C16.6104 13.8765 24.9857 12.6412 34.9998 12.6412C45.014 12.6412 53.3893 13.8765 55.4893 15.5318Z" stroke="#3F4E55" stroke-width="0.354118" stroke-linecap="square" stroke-linejoin="bevel"/>
<path d="M58.1904 14.6506C57.9021 12.3529 47.6245 10.5 34.9916 10.5C22.3586 10.5 12.468 12.2788 11.8257 14.5188C11.801 14.5929 11.7927 14.6671 11.7927 14.7494C11.7927 14.8153 11.7927 14.8729 11.8174 14.9388C11.9574 15.5235 12.7398 16.0753 14.0327 16.5694C17.7551 18.0024 25.7433 18.9988 34.9998 18.9988C44.2563 18.9988 52.2363 18.0106 55.9668 16.5694C57.3586 16.0341 58.1574 15.4412 58.2068 14.8071C58.2068 14.7494 58.2068 14.7 58.2068 14.6424L58.1904 14.6506ZM55.4892 15.5318C53.381 17.1871 45.0057 18.4224 34.9998 18.4224C24.9939 18.4224 16.6104 17.1871 14.5021 15.5318C14.1645 15.2682 13.9915 14.9965 13.9915 14.7165C13.9915 12.6741 23.3963 11.0106 34.9916 11.0106C46.5868 11.0106 55.9915 12.6659 55.9915 14.7165C55.9915 14.9965 55.8186 15.2682 55.481 15.5318H55.4892Z" stroke="#3F4E55" stroke-width="0.354118" stroke-linecap="square" stroke-linejoin="bevel"/>
<path d="M55.4893 15.5318C53.381 17.1871 45.0057 18.4224 34.9998 18.4224C24.994 18.4224 16.6104 17.1871 14.5022 15.5318C16.6104 13.8765 24.9857 12.6412 34.9998 12.6412C45.014 12.6412 53.3893 13.8765 55.4893 15.5318Z" stroke="#3F4E55" stroke-width="0.354118" stroke-linecap="square" stroke-linejoin="bevel"/>
<path d="M58.1985 14.7494C58.1985 14.7494 58.1985 14.7906 58.1985 14.8153C58.1985 14.7576 58.1985 14.7082 58.1985 14.6506C58.1985 14.6835 58.1985 14.7165 58.1985 14.7494Z" stroke="#3F4E55" stroke-width="0.354118" stroke-linecap="square" stroke-linejoin="bevel"/>
<path d="M55.9997 14.7165C55.9997 14.9965 55.8267 15.2682 55.4891 15.5318C53.3809 13.8765 45.0056 12.6412 34.9997 12.6412C24.9938 12.6412 16.6103 13.8765 14.502 15.5318C14.1644 15.2682 13.9915 14.9965 13.9915 14.7165C13.9915 12.6741 23.3962 11.0106 34.9915 11.0106C46.5867 11.0106 55.9915 12.6659 55.9915 14.7165H55.9997Z" stroke="#3F4E55" stroke-width="0.354118" stroke-linecap="square" stroke-linejoin="bevel"/>
<path d="M55.4893 15.5318C53.381 17.1871 45.0057 18.4224 34.9998 18.4224C24.994 18.4224 16.6104 17.1871 14.5022 15.5318C16.6104 13.8765 24.9857 12.6412 34.9998 12.6412C45.014 12.6412 53.3893 13.8765 55.4893 15.5318Z" stroke="#3F4E55" stroke-width="0.354118" stroke-linecap="square" stroke-linejoin="bevel"/>
<path d="M55.4893 15.5318C53.381 17.1871 45.0057 18.4224 34.9998 18.4224C24.994 18.4224 16.6104 17.1871 14.5022 15.5318C16.6104 13.8765 24.9857 12.6412 34.9998 12.6412C45.014 12.6412 53.3893 13.8765 55.4893 15.5318Z" stroke="#3F4E55" stroke-width="0.354118" stroke-linecap="square" stroke-linejoin="bevel"/>
<path d="M58.1903 14.8153C58.1409 15.4412 57.3421 16.0424 55.9503 16.5776C52.2279 18.0106 44.2397 19.0071 34.9832 19.0071C25.7268 19.0071 17.7468 18.0188 14.0162 16.5776C12.7232 16.0753 11.7679 15.5153 11.8009 14.9471" stroke="#3F4E55" stroke-width="0.354118" stroke-linecap="square" stroke-linejoin="bevel"/>
<path d="M14.4775 15.5318C16.5858 17.1871 24.9611 18.4224 34.967 18.4224C44.9811 18.4224 53.3564 17.1871 55.4646 15.5318C53.3564 13.8765 44.9811 12.6412 34.967 12.6412C24.9528 12.6412 16.5775 13.8765 14.4775 15.5318Z" stroke="#3F4E55" stroke-width="0.354118" stroke-linecap="square" stroke-linejoin="bevel"/>
<path d="M11.7681 14.8153C11.8175 15.4412 12.6163 16.0424 14.0081 16.5777C17.7304 18.0106 25.7187 19.0071 34.9751 19.0071C44.2234 19.0071 52.2116 18.0188 55.9422 16.5777C57.2351 16.0753 58.0175 15.5235 58.1575 14.9471C58.174 14.8812 58.1822 14.8235 58.1822 14.7577C58.1822 14.6835 58.1739 14.6094 58.1492 14.5271C57.5069 12.2871 47.3775 10.5082 34.9834 10.5082C22.3504 10.5082 12.0728 12.3529 11.7845 14.6588C11.7845 14.7082 11.7845 14.7659 11.7845 14.8235L11.7681 14.8153ZM13.9669 14.7165C13.9669 12.6741 23.3716 11.0106 34.9669 11.0106C46.5704 11.0106 55.9669 12.6659 55.9669 14.7165C55.9669 14.9965 55.7939 15.2682 55.4563 15.5318C53.3481 17.1871 44.9728 18.4224 34.9587 18.4224C24.9445 18.4224 16.5692 17.1871 14.4692 15.5318C14.1398 15.2682 13.9587 14.9965 13.9587 14.7165H13.9669Z" stroke="#3F4E55" stroke-width="0.354118" stroke-linecap="square" stroke-linejoin="bevel"/>
<path d="M14.4775 15.5318C16.5858 17.1871 24.9611 18.4224 34.967 18.4224C44.9811 18.4224 53.3564 17.1871 55.4646 15.5318C53.3564 13.8765 44.9811 12.6412 34.967 12.6412C24.9528 12.6412 16.5775 13.8765 14.4775 15.5318Z" stroke="#3F4E55" stroke-width="0.354118" stroke-linecap="square" stroke-linejoin="bevel"/>
<path d="M11.7681 14.7494C11.7681 14.7494 11.7681 14.7906 11.7681 14.8153C11.7681 14.7576 11.7681 14.7082 11.7681 14.6506C11.7681 14.6835 11.7681 14.7165 11.7681 14.7494Z" stroke="#3F4E55" stroke-width="0.354118" stroke-linecap="square" stroke-linejoin="bevel"/>
<path d="M13.967 14.7165C13.967 14.9965 14.14 15.2682 14.4776 15.5318C16.5859 13.8765 24.9612 12.6412 34.967 12.6412C44.9812 12.6412 53.3564 13.8765 55.4647 15.5318C55.8023 15.2682 55.9753 14.9965 55.9753 14.7165C55.9753 12.6741 46.5706 11.0106 34.9753 11.0106C23.38 11.0106 13.9753 12.6659 13.9753 14.7165H13.967Z" stroke="#3F4E55" stroke-width="0.354118" stroke-linecap="square" stroke-linejoin="bevel"/>
<path d="M14.4775 15.5318C16.5858 17.1871 24.9611 18.4224 34.967 18.4224C44.9811 18.4224 53.3564 17.1871 55.4646 15.5318C53.3564 13.8765 44.9811 12.6412 34.967 12.6412C24.9528 12.6412 16.5775 13.8765 14.4775 15.5318Z" stroke="#3F4E55" stroke-width="0.354118" stroke-linecap="square" stroke-linejoin="bevel"/>
<path d="M14.4775 15.5318C16.5858 17.1871 24.9611 18.4224 34.967 18.4224C44.9811 18.4224 53.3564 17.1871 55.4646 15.5318C53.3564 13.8765 44.9811 12.6412 34.967 12.6412C24.9528 12.6412 16.5775 13.8765 14.4775 15.5318Z" stroke="#3F4E55" stroke-width="0.354118" stroke-linecap="square" stroke-linejoin="bevel"/>
<path d="M58.1493 14.9388C58.1822 15.5071 57.2269 16.0753 55.934 16.5694C52.2117 18.0024 44.2234 18.9988 34.9669 18.9988C25.7187 18.9988 17.7305 18.0106 13.9999 16.5694C12.6081 16.0341 11.8093 15.4412 11.7599 14.8071C11.7022 26.2459 11.5705 38.0224 11.7599 47.5671C11.9493 57.1118 15.4493 59.7388 18.3069 62.2835C21.2881 64.0377 26.0646 65.2235 34.9917 65.2235" stroke="#3F4E55" stroke-width="0.354118" stroke-linecap="square" stroke-linejoin="bevel"/>
<path d="M14.5107 15.5318C16.619 17.1871 24.9943 18.4224 35.0002 18.4224C45.006 18.4224 53.3896 17.1871 55.4978 15.5318C53.3896 13.8765 45.0143 12.6412 35.0002 12.6412C24.986 12.6412 16.6107 13.8765 14.5107 15.5318Z" stroke="#3F4E55" stroke-width="0.354118" stroke-linecap="square" stroke-linejoin="bevel"/>
<path d="M11.8096 14.8153C11.859 15.4412 12.6578 16.0424 14.0496 16.5777C17.7719 18.0106 25.7602 19.0071 35.0166 19.0071C44.2649 19.0071 52.2531 18.0188 55.9837 16.5777C57.2766 16.0753 58.059 15.5235 58.199 14.9471C58.2155 14.8812 58.2237 14.8235 58.2237 14.7577C58.2237 14.6835 58.2155 14.6094 58.1908 14.5271C57.5484 12.2871 47.419 10.5082 35.0249 10.5082C22.3919 10.5082 12.1143 12.3529 11.826 14.6588C11.826 14.7082 11.826 14.7659 11.826 14.8235L11.8096 14.8153ZM14.0002 14.7165C14.0002 12.6741 23.4049 11.0106 35.0002 11.0106C46.5955 11.0106 56.0002 12.6659 56.0002 14.7165C56.0002 14.9965 55.8272 15.2682 55.4896 15.5318C53.3813 17.1871 45.006 18.4224 34.9919 18.4224C24.9778 18.4224 16.6025 17.1871 14.5025 15.5318C14.1731 15.2682 13.9919 14.9965 13.9919 14.7165H14.0002Z" stroke="#3F4E55" stroke-width="0.354118" stroke-linecap="square" stroke-linejoin="bevel"/>
<path d="M14.5107 15.5318C16.619 17.1871 24.9943 18.4224 35.0002 18.4224C45.006 18.4224 53.3896 17.1871 55.4978 15.5318C53.3896 13.8765 45.0143 12.6412 35.0002 12.6412C24.986 12.6412 16.6107 13.8765 14.5107 15.5318Z" stroke="#3F4E55" stroke-width="0.354118" stroke-linecap="square" stroke-linejoin="bevel"/>
<path d="M11.8013 14.7494C11.8013 14.7494 11.8013 14.7906 11.8013 14.8153C11.8013 14.7576 11.8013 14.7082 11.8013 14.6506C11.8013 14.6835 11.8013 14.7165 11.8013 14.7494Z" stroke="#3F4E55" stroke-width="0.354118" stroke-linecap="square" stroke-linejoin="bevel"/>
<path d="M14 14.7165C14 14.9965 14.1729 15.2682 14.5106 15.5318C16.6188 13.8765 24.9941 12.6412 35 12.6412C45.0059 12.6412 53.3894 13.8765 55.4976 15.5318C55.8353 15.2682 56.0082 14.9965 56.0082 14.7165C56.0082 12.6741 46.6035 11.0106 35.0082 11.0106C23.4129 11.0106 14.0082 12.6659 14.0082 14.7165H14Z" stroke="#3F4E55" stroke-width="0.354118" stroke-linecap="square" stroke-linejoin="bevel"/>
<path d="M14.5107 15.5318C16.619 17.1871 24.9943 18.4224 35.0002 18.4224C45.006 18.4224 53.3896 17.1871 55.4978 15.5318C53.3896 13.8765 45.0143 12.6412 35.0002 12.6412C24.986 12.6412 16.6107 13.8765 14.5107 15.5318Z" stroke="#3F4E55" stroke-width="0.354118" stroke-linecap="square" stroke-linejoin="bevel"/>
<path d="M14.5107 15.5318C16.619 17.1871 24.9943 18.4224 35.0002 18.4224C45.006 18.4224 53.3896 17.1871 55.4978 15.5318C53.3896 13.8765 45.0143 12.6412 35.0002 12.6412C24.986 12.6412 16.6107 13.8765 14.5107 15.5318Z" stroke="#3F4E55" stroke-width="0.354118" stroke-linecap="square" stroke-linejoin="bevel"/>
<path d="M11.8096 14.8153C11.859 15.4412 12.6578 16.0424 14.0496 16.5776C17.7719 18.0106 25.7602 19.0071 35.0166 19.0071C44.2649 19.0071 52.2531 18.0188 55.9837 16.5776C57.2766 16.0753 58.2319 15.5153 58.199 14.9471" stroke="#3F4E55" stroke-width="0.354118" stroke-linecap="square" stroke-linejoin="bevel"/>
<path d="M55.5225 15.5318C53.4142 17.1871 45.0389 18.4224 35.033 18.4224C25.0189 18.4224 16.6436 17.1871 14.5354 15.5318C16.6436 13.8765 25.0189 12.6412 35.033 12.6412C45.0472 12.6412 53.4225 13.8765 55.5225 15.5318Z" stroke="#3F4E55" stroke-width="0.354118" stroke-linecap="square" stroke-linejoin="bevel"/>
<path d="M58.2319 14.6506C57.9436 12.3529 47.666 10.5 35.0331 10.5C22.4001 10.5 12.5095 12.2788 11.8672 14.5188C11.8425 14.5929 11.8342 14.6671 11.8342 14.7494C11.8342 14.8153 11.8342 14.8729 11.8589 14.9388C11.9989 15.5235 12.7813 16.0753 14.0742 16.5694C17.7966 18.0024 25.7848 18.9988 35.0413 18.9988C44.2895 18.9988 52.2778 18.0106 56.0083 16.5694C57.4001 16.0341 58.1989 15.4412 58.2483 14.8071C58.2483 14.7494 58.2483 14.7 58.2483 14.6424L58.2319 14.6506ZM55.5225 15.5318C53.4142 17.1871 45.0389 18.4224 35.0331 18.4224C25.0189 18.4224 16.6436 17.1871 14.5354 15.5318C14.1978 15.2682 14.0248 14.9965 14.0248 14.7165C14.0248 12.6741 23.4295 11.0106 35.0248 11.0106C46.6201 11.0106 56.0248 12.6659 56.0248 14.7165C56.0248 14.9965 55.8519 15.2682 55.5142 15.5318H55.5225Z" stroke="#3F4E55" stroke-width="0.354118" stroke-linecap="square" stroke-linejoin="bevel"/>
<path d="M55.5225 15.5318C53.4142 17.1871 45.0389 18.4224 35.033 18.4224C25.0189 18.4224 16.6436 17.1871 14.5354 15.5318C16.6436 13.8765 25.0189 12.6412 35.033 12.6412C45.0472 12.6412 53.4225 13.8765 55.5225 15.5318Z" stroke="#3F4E55" stroke-width="0.354118" stroke-linecap="square" stroke-linejoin="bevel"/>
<path d="M58.2319 14.7494C58.2319 14.7494 58.2319 14.7906 58.2319 14.8153C58.2319 14.7576 58.2319 14.7082 58.2319 14.6506C58.2319 14.6835 58.2319 14.7165 58.2319 14.7494Z" stroke="#3F4E55" stroke-width="0.354118" stroke-linecap="square" stroke-linejoin="bevel"/>
<path d="M56.0331 14.7165C56.0331 14.9965 55.8602 15.2682 55.5225 15.5318C53.4143 13.8765 45.039 12.6412 35.0331 12.6412C25.019 12.6412 16.6437 13.8765 14.5355 15.5318C14.1978 15.2682 14.0249 14.9965 14.0249 14.7165C14.0249 12.6741 23.4296 11.0106 35.0249 11.0106C46.6202 11.0106 56.0249 12.6659 56.0249 14.7165H56.0331Z" stroke="#3F4E55" stroke-width="0.354118" stroke-linecap="square" stroke-linejoin="bevel"/>
<path d="M55.5225 15.5318C53.4142 17.1871 45.0389 18.4224 35.033 18.4224C25.0189 18.4224 16.6436 17.1871 14.5354 15.5318C16.6436 13.8765 25.0189 12.6412 35.033 12.6412C45.0472 12.6412 53.4225 13.8765 55.5225 15.5318Z" stroke="#3F4E55" stroke-width="0.354118" stroke-linecap="square" stroke-linejoin="bevel"/>
<path d="M55.5225 15.5318C53.4142 17.1871 45.0389 18.4224 35.033 18.4224C25.0189 18.4224 16.6436 17.1871 14.5354 15.5318C16.6436 13.8765 25.0189 12.6412 35.033 12.6412C45.0472 12.6412 53.4225 13.8765 55.5225 15.5318Z" stroke="#3F4E55" stroke-width="0.354118" stroke-linecap="square" stroke-linejoin="bevel"/>
<path d="M11.8507 14.9388C11.8177 15.5071 12.773 16.0753 14.066 16.5694C17.7883 18.0023 25.7766 18.9988 35.033 18.9988C44.2813 18.9988 52.2695 18.0106 56.0001 16.5694C57.3919 16.0341 58.1907 15.4412 58.2401 14.8071C58.2977 26.2459 58.4295 38.0223 58.2401 47.5671C58.0507 57.1118 54.5507 59.7388 51.693 62.2835C48.7119 64.0376 43.9354 65.2235 35.0083 65.2235" stroke="#3F4E55" stroke-width="0.354118" stroke-linecap="square" stroke-linejoin="bevel"/>
</g>
</g>
<defs>
<clipPath id="clip0_2050_3793">
<rect width="70" height="70" fill="white"/>
</clipPath>
<clipPath id="clip1_2050_3793">
<rect width="70" height="70" fill="white"/>
</clipPath>
</defs>
</svg>
