<svg width="70" height="70" viewBox="0 0 70 70" fill="none" xmlns="http://www.w3.org/2000/svg">
<g clip-path="url(#clip0_2050_3836)">
<g clip-path="url(#clip1_2050_3836)">
<path d="M48.2258 6.14353C46.8587 6.74471 41.4399 7.19765 34.9587 7.19765C28.4775 7.19765 23.0505 6.74471 21.6917 6.14353C23.0587 5.54236 28.4775 5.08942 34.9587 5.08942C41.4399 5.08942 46.8669 5.54236 48.2258 6.14353Z" stroke="#3F4E55" stroke-width="0.354118" stroke-linecap="square" stroke-linejoin="bevel"/>
<path d="M49.9717 5.81412C49.7823 4.97412 43.1282 4.29883 34.9506 4.29883C26.7729 4.29883 20.3658 4.94942 19.9458 5.76471C19.9294 5.78942 19.9211 5.82236 19.9211 5.84706C19.9211 5.87177 19.9211 5.89648 19.9376 5.91295C20.0282 6.12706 20.5306 6.32471 21.3706 6.50589C23.7835 7.03295 28.9553 7.3953 34.9423 7.3953C40.9294 7.3953 46.1011 7.03295 48.5141 6.50589C49.4117 6.30824 49.9306 6.09412 49.9635 5.86353C49.9635 5.84706 49.9635 5.82236 49.9635 5.80589L49.9717 5.81412ZM48.2259 6.14353C46.8588 6.74471 41.44 7.19765 34.9588 7.19765C28.4776 7.19765 23.0506 6.74471 21.6917 6.14353C21.4776 6.04471 21.3623 5.94589 21.3623 5.84706C21.3623 5.09765 27.4482 4.49648 34.9588 4.49648C42.4694 4.49648 48.5553 5.09765 48.5553 5.84706C48.5553 5.94589 48.44 6.04471 48.2259 6.14353Z" stroke="#3F4E55" stroke-width="0.354118" stroke-linecap="square" stroke-linejoin="bevel"/>
<path d="M48.2258 6.14353C46.8587 6.74471 41.4399 7.19765 34.9587 7.19765C28.4775 7.19765 23.0505 6.74471 21.6917 6.14353C23.0587 5.54236 28.4775 5.08942 34.9587 5.08942C41.4399 5.08942 46.8669 5.54236 48.2258 6.14353Z" stroke="#3F4E55" stroke-width="0.354118" stroke-linecap="square" stroke-linejoin="bevel"/>
<path d="M49.98 5.8553C49.98 5.8553 49.98 5.87177 49.98 5.88C49.98 5.86353 49.98 5.83883 49.98 5.82236C49.98 5.83059 49.98 5.84706 49.98 5.8553Z" stroke="#3F4E55" stroke-width="0.354118" stroke-linecap="square" stroke-linejoin="bevel"/>
<path d="M48.5552 5.83882C48.5552 5.93765 48.44 6.03647 48.2258 6.13529C46.8588 5.53412 41.44 5.08118 34.9588 5.08118C28.4776 5.08118 23.0505 5.53412 21.6917 6.13529C21.4776 6.03647 21.3623 5.93765 21.3623 5.83882C21.3623 5.08941 27.4482 4.48824 34.9588 4.48824C42.4694 4.48824 48.5552 5.08941 48.5552 5.83882Z" stroke="#3F4E55" stroke-width="0.354118" stroke-linecap="square" stroke-linejoin="bevel"/>
<path d="M48.2258 6.14353C46.8587 6.74471 41.4399 7.19765 34.9587 7.19765C28.4775 7.19765 23.0505 6.74471 21.6917 6.14353C23.0587 5.54236 28.4775 5.08942 34.9587 5.08942C41.4399 5.08942 46.8669 5.54236 48.2258 6.14353Z" stroke="#3F4E55" stroke-width="0.354118" stroke-linecap="square" stroke-linejoin="bevel"/>
<path d="M48.2258 6.14353C46.8587 6.74471 41.4399 7.19765 34.9587 7.19765C28.4775 7.19765 23.0505 6.74471 21.6917 6.14353C23.0587 5.54236 28.4775 5.08942 34.9587 5.08942C41.4399 5.08942 46.8669 5.54236 48.2258 6.14353Z" stroke="#3F4E55" stroke-width="0.354118" stroke-linecap="square" stroke-linejoin="bevel"/>
<path d="M49.9717 5.88C49.9387 6.11059 49.4199 6.32471 48.5223 6.52236C46.1093 7.04942 40.9375 7.41177 34.9505 7.41177C28.9634 7.41177 23.7917 7.04942 21.3787 6.52236C20.5387 6.34118 19.9211 6.1353 19.9458 5.92942" stroke="#3F4E55" stroke-width="0.354118" stroke-linecap="square" stroke-linejoin="bevel"/>
<path d="M19.9294 5.8553C19.9294 17.9612 20.3083 51.5694 20.3083 54.74C20.3083 57.9106 21.593 61.2706 23.4789 62.6706C25.3647 64.0706 28.6094 65.2318 34.9506 65.2318" stroke="#3F4E55" stroke-width="0.354118" stroke-linecap="square" stroke-linejoin="bevel"/>
<path d="M50.0705 5.8553C50.0705 17.9612 49.6917 51.5694 49.6917 54.74C49.6917 57.9106 48.407 61.2706 46.5211 62.6706C44.6352 64.0706 41.3905 65.2318 35.0493 65.2318" stroke="#3F4E55" stroke-width="0.354118" stroke-linecap="square" stroke-linejoin="bevel"/>
</g>
</g>
<defs>
<clipPath id="clip0_2050_3836">
<rect width="70" height="70" fill="white"/>
</clipPath>
<clipPath id="clip1_2050_3836">
<rect width="70" height="70" fill="white"/>
</clipPath>
</defs>
</svg>
