<svg width="70" height="70" viewBox="0 0 70 70" fill="none" xmlns="http://www.w3.org/2000/svg">
<g clip-path="url(#clip0_2050_3865)">
<g clip-path="url(#clip1_2050_3865)">
<path d="M48.2673 7.36234C46.9002 7.96352 41.4814 8.41646 35.0002 8.41646C28.519 8.41646 23.092 7.96352 21.7332 7.36234C23.1002 6.76117 28.519 6.30823 35.0002 6.30823C41.4814 6.30823 46.9084 6.76117 48.2673 7.36234Z" stroke="#3F4E55" stroke-width="0.354118" stroke-linecap="square" stroke-linejoin="bevel"/>
<path d="M50.0213 7.04117C49.8319 6.20117 43.1778 5.52588 35.0001 5.52588C26.8225 5.52588 20.4154 6.17647 19.9954 6.99176C19.9789 7.01647 19.9707 7.04941 19.9707 7.07411C19.9707 7.09882 19.9707 7.12353 19.9872 7.14C20.0778 7.35411 20.5801 7.55176 21.4201 7.73294C23.8331 8.26 29.0048 8.62235 34.9919 8.62235C40.9789 8.62235 46.1507 8.26 48.5636 7.73294C49.4613 7.53529 49.9801 7.32117 50.0131 7.09058C50.0131 7.07411 50.0131 7.04941 50.0131 7.03294L50.0213 7.04117ZM48.2672 7.36235C46.9001 7.96353 41.4813 8.41647 35.0001 8.41647C28.5189 8.41647 23.0919 7.96353 21.7331 7.36235C21.5189 7.26353 21.4036 7.1647 21.4036 7.06588C21.4036 6.31647 27.4895 5.71529 35.0001 5.71529C42.5107 5.71529 48.5966 6.31647 48.5966 7.06588C48.5966 7.1647 48.4813 7.26353 48.2672 7.36235Z" stroke="#3F4E55" stroke-width="0.354118" stroke-linecap="square" stroke-linejoin="bevel"/>
<path d="M48.2673 7.36234C46.9002 7.96352 41.4814 8.41646 35.0002 8.41646C28.519 8.41646 23.092 7.96352 21.7332 7.36234C23.1002 6.76117 28.519 6.30823 35.0002 6.30823C41.4814 6.30823 46.9084 6.76117 48.2673 7.36234Z" stroke="#3F4E55" stroke-width="0.354118" stroke-linecap="square" stroke-linejoin="bevel"/>
<path d="M50.0212 7.08235C50.0212 7.08235 50.0212 7.09882 50.0212 7.10705C50.0212 7.09058 50.0212 7.06588 50.0212 7.04941C50.0212 7.05764 50.0212 7.07411 50.0212 7.08235Z" stroke="#3F4E55" stroke-width="0.354118" stroke-linecap="square" stroke-linejoin="bevel"/>
<path d="M48.5965 7.06587C48.5965 7.1647 48.4812 7.26352 48.2671 7.36234C46.9 6.76117 41.4812 6.30823 35 6.30823C28.5189 6.30823 23.0918 6.76117 21.733 7.36234C21.5189 7.26352 21.4036 7.1647 21.4036 7.06587C21.4036 6.31646 27.4894 5.71529 35 5.71529C42.5106 5.71529 48.5965 6.31646 48.5965 7.06587Z" stroke="#3F4E55" stroke-width="0.354118" stroke-linecap="square" stroke-linejoin="bevel"/>
<path d="M48.2673 7.36234C46.9002 7.96352 41.4814 8.41646 35.0002 8.41646C28.519 8.41646 23.092 7.96352 21.7332 7.36234C23.1002 6.76117 28.519 6.30823 35.0002 6.30823C41.4814 6.30823 46.9084 6.76117 48.2673 7.36234Z" stroke="#3F4E55" stroke-width="0.354118" stroke-linecap="square" stroke-linejoin="bevel"/>
<path d="M48.2673 7.36234C46.9002 7.96352 41.4814 8.41646 35.0002 8.41646C28.519 8.41646 23.092 7.96352 21.7332 7.36234C23.1002 6.76117 28.519 6.30823 35.0002 6.30823C41.4814 6.30823 46.9084 6.76117 48.2673 7.36234Z" stroke="#3F4E55" stroke-width="0.354118" stroke-linecap="square" stroke-linejoin="bevel"/>
<path d="M50.0212 7.09882C49.9883 7.3294 49.4695 7.54352 48.5718 7.74117C46.1589 8.26823 40.9871 8.63058 35.0001 8.63058C29.013 8.63058 23.8412 8.26823 21.4283 7.74117C20.5883 7.55999 19.9706 7.35411 19.9953 7.14823" stroke="#3F4E55" stroke-width="0.354118" stroke-linecap="square" stroke-linejoin="bevel"/>
<path d="M19.9789 7.08235C19.9789 19.1224 18.2413 29.9765 25.0189 63.0412C26.5425 64.5647 29.9683 65.24 35.1566 65.24" stroke="#3F4E55" stroke-width="0.354118" stroke-linecap="square" stroke-linejoin="bevel"/>
<path d="M50.0212 7.08235C50.0212 19.1224 51.7588 29.9765 44.9812 63.0412C43.4576 64.5647 40.0317 65.24 34.8435 65.24" stroke="#3F4E55" stroke-width="0.354118" stroke-linecap="square" stroke-linejoin="bevel"/>
</g>
</g>
<defs>
<clipPath id="clip0_2050_3865">
<rect width="70" height="70" fill="white"/>
</clipPath>
<clipPath id="clip1_2050_3865">
<rect width="70" height="70" fill="white"/>
</clipPath>
</defs>
</svg>
