<svg width="70" height="71" viewBox="0 0 70 71" fill="none" xmlns="http://www.w3.org/2000/svg">
<g clip-path="url(#clip0_2050_3929)">
<g clip-path="url(#clip1_2050_3929)">
<path d="M59.4094 28.3694C56.8976 30.3377 46.9247 31.8118 35 31.8118C23.0753 31.8118 13.1023 30.3377 10.5906 28.3694C13.1023 26.4012 23.0753 24.9271 35 24.9271C46.9247 24.9271 56.8976 26.4012 59.4094 28.3694Z" stroke="#3F4E55" stroke-width="0.354118" stroke-linecap="square" stroke-linejoin="bevel"/>
<path d="M62.6294 27.3235C62.2835 24.5812 50.0458 22.3824 35 22.3824C19.9541 22.3824 8.16936 24.5071 7.40348 27.1753C7.37878 27.2659 7.3623 27.3565 7.3623 27.4471C7.3623 27.5212 7.37054 27.5953 7.38701 27.6694C7.55172 28.3612 8.48231 29.02 10.0223 29.6129C14.4611 31.3259 23.9729 32.5035 34.9917 32.5035C46.0105 32.5035 55.5223 31.3259 59.9611 29.6129C61.6164 28.9788 62.5635 28.2624 62.6211 27.5129C62.6211 27.4471 62.6211 27.3812 62.6211 27.3235H62.6294ZM59.4094 28.3694C56.8976 30.3376 46.9247 31.8118 35 31.8118C23.0752 31.8118 13.1023 30.3376 10.5905 28.3694C10.1952 28.0565 9.98113 27.7353 9.98113 27.3976C9.98113 24.96 21.1811 22.9918 35 22.9918C48.8188 22.9918 60.0188 24.9682 60.0188 27.3976C60.0188 27.7271 59.8129 28.0565 59.4094 28.3694Z" stroke="#3F4E55" stroke-width="0.354118" stroke-linecap="square" stroke-linejoin="bevel"/>
<path d="M59.4094 28.3694C56.8976 30.3377 46.9247 31.8118 35 31.8118C23.0753 31.8118 13.1023 30.3377 10.5906 28.3694C13.1023 26.4012 23.0753 24.9271 35 24.9271C46.9247 24.9271 56.8976 26.4012 59.4094 28.3694Z" stroke="#3F4E55" stroke-width="0.354118" stroke-linecap="square" stroke-linejoin="bevel"/>
<path d="M62.6377 27.4388C62.6377 27.4388 62.6377 27.4882 62.6377 27.5129C62.6377 27.447 62.6377 27.3812 62.6377 27.3235C62.6377 27.3647 62.6377 27.4059 62.6377 27.4388Z" stroke="#3F4E55" stroke-width="0.354118" stroke-linecap="square" stroke-linejoin="bevel"/>
<path d="M60.0188 27.4059C60.0188 27.7353 59.813 28.0647 59.4094 28.3776C56.8977 26.4094 46.9247 24.9353 35 24.9353C23.0753 24.9353 13.1024 26.4094 10.5906 28.3776C10.1953 28.0647 9.9812 27.7435 9.9812 27.4059C9.9812 24.9682 21.1812 23 35 23C48.8189 23 60.0188 24.9765 60.0188 27.4059Z" stroke="#3F4E55" stroke-width="0.354118" stroke-linecap="square" stroke-linejoin="bevel"/>
<path d="M59.4094 28.3694C56.8976 30.3377 46.9247 31.8118 35 31.8118C23.0753 31.8118 13.1023 30.3377 10.5906 28.3694C13.1023 26.4012 23.0753 24.9271 35 24.9271C46.9247 24.9271 56.8976 26.4012 59.4094 28.3694Z" stroke="#3F4E55" stroke-width="0.354118" stroke-linecap="square" stroke-linejoin="bevel"/>
<path d="M59.4094 28.3694C56.8976 30.3377 46.9247 31.8118 35 31.8118C23.0753 31.8118 13.1023 30.3377 10.5906 28.3694C13.1023 26.4012 23.0753 24.9271 35 24.9271C46.9247 24.9271 56.8976 26.4012 59.4094 28.3694Z" stroke="#3F4E55" stroke-width="0.354118" stroke-linecap="square" stroke-linejoin="bevel"/>
<path d="M7.38707 27.6612C7.34589 28.3447 8.48236 29.0118 10.0224 29.6047C14.4612 31.3176 23.973 32.4953 34.9918 32.4953C46.0106 32.4953 55.5224 31.3176 59.9612 29.6047C61.6165 28.9706 62.5635 28.2541 62.6212 27.5047" stroke="#3F4E55" stroke-width="0.354118" stroke-linecap="square" stroke-linejoin="bevel"/>
<path d="M7.36224 27.4388C6.85165 46.4953 5.65753 52.8776 13.094 60.5447C13.7199 61.1871 14.4446 61.7223 15.2434 62.1259C20.2011 64.5882 26.2375 65.42 34.9917 65.42" stroke="#3F4E55" stroke-width="0.354118" stroke-linecap="square" stroke-linejoin="bevel"/>
<path d="M62.6294 27.4388C63.14 46.4953 64.3341 52.8776 56.8976 60.5447C56.2718 61.1871 55.5471 61.7223 54.7482 62.1259C49.7906 64.5882 43.7541 65.42 35 65.42" stroke="#3F4E55" stroke-width="0.354118" stroke-linecap="square" stroke-linejoin="bevel"/>
</g>
</g>
<defs>
<clipPath id="clip0_2050_3929">
<rect width="70" height="70" fill="white" transform="translate(0 0.179993)"/>
</clipPath>
<clipPath id="clip1_2050_3929">
<rect width="70" height="70" fill="white" transform="translate(0 0.179993)"/>
</clipPath>
</defs>
</svg>
