<svg width="70" height="71" viewBox="0 0 70 71" fill="none" xmlns="http://www.w3.org/2000/svg">
<g clip-path="url(#clip0_2050_4031)">
<g clip-path="url(#clip1_2050_4031)">
<path d="M35.0906 19.2118C28.5682 19.2118 22.9929 19.8953 20.7529 20.8506C22.9847 21.8306 28.56 22.5223 35.0906 22.5223C41.6212 22.5223 47.1882 21.8306 49.4282 20.8506C47.1965 19.8871 41.6212 19.2118 35.0906 19.2118Z" stroke="#3F4E55" stroke-width="0.354118" stroke-linecap="square" stroke-linejoin="bevel"/>
<path d="M50.4741 19.9035C50.4741 20.2412 50.1035 20.5623 49.4282 20.8588C47.1964 19.8953 41.6211 19.22 35.0906 19.22C28.56 19.22 22.9929 19.9035 20.7529 20.8588C20.0776 20.5623 19.707 20.2412 19.707 19.9035C19.707 18.4541 26.5917 17.2765 35.0906 17.2765C43.5894 17.2765 50.4741 18.4541 50.4741 19.9035Z" stroke="#3F4E55" stroke-width="0.354118" stroke-linecap="square" stroke-linejoin="bevel"/>
<path d="M50.4741 19.9035C50.4741 20.2412 50.1035 20.5623 49.4282 20.8588C47.1964 21.8388 41.6211 22.5306 35.0906 22.5306C28.56 22.5306 22.9929 21.8388 20.7529 20.8588C20.0776 20.5623 19.707 20.2412 19.707 19.9035C19.707 18.4541 26.5917 17.2765 35.0906 17.2765C43.5894 17.2765 50.4741 18.4541 50.4741 19.9035Z" stroke="#3F4E55" stroke-width="0.354118" stroke-linecap="square" stroke-linejoin="bevel"/>
<path d="M18.0765 19.22C11.0436 24.0047 7.74121 30.98 7.74121 39.9565C7.74121 44.3459 8.83651 48.48 10.7883 52.1282C15.7294 60.0918 24.92 65.4447 35.4365 65.4447C42.3953 65.4447 48.7777 63.0976 53.7271 59.2023C58.9812 54.3765 62.2671 47.5412 62.2671 39.9565C62.2671 31.6306 58.3142 24.2106 52.1294 19.3518M49.4283 20.8588C47.1965 21.8388 41.6212 22.5306 35.0906 22.5306C28.56 22.5306 22.993 21.8388 20.753 20.8588C20.0777 20.5623 19.7071 20.2412 19.7071 19.9035C19.7071 18.4541 26.5918 17.2765 35.0906 17.2765C43.5894 17.2765 50.4742 18.4541 50.4742 19.9035C50.4742 20.2412 50.1036 20.5623 49.4283 20.8588Z" stroke="#3F4E55" stroke-width="0.354118" stroke-linecap="square" stroke-linejoin="bevel"/>
<path d="M50.4741 19.9035C50.4741 20.2412 50.1035 20.5623 49.4282 20.8588C47.1964 21.8388 41.6211 22.5306 35.0906 22.5306C28.56 22.5306 22.9929 21.8388 20.7529 20.8588C20.0776 20.5623 19.707 20.2412 19.707 19.9035C19.707 18.4541 26.5917 17.2765 35.0906 17.2765C43.5894 17.2765 50.4741 18.4541 50.4741 19.9035Z" stroke="#3F4E55" stroke-width="0.354118" stroke-linecap="square" stroke-linejoin="bevel"/>
<path d="M35.0081 22.9341C44.6686 22.9341 52.4999 21.6068 52.4999 19.9694C52.4999 18.332 44.6686 17.0047 35.0081 17.0047C25.3477 17.0047 17.5164 18.332 17.5164 19.9694C17.5164 21.6068 25.3477 22.9341 35.0081 22.9341Z" stroke="#3F4E55" stroke-width="0.354118" stroke-linecap="square" stroke-linejoin="bevel"/>
</g>
</g>
<defs>
<clipPath id="clip0_2050_4031">
<rect width="70" height="70" fill="white" transform="translate(0 0.179993)"/>
</clipPath>
<clipPath id="clip1_2050_4031">
<rect width="70" height="70" fill="white" transform="translate(0 0.179993)"/>
</clipPath>
</defs>
</svg>
