<svg width="70" height="71" viewBox="0 0 70 71" fill="none" xmlns="http://www.w3.org/2000/svg">
<g clip-path="url(#clip0_2050_3945)">
<g clip-path="url(#clip1_2050_3945)">
<path d="M54.1799 21.6494C52.2117 23.1976 44.3635 24.3506 34.9917 24.3506C25.6199 24.3506 17.7717 23.1976 15.8035 21.6494C17.7717 20.1012 25.6199 18.94 34.9917 18.94C44.3635 18.94 52.2117 20.0929 54.1799 21.6494Z" stroke="#3F4E55" stroke-width="0.354118" stroke-linecap="square" stroke-linejoin="bevel"/>
<path d="M56.7081 20.8259C56.4364 18.6682 46.8175 16.9388 34.9834 16.9388C23.1493 16.9388 13.8928 18.6023 13.2834 20.7023C13.2587 20.7765 13.2505 20.8423 13.2505 20.9165C13.2505 20.9741 13.2505 21.0318 13.2752 21.0894C13.407 21.6329 14.1399 22.1518 15.3505 22.6212C18.8423 23.9635 26.3199 24.8941 34.9834 24.8941C43.647 24.8941 51.1246 23.9635 54.6164 22.6212C55.9175 22.1188 56.667 21.5588 56.7081 20.9741C56.7081 20.9247 56.7081 20.8753 56.7081 20.8259ZM54.1799 21.6494C52.2117 23.1976 44.3634 24.3506 34.9917 24.3506C25.6199 24.3506 17.7717 23.1976 15.8034 21.6494C15.4905 21.4023 15.3258 21.147 15.3258 20.8835C15.3258 18.9729 24.1293 17.4165 34.9917 17.4165C45.854 17.4165 54.6575 18.9647 54.6575 20.8835C54.6575 21.147 54.4928 21.4023 54.1799 21.6494Z" stroke="#3F4E55" stroke-width="0.354118" stroke-linecap="square" stroke-linejoin="bevel"/>
<path d="M54.1799 21.6494C52.2117 23.1976 44.3635 24.3506 34.9917 24.3506C25.6199 24.3506 17.7717 23.1976 15.8035 21.6494C17.7717 20.1012 25.6199 18.94 34.9917 18.94C44.3635 18.94 52.2117 20.0929 54.1799 21.6494Z" stroke="#3F4E55" stroke-width="0.354118" stroke-linecap="square" stroke-linejoin="bevel"/>
<path d="M56.7166 20.9165C56.7166 20.9165 56.7166 20.9576 56.7166 20.9741C56.7166 20.9247 56.7166 20.8753 56.7166 20.8259C56.7166 20.8588 56.7166 20.8835 56.7166 20.9165Z" stroke="#3F4E55" stroke-width="0.354118" stroke-linecap="square" stroke-linejoin="bevel"/>
<path d="M54.6577 20.8918C54.6577 21.1553 54.493 21.4106 54.18 21.6577C52.2118 20.1094 44.3636 18.9482 34.9918 18.9482C25.62 18.9482 17.7718 20.1012 15.8036 21.6577C15.4906 21.4106 15.3259 21.1553 15.3259 20.8918C15.3259 18.9812 24.1295 17.4247 34.9918 17.4247C45.8542 17.4247 54.6577 18.9729 54.6577 20.8918Z" stroke="#3F4E55" stroke-width="0.354118" stroke-linecap="square" stroke-linejoin="bevel"/>
<path d="M54.1799 21.6494C52.2117 23.1976 44.3635 24.3506 34.9917 24.3506C25.6199 24.3506 17.7717 23.1976 15.8035 21.6494C17.7717 20.1012 25.6199 18.94 34.9917 18.94C44.3635 18.94 52.2117 20.0929 54.1799 21.6494Z" stroke="#3F4E55" stroke-width="0.354118" stroke-linecap="square" stroke-linejoin="bevel"/>
<path d="M54.1799 21.6494C52.2117 23.1976 44.3635 24.3506 34.9917 24.3506C25.6199 24.3506 17.7717 23.1976 15.8035 21.6494C17.7717 20.1012 25.6199 18.94 34.9917 18.94C44.3635 18.94 52.2117 20.0929 54.1799 21.6494Z" stroke="#3F4E55" stroke-width="0.354118" stroke-linecap="square" stroke-linejoin="bevel"/>
<path d="M13.2836 21.0894C13.2507 21.6247 14.1483 22.1518 15.3589 22.6212C18.8507 23.9635 26.3283 24.8941 34.9918 24.8941C43.6554 24.8941 51.133 23.9635 54.6248 22.6212C55.9259 22.1188 56.6754 21.5588 56.7165 20.9741" stroke="#3F4E55" stroke-width="0.354118" stroke-linecap="square" stroke-linejoin="bevel"/>
<path d="M56.7082 20.8259L48.0282 62.3729C47.6823 62.9494 47.1306 63.3694 46.4964 63.6C43.26 64.7612 39.2823 65.4447 34.9835 65.4447C30.24 65.4447 25.9247 64.6541 22.5317 63.2706L22.4906 63.2212L13.2588 20.9165" stroke="#3F4E55" stroke-width="0.354118" stroke-linecap="square" stroke-linejoin="bevel"/>
</g>
</g>
<defs>
<clipPath id="clip0_2050_3945">
<rect width="70" height="70" fill="white" transform="translate(0 0.179993)"/>
</clipPath>
<clipPath id="clip1_2050_3945">
<rect width="70" height="70" fill="white" transform="translate(0 0.179993)"/>
</clipPath>
</defs>
</svg>
