<svg width="70" height="70" viewBox="0 0 70 70" fill="none" xmlns="http://www.w3.org/2000/svg">
<g clip-path="url(#clip0_2050_3914)">
<g clip-path="url(#clip1_2050_3914)">
<path d="M49.8236 7.58471C48.3 8.26 42.2306 8.76235 34.9836 8.76235C27.7365 8.76235 21.6671 8.26 20.1436 7.58471C21.6671 6.90941 27.7365 6.40706 34.9836 6.40706C42.2306 6.40706 48.3 6.90941 49.8236 7.58471Z" stroke="#3F4E55" stroke-width="0.354118" stroke-linecap="square" stroke-linejoin="bevel"/>
<path d="M51.7836 7.22235C51.5777 6.28353 44.133 5.52588 34.9836 5.52588C25.8342 5.52588 18.6777 6.25058 18.2083 7.1647C18.1918 7.19764 18.1836 7.23059 18.1836 7.25529C18.1836 7.28 18.1836 7.3047 18.2001 7.32941C18.2989 7.56823 18.8671 7.79058 19.8059 7.99647C22.5071 8.58117 28.2883 8.9847 34.9836 8.9847C41.6789 8.9847 47.4683 8.58117 50.1612 7.99647C51.1659 7.78235 51.7424 7.53529 51.7836 7.28C51.7836 7.25529 51.7836 7.23882 51.7836 7.21411V7.22235ZM49.8236 7.5847C48.3001 8.26 42.2307 8.76235 34.9836 8.76235C27.7365 8.76235 21.6671 8.26 20.1436 7.5847C19.9048 7.47764 19.773 7.37059 19.773 7.25529C19.773 6.42353 26.5836 5.74823 34.9836 5.74823C43.3836 5.74823 50.1942 6.42353 50.1942 7.25529C50.1942 7.37059 50.0707 7.47764 49.8236 7.5847Z" stroke="#3F4E55" stroke-width="0.354118" stroke-linecap="square" stroke-linejoin="bevel"/>
<path d="M49.8236 7.58471C48.3 8.26 42.2306 8.76235 34.9836 8.76235C27.7365 8.76235 21.6671 8.26 20.1436 7.58471C21.6671 6.90941 27.7365 6.40706 34.9836 6.40706C42.2306 6.40706 48.3 6.90941 49.8236 7.58471Z" stroke="#3F4E55" stroke-width="0.354118" stroke-linecap="square" stroke-linejoin="bevel"/>
<path d="M51.7832 7.26353C51.7832 7.26353 51.7832 7.28 51.7832 7.28823C51.7832 7.26353 51.7832 7.24706 51.7832 7.22235C51.7832 7.23882 51.7832 7.24706 51.7832 7.26353Z" stroke="#3F4E55" stroke-width="0.354118" stroke-linecap="square" stroke-linejoin="bevel"/>
<path d="M50.1936 7.24706C50.1936 7.36236 50.0701 7.46942 49.823 7.57648C48.2995 6.90118 42.2301 6.39883 34.983 6.39883C27.736 6.39883 21.6666 6.90118 20.143 7.57648C19.9042 7.46942 19.7725 7.36236 19.7725 7.24706C19.7725 6.4153 26.583 5.74001 34.983 5.74001C43.383 5.74001 50.1936 6.4153 50.1936 7.24706Z" stroke="#3F4E55" stroke-width="0.354118" stroke-linecap="square" stroke-linejoin="bevel"/>
<path d="M49.8236 7.58471C48.3 8.26 42.2306 8.76235 34.9836 8.76235C27.7365 8.76235 21.6671 8.26 20.1436 7.58471C21.6671 6.90941 27.7365 6.40706 34.9836 6.40706C42.2306 6.40706 48.3 6.90941 49.8236 7.58471Z" stroke="#3F4E55" stroke-width="0.354118" stroke-linecap="square" stroke-linejoin="bevel"/>
<path d="M49.8236 7.58471C48.3 8.26 42.2306 8.76235 34.9836 8.76235C27.7365 8.76235 21.6671 8.26 20.1436 7.58471C21.6671 6.90941 27.7365 6.40706 34.9836 6.40706C42.2306 6.40706 48.3 6.90941 49.8236 7.58471Z" stroke="#3F4E55" stroke-width="0.354118" stroke-linecap="square" stroke-linejoin="bevel"/>
<path d="M18.2003 7.33765C16.5286 37.7176 15.3015 54.5835 24.3521 63.1729C26.9874 64.9024 30.8992 65.2318 34.9921 65.2318" stroke="#3F4E55" stroke-width="0.354118" stroke-linecap="square" stroke-linejoin="bevel"/>
<path d="M51.7996 7.33765C53.4713 37.7176 54.6984 54.5835 45.6478 63.1729C43.0125 64.9024 39.1008 65.2318 35.0078 65.2318" stroke="#3F4E55" stroke-width="0.354118" stroke-linecap="square" stroke-linejoin="bevel"/>
<path d="M51.7834 7.28824C51.7504 7.54353 51.174 7.79059 50.161 8.00471C47.4599 8.58941 41.6787 8.99294 34.9834 8.99294C28.2881 8.99294 22.4987 8.58941 19.8057 8.00471C18.8669 7.79883 18.1752 7.56824 18.1999 7.33765" stroke="#3F4E55" stroke-width="0.354118" stroke-linecap="square" stroke-linejoin="bevel"/>
</g>
</g>
<defs>
<clipPath id="clip0_2050_3914">
<rect width="70" height="70" fill="white"/>
</clipPath>
<clipPath id="clip1_2050_3914">
<rect width="70" height="70" fill="white"/>
</clipPath>
</defs>
</svg>
