<svg width="70" height="70" viewBox="0 0 70 70" fill="none" xmlns="http://www.w3.org/2000/svg">
<g clip-path="url(#clip0_2050_3748)">
<g clip-path="url(#clip1_2050_3748)">
<path d="M3.02246 35.1071L3.57423 62.2835C3.62364 64.9847 12.773 65.5776 19.4025 65.0753C35.8236 63.7906 60.1672 61.7812 60.1672 61.7812C64.6966 61.32 66.2942 60.0847 66.5742 59.2612C66.5742 56.2388 66.986 32.9082 66.986 32.9082C66.986 31.4918 57.9272 30.5282 51.1578 30.8C44.3883 31.0718 16.5366 32.48 11.933 32.7682C7.32952 33.0565 3.08834 33.9294 3.0307 35.0988L3.02246 35.1071Z" stroke="#3F4E55" stroke-width="0.354118" stroke-linecap="square" stroke-linejoin="bevel"/>
<path d="M65.5772 33.0976C65.5772 31.7718 57.0948 30.8741 50.7537 31.1294C44.4125 31.3847 17.3266 32.7024 13.0113 32.9741C8.696 33.2459 4.72659 34.0612 4.66895 35.1565C4.66895 35.6424 7.86424 37.3059 22.5972 36.4824C37.3301 35.6588 60.8913 34.3741 60.8913 34.3741C63.3619 34.1024 65.2642 33.74 65.5689 33.0976H65.5772Z" stroke="#3F4E55" stroke-width="0.354118" stroke-linecap="square" stroke-linejoin="bevel"/>
<path d="M66.8866 32.6612C67.0019 33.0976 66.9772 33.1388 66.656 33.5506C66.2278 34.1188 64.2184 34.5553 61.7478 34.8271C61.7478 34.8271 36.3502 36.1118 21.6172 36.9353C6.88427 37.7588 3.68898 35.6094 3.68898 35.6094C3.68898 35.6094 3.04663 34.9753 3.7878 34.2835" stroke="#3F4E55" stroke-width="0.354118" stroke-linecap="square" stroke-linejoin="bevel"/>
<path d="M64.7215 33.6329C62.4156 32.7106 55.885 32.1671 50.7544 32.3729C44.4133 32.6282 17.3274 33.9459 13.0121 34.2176C9.71796 34.4235 6.62972 34.9506 5.32031 35.6753" stroke="#3F4E55" stroke-width="0.354118" stroke-linecap="square" stroke-linejoin="bevel"/>
</g>
</g>
<defs>
<clipPath id="clip0_2050_3748">
<rect width="70" height="70" fill="white"/>
</clipPath>
<clipPath id="clip1_2050_3748">
<rect width="70" height="70" fill="white"/>
</clipPath>
</defs>
</svg>
