<svg width="70" height="70" viewBox="0 0 70 70" fill="none" xmlns="http://www.w3.org/2000/svg">
<g clip-path="url(#clip0_2050_3777)">
<g clip-path="url(#clip1_2050_3777)">
<path d="M48.267 6.94235C46.9 7.54352 41.4811 7.99646 35 7.99646C28.5188 7.99646 23.0917 7.54352 21.7329 6.94235C23.1 6.34117 28.5188 5.88823 35 5.88823C41.4811 5.88823 46.9082 6.34117 48.267 6.94235Z" stroke="#3F4E55" stroke-width="0.354118" stroke-linecap="square" stroke-linejoin="bevel"/>
<path d="M50.0213 6.62117C49.8319 5.78118 43.1778 5.10588 35.0001 5.10588C26.8225 5.10588 20.4154 5.75647 19.9954 6.57176C19.9789 6.59647 19.9707 6.62941 19.9707 6.65412C19.9707 6.67882 19.9707 6.70353 19.9872 6.72C20.0778 6.93412 20.5801 7.13176 21.4201 7.31294C23.8331 7.84 29.0048 8.20235 34.9919 8.20235C40.9789 8.20235 46.1507 7.84 48.5636 7.31294C49.4613 7.11529 49.9801 6.90118 50.0131 6.67059C50.0131 6.65412 50.0131 6.62941 50.0131 6.61294L50.0213 6.62117ZM48.2672 6.94235C46.9001 7.54353 41.4813 7.99647 35.0001 7.99647C28.5189 7.99647 23.0919 7.54353 21.7331 6.94235C21.5189 6.84353 21.4036 6.7447 21.4036 6.64588C21.4036 5.89647 27.4895 5.29529 35.0001 5.29529C42.5107 5.29529 48.5966 5.89647 48.5966 6.64588C48.5966 6.7447 48.4813 6.84353 48.2672 6.94235Z" stroke="#3F4E55" stroke-width="0.354118" stroke-linecap="square" stroke-linejoin="bevel"/>
<path d="M48.267 6.94235C46.9 7.54352 41.4811 7.99646 35 7.99646C28.5188 7.99646 23.0917 7.54352 21.7329 6.94235C23.1 6.34117 28.5188 5.88823 35 5.88823C41.4811 5.88823 46.9082 6.34117 48.267 6.94235Z" stroke="#3F4E55" stroke-width="0.354118" stroke-linecap="square" stroke-linejoin="bevel"/>
<path d="M50.0212 6.65411C50.0212 6.65411 50.0212 6.67058 50.0212 6.67882C50.0212 6.66235 50.0212 6.63764 50.0212 6.62117C50.0212 6.62941 50.0212 6.64588 50.0212 6.65411Z" stroke="#3F4E55" stroke-width="0.354118" stroke-linecap="square" stroke-linejoin="bevel"/>
<path d="M48.5965 6.64588C48.5965 6.7447 48.4812 6.84352 48.2671 6.94235C46.9 6.34117 41.4812 5.88823 35 5.88823C28.5189 5.88823 23.0918 6.34117 21.733 6.94235C21.5189 6.84352 21.4036 6.7447 21.4036 6.64588C21.4036 5.89646 27.4894 5.29529 35 5.29529C42.5106 5.29529 48.5965 5.89646 48.5965 6.64588Z" stroke="#3F4E55" stroke-width="0.354118" stroke-linecap="square" stroke-linejoin="bevel"/>
<path d="M48.267 6.94235C46.9 7.54352 41.4811 7.99646 35 7.99646C28.5188 7.99646 23.0917 7.54352 21.7329 6.94235C23.1 6.34117 28.5188 5.88823 35 5.88823C41.4811 5.88823 46.9082 6.34117 48.267 6.94235Z" stroke="#3F4E55" stroke-width="0.354118" stroke-linecap="square" stroke-linejoin="bevel"/>
<path d="M48.267 6.94235C46.9 7.54352 41.4811 7.99646 35 7.99646C28.5188 7.99646 23.0917 7.54352 21.7329 6.94235C23.1 6.34117 28.5188 5.88823 35 5.88823C41.4811 5.88823 46.9082 6.34117 48.267 6.94235Z" stroke="#3F4E55" stroke-width="0.354118" stroke-linecap="square" stroke-linejoin="bevel"/>
<path d="M50.0212 6.67882C49.9883 6.90941 49.4695 7.12352 48.5718 7.32117C46.1589 7.84823 40.9871 8.21058 35.0001 8.21058C29.013 8.21058 23.8412 7.84823 21.4283 7.32117C20.5883 7.13999 19.9706 6.93411 19.9953 6.72823" stroke="#3F4E55" stroke-width="0.354118" stroke-linecap="square" stroke-linejoin="bevel"/>
<path d="M19.9788 6.65411V62.6129" stroke="#3F4E55" stroke-width="0.354118" stroke-linecap="square" stroke-linejoin="bevel"/>
<path d="M50.0212 6.65411V62.6129" stroke="#3F4E55" stroke-width="0.354118" stroke-linecap="square" stroke-linejoin="bevel"/>
<path d="M19.9788 62.6129C19.9788 64.0624 26.707 65.2318 34.9999 65.2318C43.2929 65.2318 50.0211 64.0541 50.0211 62.6129" stroke="#3F4E55" stroke-width="0.354118" stroke-linecap="square" stroke-linejoin="bevel"/>
</g>
</g>
<defs>
<clipPath id="clip0_2050_3777">
<rect width="70" height="70" fill="white"/>
</clipPath>
<clipPath id="clip1_2050_3777">
<rect width="70" height="70" fill="white"/>
</clipPath>
</defs>
</svg>
