<svg width="70" height="70" viewBox="0 0 70 70" fill="none" xmlns="http://www.w3.org/2000/svg">
<g clip-path="url(#clip0_2050_3881)">
<g clip-path="url(#clip1_2050_3881)">
<path d="M63.6099 26.0236C63.6099 26.0894 63.6099 26.1636 63.6099 26.2294C63.6099 26.1965 63.6099 26.1718 63.6099 26.1388C63.6099 26.0977 63.6099 26.0647 63.6099 26.0236ZM6.38281 26.1388C6.38281 26.1388 6.38281 26.2047 6.38281 26.2377C6.38281 26.1636 6.38281 26.0812 6.38281 26.0071C6.38281 26.0483 6.38281 26.0894 6.38281 26.1306V26.1388Z" stroke="#3F4E55" stroke-width="0.354118" stroke-linecap="square" stroke-linejoin="bevel"/>
<path d="M63.4938 31.8294C63.115 39.1341 61.9126 45.9035 60.142 51.5694C59.2444 54.4518 58.1985 57.0541 57.0455 59.2859C56.4279 60.48 55.4067 61.4106 54.1714 61.9377C50.6797 63.4283 46.1173 64.5071 40.9867 64.9847C39.0679 65.1659 37.0585 65.2565 34.9997 65.2565C32.9408 65.2565 30.9397 65.1577 29.0208 64.9847C23.3879 64.4577 18.455 63.2059 14.8561 61.493C14.2632 61.213 13.7608 60.7683 13.4479 60.1918C12.0973 57.7624 10.8867 54.8471 9.86554 51.5694C8.10319 45.9035 6.8926 39.1341 6.51378 31.8294C6.41495 29.9353 6.37378 28.0659 6.39025 26.2377C6.46437 27.1188 7.44437 27.9588 9.14907 28.7083C13.5467 30.6435 22.7538 32.0024 33.5338 32.1177C34.0197 32.1177 34.5138 32.1177 35.0079 32.1177C35.502 32.1177 35.9961 32.1177 36.482 32.1177C47.262 32.0024 56.4691 30.6435 60.8667 28.7083C62.5797 27.9588 63.5679 27.1106 63.6255 26.2294C63.642 28.0577 63.6008 29.9271 63.502 31.8294H63.4938Z" stroke="#3F4E55" stroke-width="0.354118" stroke-linecap="square" stroke-linejoin="bevel"/>
<path d="M60.0353 27.4318C57.2765 29.6553 47.8471 31.3188 36.4412 31.4506C35.9635 31.4506 35.4777 31.4506 34.9918 31.4506C34.5059 31.4506 34.02 31.4506 33.5424 31.4506C22.1447 31.3188 12.7071 29.6553 9.94824 27.4318C12.7565 25.167 22.5071 23.4788 34.2094 23.4047C34.4647 23.4047 34.7282 23.4047 34.9835 23.4047C35.2388 23.4047 35.5024 23.4047 35.7659 23.4047C47.4682 23.4788 57.2188 25.167 60.0271 27.4318H60.0353Z" stroke="#3F4E55" stroke-width="0.354118" stroke-linecap="square" stroke-linejoin="bevel"/>
<path d="M60.8588 26.0894C60.8588 26.5506 60.5788 27.0035 60.0435 27.44C57.2353 25.1753 47.4847 23.4871 35.7824 23.4129C35.5271 23.4129 35.2635 23.4129 35 23.4129C34.7365 23.4129 34.4812 23.4129 34.2259 23.4129C22.5235 23.4871 12.7729 25.1753 9.96471 27.44C9.42941 27.0118 9.14941 26.5588 9.14941 26.0894C9.14941 23.1494 20.5141 20.7529 34.6129 20.7118C34.7447 20.7118 34.8682 20.7118 35 20.7118C35.1318 20.7118 35.2635 20.7118 35.3871 20.7118C49.4859 20.7529 60.8506 23.1412 60.8506 26.0894H60.8588Z" stroke="#3F4E55" stroke-width="0.354118" stroke-linecap="square" stroke-linejoin="bevel"/>
<path d="M63.6094 26.0235C63.3212 22.7871 50.7789 20.1765 35.2965 20.1518C35.1977 20.1518 35.0989 20.1518 35 20.1518C34.9012 20.1518 34.8024 20.1518 34.7036 20.1518C19.2377 20.1847 6.7118 22.7871 6.39062 26.0153C6.39062 26.0894 6.39062 26.1635 6.39062 26.2459C6.46474 27.1271 7.44474 27.9671 9.14945 28.7165C13.5471 30.6518 22.7542 32.0106 33.5342 32.1259C34.02 32.1259 34.5142 32.1259 35.0083 32.1259C35.5024 32.1259 35.9965 32.1259 36.4824 32.1259C47.2624 32.0106 56.4695 30.6518 60.8671 28.7165C62.58 27.9671 63.5683 27.1188 63.6259 26.2376C63.6259 26.1718 63.6259 26.0976 63.6259 26.0318L63.6094 26.0235ZM60.0353 27.4318C57.2765 29.6553 47.8471 31.3188 36.4412 31.4506C35.9636 31.4506 35.4777 31.4506 34.9918 31.4506C34.5059 31.4506 34.02 31.4506 33.5424 31.4506C22.1447 31.3188 12.7071 29.6553 9.94827 27.4318C9.41298 27.0035 9.13298 26.5506 9.13298 26.0812C9.13298 23.1412 20.4977 20.7447 34.5965 20.7035C34.7283 20.7035 34.8518 20.7035 34.9836 20.7035C35.1153 20.7035 35.2471 20.7035 35.3706 20.7035C49.4695 20.7447 60.8342 23.1329 60.8342 26.0812C60.8342 26.5424 60.5542 26.9953 60.0189 27.4318H60.0353Z" stroke="#3F4E55" stroke-width="0.354118" stroke-linecap="square" stroke-linejoin="bevel"/>
</g>
</g>
<defs>
<clipPath id="clip0_2050_3881">
<rect width="70" height="70" fill="white"/>
</clipPath>
<clipPath id="clip1_2050_3881">
<rect width="70" height="70" fill="white"/>
</clipPath>
</defs>
</svg>
