<svg width="70" height="70" viewBox="0 0 70 70" fill="none" xmlns="http://www.w3.org/2000/svg">
<g clip-path="url(#clip0_2050_3766)">
<g clip-path="url(#clip1_2050_3766)">
<path d="M56.7411 9.99764C55.8435 12.8141 45.0058 13.7035 34.9835 13.8271C24.5988 13.8271 15.9023 12.5506 13.7447 10.8376C10.7635 7.87294 23.4129 6.20117 34.9835 6.17647C47.007 6.17647 56.7411 7.88941 56.7411 9.99764Z" stroke="#3F4E55" stroke-width="0.354118" stroke-linecap="square" stroke-linejoin="bevel"/>
<path d="M56.7411 9.99764C55.8435 12.8141 45.0058 13.7035 34.9835 13.8271C24.5988 13.8271 15.9023 12.5506 13.7447 10.8376C10.7635 7.87294 23.4129 6.20117 34.9835 6.17647C47.007 6.17647 56.7411 7.88941 56.7411 9.99764Z" stroke="#3F4E55" stroke-width="0.354118" stroke-linecap="square" stroke-linejoin="bevel"/>
<path d="M56.2305 10.8377C51.9152 14.7412 18.0435 14.7412 13.7446 10.8377C18.1258 6.91765 51.874 6.92589 56.2305 10.8377Z" stroke="#3F4E55" stroke-width="0.354118" stroke-linecap="square" stroke-linejoin="bevel"/>
<path d="M58.5612 10.0306L58.6929 58.6106C58.6929 62.2753 48.1682 65.24 35.1812 65.24C22.1941 65.24 11.6776 62.2753 11.6694 58.6188C11.6694 58.6188 11.48 10.2859 11.48 10.2777C11.6529 10.7388 12.2706 11.2329 13.3082 11.6612C20.0365 14.9965 50.1035 14.9882 56.8235 11.6612C58.0259 11.1588 58.5612 10.6153 58.5612 10.0388V10.0306Z" stroke="#3F4E55" stroke-width="0.354118" stroke-linecap="square" stroke-linejoin="bevel"/>
<path d="M34.9836 5.84706C22.3588 5.84706 12.0483 7.60941 11.3977 9.82471C11.3318 13.2835 26.7071 14.2224 34.9836 14.2471C62.1435 14.3871 70.4447 6.53883 34.9836 5.84706ZM56.2306 10.8376C54.0647 12.5506 45.3765 13.8271 34.9836 13.8271C24.9365 13.7035 14.1647 12.8224 13.2259 9.99765C13.2259 7.88941 22.9683 6.17647 34.9836 6.17647C46.5953 6.20941 59.1541 7.85647 56.2306 10.8376Z" stroke="#3F4E55" stroke-width="0.354118" stroke-linecap="square" stroke-linejoin="bevel"/>
<path d="M56.7411 9.99764C55.8435 12.8141 45.0058 13.7035 34.9835 13.8271C24.5988 13.8271 15.9023 12.5506 13.7447 10.8376C10.7635 7.87294 23.4129 6.20117 34.9835 6.17647C47.007 6.17647 56.7411 7.88941 56.7411 9.99764Z" stroke="#3F4E55" stroke-width="0.354118" stroke-linecap="square" stroke-linejoin="bevel"/>
</g>
</g>
<defs>
<clipPath id="clip0_2050_3766">
<rect width="70" height="70" fill="white"/>
</clipPath>
<clipPath id="clip1_2050_3766">
<rect width="70" height="70" fill="white"/>
</clipPath>
</defs>
</svg>
