<svg width="70" height="71" viewBox="0 0 70 71" fill="none" xmlns="http://www.w3.org/2000/svg">
<g clip-path="url(#clip0_2050_4042)">
<g clip-path="url(#clip1_2050_4042)">
<path d="M15.2764 60.3553C15.3093 60.4294 15.3423 60.5035 15.367 60.5859C15.3258 60.5118 15.3011 60.4376 15.2764 60.3553Z" stroke="#3F4E55" stroke-width="0.354118" stroke-linecap="square" stroke-linejoin="bevel"/>
<path d="M54.7561 60.2812C54.7149 60.4047 54.6655 60.5282 54.5996 60.66C54.649 60.5365 54.7067 60.413 54.7561 60.2812Z" stroke="#3F4E55" stroke-width="0.354118" stroke-linecap="square" stroke-linejoin="bevel"/>
<path d="M59.3768 34.5294C59.3768 44.3376 57.6392 53.3306 54.7486 60.2812C54.6992 60.4047 54.6415 60.5365 54.5921 60.66C53.5545 62.5871 49.0827 64.1929 43.0215 64.9588C40.5674 65.2718 37.8498 65.4447 34.9921 65.4447C32.1345 65.4447 29.4168 65.2718 26.9545 64.9588C20.8192 64.1847 16.3227 62.5459 15.3592 60.5859C15.3262 60.5118 15.2933 60.4294 15.2604 60.3553C12.3615 53.3965 10.6074 44.3788 10.6074 34.5294C10.6074 24.68 12.3204 15.8765 15.1615 8.94235V8.96706C15.1615 9.54353 16.0262 10.0953 17.558 10.5647C19.0157 11.0259 21.0827 11.4212 23.5615 11.7176C26.798 12.1047 30.7345 12.3353 34.9921 12.3353C39.2498 12.3353 43.178 12.1047 46.4145 11.7176C48.7862 11.4294 50.7792 11.0588 52.2286 10.6306C53.8757 10.1447 54.8227 9.57647 54.8227 8.96706C57.6557 15.9012 59.3686 24.8035 59.3686 34.5294H59.3768Z" stroke="#3F4E55" stroke-width="0.354118" stroke-linecap="square" stroke-linejoin="bevel"/>
<path d="M51.0836 9.9388C49.9718 10.3588 48.2836 10.7212 46.1753 11.0094C43.1447 11.4212 39.2494 11.6682 35 11.6682C30.7506 11.6682 26.8553 11.4212 23.8247 11.0094C21.6341 10.7129 19.8965 10.3341 18.793 9.88939C20.0777 9.40351 22.1365 8.99174 24.7141 8.69527C27.58 8.35762 31.0883 8.16821 34.8765 8.16821C38.6647 8.16821 42.3789 8.3741 45.2941 8.73645C47.8389 9.04115 49.8483 9.46115 51.0753 9.94704L51.0836 9.9388Z" stroke="#3F4E55" stroke-width="0.354118" stroke-linecap="square" stroke-linejoin="bevel"/>
<path d="M52.5578 8.78588C52.5578 9.19764 52.0307 9.59294 51.0837 9.93882C49.8566 9.45294 47.839 9.04117 45.3025 8.72823C42.3872 8.37411 38.7802 8.16 34.8849 8.16C30.9896 8.16 27.5884 8.35764 24.7225 8.68705C22.1449 8.98352 20.086 9.40352 18.8013 9.88117C17.9366 9.53529 17.459 9.1647 17.459 8.77764C17.459 7.74 20.7943 6.82588 25.7931 6.32353C28.4696 6.05176 31.6237 5.88705 35.0084 5.88705C38.3931 5.88705 41.539 6.05176 44.2155 6.31529C49.2225 6.82588 52.5578 7.73176 52.5578 8.77764V8.78588Z" stroke="#3F4E55" stroke-width="0.354118" stroke-linecap="square" stroke-linejoin="bevel"/>
<path d="M54.6325 8.4894C53.7184 7.38587 49.6501 6.45529 44.0254 5.9694C41.3242 5.73058 38.2525 5.59882 34.9995 5.59882C31.7466 5.59882 28.6666 5.73058 25.9654 5.9694C20.316 6.46352 16.2395 7.40235 15.3501 8.51411C15.2348 8.65411 15.1772 8.80234 15.1689 8.95058V8.97529C15.1689 9.55176 16.0337 10.1035 17.5654 10.5729C19.0231 11.0341 21.0901 11.4294 23.5689 11.7259C26.8054 12.1129 30.7419 12.3435 34.9995 12.3435C39.2572 12.3435 43.1854 12.1129 46.4219 11.7259C48.7936 11.4376 50.7866 11.0671 52.236 10.6388C53.8831 10.1529 54.8301 9.5847 54.8301 8.97529C54.8301 8.81058 54.7642 8.65411 54.6325 8.49764V8.4894ZM51.0831 9.93882C49.9713 10.3588 48.2831 10.7212 46.1748 11.0094C43.1442 11.4212 39.2489 11.6682 34.9995 11.6682C30.7501 11.6682 26.8548 11.4212 23.8242 11.0094C21.6337 10.7129 19.896 10.3341 18.7925 9.8894C17.9278 9.54352 17.4501 9.17293 17.4501 8.78587C17.4501 7.74823 20.7854 6.83411 25.7842 6.33176C28.4607 6.05999 31.6148 5.89529 34.9995 5.89529C38.3842 5.89529 41.5301 6.05999 44.2066 6.32352C49.2137 6.83411 52.5489 7.73999 52.5489 8.78587C52.5489 9.19764 52.0219 9.59293 51.0748 9.93882H51.0831Z" stroke="#3F4E55" stroke-width="0.354118" stroke-linecap="square" stroke-linejoin="bevel"/>
</g>
</g>
<defs>
<clipPath id="clip0_2050_4042">
<rect width="70" height="70" fill="white" transform="translate(0 0.179993)"/>
</clipPath>
<clipPath id="clip1_2050_4042">
<rect width="70" height="70" fill="white" transform="translate(0 0.179993)"/>
</clipPath>
</defs>
</svg>
