<svg width="70" height="71" viewBox="0 0 70 71" fill="none" xmlns="http://www.w3.org/2000/svg">
<g clip-path="url(#clip0_2050_4025)">
<g clip-path="url(#clip1_2050_4025)">
<path d="M10.4424 27.7435C9.65183 29.1929 2.69301 37.3294 10.0224 51.7247C15.1283 59.927 24.6236 65.4447 35.4859 65.4447C42.6754 65.4447 49.2718 63.0318 54.3859 59.0129C69.6624 43.0282 61.0071 30.4694 59.6071 27.62M13.3989 28.7812C13.3989 27.0682 23.0507 25.6765 34.9589 25.6765C46.8671 25.6765 56.5189 27.0682 56.5189 28.7812M58.0424 29.7776C54.4601 31.5482 45.5165 32.8 35.0577 32.8C24.5989 32.8 15.6554 31.5482 12.073 29.7776C10.9942 29.2423 10.4012 28.6659 10.4012 28.0565C10.4012 25.4376 21.4448 23.3129 35.0577 23.3129C48.6707 23.3129 59.7142 25.4376 59.7142 28.0565C59.7142 28.6659 59.1212 29.2423 58.0424 29.7776ZM55.5389 29.3906C52.3271 30.8482 44.3059 31.8859 34.9177 31.8859C25.5295 31.8859 17.5083 30.8482 14.2965 29.3906C13.3248 28.9541 12.7977 28.4682 12.7977 27.9659C12.7977 25.8 22.7048 24.0541 34.9259 24.0541C47.1471 24.0541 57.0542 25.8082 57.0542 27.9659C57.0542 28.4682 56.5189 28.9459 55.5554 29.3906H55.5389Z" stroke="#3F4E55" stroke-width="0.354118" stroke-linecap="square" stroke-linejoin="bevel"/>
</g>
</g>
<defs>
<clipPath id="clip0_2050_4025">
<rect width="70" height="70" fill="white" transform="translate(0 0.179993)"/>
</clipPath>
<clipPath id="clip1_2050_4025">
<rect width="70" height="70" fill="white" transform="translate(0 0.179993)"/>
</clipPath>
</defs>
</svg>
