<svg width="70" height="71" viewBox="0 0 70 71" fill="none" xmlns="http://www.w3.org/2000/svg">
<g clip-path="url(#clip0_2050_3891)">
<g clip-path="url(#clip1_2050_3891)">
<path d="M55.7282 15.7777C53.6035 17.4494 45.1376 18.6929 35.0165 18.6929C24.8953 18.6929 16.4294 17.4412 14.3047 15.7777C16.4294 14.1059 24.8953 12.8541 35.0165 12.8541C45.1376 12.8541 53.6035 14.1059 55.7282 15.7777Z" stroke="#3F4E55" stroke-width="0.354118" stroke-linecap="square" stroke-linejoin="bevel"/>
<path d="M58.4543 14.88C58.166 12.5576 47.7813 10.6882 35.0084 10.6882C22.2354 10.6882 12.246 12.4918 11.5954 14.7565C11.5707 14.8306 11.5625 14.9129 11.5625 14.9871C11.5625 15.0529 11.5625 15.1106 11.5872 15.1765C11.7272 15.7694 12.5178 16.3212 13.8272 16.8318C17.5907 18.2812 25.6613 19.2859 35.0166 19.2859C44.3719 19.2859 52.4343 18.2812 56.206 16.8318C57.606 16.2882 58.4131 15.6871 58.4625 15.0529C58.4625 14.9953 58.4625 14.9459 58.4625 14.8882L58.4543 14.88ZM55.7284 15.7776C53.6037 17.4494 45.1378 18.6929 35.0166 18.6929C24.8954 18.6929 16.4296 17.4412 14.3049 15.7776C13.9672 15.5141 13.786 15.2341 13.786 14.9541C13.786 12.8871 23.2896 11.2153 35.0166 11.2153C46.7437 11.2153 56.2472 12.8871 56.2472 14.9541C56.2472 15.2341 56.066 15.5141 55.7366 15.7776H55.7284Z" stroke="#3F4E55" stroke-width="0.354118" stroke-linecap="square" stroke-linejoin="bevel"/>
<path d="M55.7282 15.7777C53.6035 17.4494 45.1376 18.6929 35.0165 18.6929C24.8953 18.6929 16.4294 17.4412 14.3047 15.7777C16.4294 14.1059 24.8953 12.8541 35.0165 12.8541C45.1376 12.8541 53.6035 14.1059 55.7282 15.7777Z" stroke="#3F4E55" stroke-width="0.354118" stroke-linecap="square" stroke-linejoin="bevel"/>
<path d="M58.4629 14.9788C58.4629 14.9788 58.4629 15.02 58.4629 15.0447C58.4629 14.9871 58.4629 14.9377 58.4629 14.88C58.4629 14.9129 58.4629 14.9459 58.4629 14.9788Z" stroke="#3F4E55" stroke-width="0.354118" stroke-linecap="square" stroke-linejoin="bevel"/>
<path d="M56.2391 14.9541C56.2391 15.2341 56.0579 15.5141 55.7285 15.7777C53.6038 14.1059 45.1379 12.8541 35.0167 12.8541C24.8955 12.8541 16.4297 14.1059 14.305 15.7777C13.9673 15.5141 13.7861 15.2341 13.7861 14.9541C13.7861 12.8871 23.2897 11.2153 35.0167 11.2153C46.7438 11.2153 56.2473 12.8871 56.2473 14.9541H56.2391Z" stroke="#3F4E55" stroke-width="0.354118" stroke-linecap="square" stroke-linejoin="bevel"/>
<path d="M55.7282 15.7777C53.6035 17.4494 45.1376 18.6929 35.0165 18.6929C24.8953 18.6929 16.4294 17.4412 14.3047 15.7777C16.4294 14.1059 24.8953 12.8541 35.0165 12.8541C45.1376 12.8541 53.6035 14.1059 55.7282 15.7777Z" stroke="#3F4E55" stroke-width="0.354118" stroke-linecap="square" stroke-linejoin="bevel"/>
<path d="M55.7282 15.7777C53.6035 17.4494 45.1376 18.6929 35.0165 18.6929C24.8953 18.6929 16.4294 17.4412 14.3047 15.7777C16.4294 14.1059 24.8953 12.8541 35.0165 12.8541C45.1376 12.8541 53.6035 14.1059 55.7282 15.7777Z" stroke="#3F4E55" stroke-width="0.354118" stroke-linecap="square" stroke-linejoin="bevel"/>
<path d="M58.4627 15.0447C58.4133 15.6788 57.6063 16.28 56.2063 16.8235C52.4428 18.2729 44.3722 19.2777 35.0169 19.2777C25.6616 19.2777 17.591 18.2729 13.8275 16.8235C12.518 16.3212 11.5545 15.7447 11.5875 15.1682C10.1792 36.6706 8.71334 52.9929 19.5839 62.1341C24.0804 65.4941 35.0086 65.4118 35.0086 65.4118" stroke="#3F4E55" stroke-width="0.354118" stroke-linecap="square" stroke-linejoin="bevel"/>
<path d="M14.2725 15.7777C16.3972 17.4494 24.863 18.6929 34.9842 18.6929C45.1054 18.6929 53.5713 17.4412 55.696 15.7777C53.5713 14.1059 45.1054 12.8541 34.9842 12.8541C24.863 12.8541 16.3972 14.1059 14.2725 15.7777Z" stroke="#3F4E55" stroke-width="0.354118" stroke-linecap="square" stroke-linejoin="bevel"/>
<path d="M11.5381 15.0447C11.5875 15.6788 12.3946 16.28 13.7946 16.8235C17.5581 18.2729 25.6287 19.2776 34.984 19.2776C44.331 19.2776 52.4098 18.2729 56.1734 16.8235C57.4828 16.3212 58.2734 15.7612 58.4134 15.1682C58.4298 15.1023 58.4381 15.0447 58.4381 14.9788C58.4381 14.9129 58.4298 14.8223 58.4051 14.7482C57.7546 12.4835 47.5181 10.68 34.9922 10.68C22.2275 10.68 11.8428 12.5494 11.5463 14.8718C11.5463 14.9294 11.5463 14.9788 11.5463 15.0365L11.5381 15.0447ZM13.7616 14.9541C13.7616 12.8871 23.2651 11.2153 34.9922 11.2153C46.7193 11.2153 56.2228 12.8871 56.2228 14.9541C56.2228 15.2341 56.0416 15.5141 55.704 15.7776C53.5793 17.4494 45.1134 18.6929 34.9922 18.6929C24.871 18.6929 16.4051 17.4412 14.2804 15.7776C13.9428 15.5141 13.7698 15.2341 13.7698 14.9541H13.7616Z" stroke="#3F4E55" stroke-width="0.354118" stroke-linecap="square" stroke-linejoin="bevel"/>
<path d="M14.2725 15.7777C16.3972 17.4494 24.863 18.6929 34.9842 18.6929C45.1054 18.6929 53.5713 17.4412 55.696 15.7777C53.5713 14.1059 45.1054 12.8541 34.9842 12.8541C24.863 12.8541 16.3972 14.1059 14.2725 15.7777Z" stroke="#3F4E55" stroke-width="0.354118" stroke-linecap="square" stroke-linejoin="bevel"/>
<path d="M11.5381 14.9788C11.5381 14.9788 11.5381 15.02 11.5381 15.0447C11.5381 14.9871 11.5381 14.9377 11.5381 14.88C11.5381 14.9129 11.5381 14.9459 11.5381 14.9788Z" stroke="#3F4E55" stroke-width="0.354118" stroke-linecap="square" stroke-linejoin="bevel"/>
<path d="M13.7612 14.9541C13.7612 15.2341 13.9423 15.5141 14.2718 15.7776C16.3965 14.1059 24.8623 12.8541 34.9835 12.8541C45.1047 12.8541 53.5706 14.1059 55.6953 15.7776C56.0329 15.5141 56.2141 15.2341 56.2141 14.9541C56.2141 12.887 46.7106 11.2153 34.9835 11.2153C23.2565 11.2153 13.7529 12.887 13.7529 14.9541H13.7612Z" stroke="#3F4E55" stroke-width="0.354118" stroke-linecap="square" stroke-linejoin="bevel"/>
<path d="M14.2725 15.7777C16.3972 17.4494 24.863 18.6929 34.9842 18.6929C45.1054 18.6929 53.5713 17.4412 55.696 15.7777C53.5713 14.1059 45.1054 12.8541 34.9842 12.8541C24.863 12.8541 16.3972 14.1059 14.2725 15.7777Z" stroke="#3F4E55" stroke-width="0.354118" stroke-linecap="square" stroke-linejoin="bevel"/>
<path d="M14.2725 15.7777C16.3972 17.4494 24.863 18.6929 34.9842 18.6929C45.1054 18.6929 53.5713 17.4412 55.696 15.7777C53.5713 14.1059 45.1054 12.8541 34.9842 12.8541C24.863 12.8541 16.3972 14.1059 14.2725 15.7777Z" stroke="#3F4E55" stroke-width="0.354118" stroke-linecap="square" stroke-linejoin="bevel"/>
<path d="M11.5381 15.0447C11.5875 15.6788 12.3946 16.28 13.7946 16.8235C17.5581 18.2729 25.6287 19.2777 34.984 19.2777C44.331 19.2777 52.4098 18.2729 56.1734 16.8235C57.4828 16.3212 58.4463 15.7447 58.4134 15.1682C59.8216 36.6706 61.2875 52.9929 50.4169 62.1341C45.9204 65.4941 34.9922 65.4118 34.9922 65.4118" stroke="#3F4E55" stroke-width="0.354118" stroke-linecap="square" stroke-linejoin="bevel"/>
</g>
</g>
<defs>
<clipPath id="clip0_2050_3891">
<rect width="70" height="70" fill="white" transform="translate(0 0.179993)"/>
</clipPath>
<clipPath id="clip1_2050_3891">
<rect width="70" height="70" fill="white" transform="translate(0 0.179993)"/>
</clipPath>
</defs>
</svg>
