<svg width="70" height="70" viewBox="0 0 70 70" fill="none" xmlns="http://www.w3.org/2000/svg">
<g clip-path="url(#clip0_2050_3993)">
<g clip-path="url(#clip1_2050_3993)">
<path d="M46.34 7.13176C45.1459 7.65882 40.4106 8.05412 34.7447 8.05412C29.0788 8.05412 24.3435 7.65882 23.1494 7.13176C24.3435 6.60471 29.0788 6.20941 34.7447 6.20941C40.4106 6.20941 45.1459 6.60471 46.34 7.13176Z" stroke="#3F4E55" stroke-width="0.354118" stroke-linecap="square" stroke-linejoin="bevel"/>
<path d="M47.8718 6.85176C47.7071 6.11882 41.893 5.52588 34.7447 5.52588C27.5965 5.52588 22.0047 6.09411 21.6341 6.81059C21.6177 6.83529 21.6177 6.86 21.6177 6.8847C21.6177 6.90117 21.6177 6.92588 21.6341 6.94235C21.7165 7.13176 22.153 7.3047 22.8859 7.46117C24.9941 7.92235 29.5153 8.23529 34.7447 8.23529C39.9741 8.23529 44.4953 7.92235 46.6036 7.46117C47.3859 7.28823 47.8389 7.09882 47.8718 6.90117C47.8718 6.8847 47.8718 6.86823 47.8718 6.85176ZM46.34 7.13176C45.1459 7.65882 40.4106 8.05411 34.7447 8.05411C29.0789 8.05411 24.3436 7.65882 23.1494 7.13176C22.96 7.04941 22.8612 6.95882 22.8612 6.86823C22.8612 6.21764 28.1812 5.69058 34.7447 5.69058C41.3083 5.69058 46.6283 6.21764 46.6283 6.86823C46.6283 6.95882 46.5294 7.04117 46.34 7.13176Z" stroke="#3F4E55" stroke-width="0.354118" stroke-linecap="square" stroke-linejoin="bevel"/>
<path d="M46.34 7.13176C45.1459 7.65882 40.4106 8.05412 34.7447 8.05412C29.0788 8.05412 24.3435 7.65882 23.1494 7.13176C24.3435 6.60471 29.0788 6.20941 34.7447 6.20941C40.4106 6.20941 45.1459 6.60471 46.34 7.13176Z" stroke="#3F4E55" stroke-width="0.354118" stroke-linecap="square" stroke-linejoin="bevel"/>
<path d="M47.8801 6.88472V6.90119C47.8801 6.88472 47.8801 6.86825 47.8801 6.85178C47.8801 6.86001 47.8801 6.87648 47.8801 6.88472Z" stroke="#3F4E55" stroke-width="0.354118" stroke-linecap="square" stroke-linejoin="bevel"/>
<path d="M46.6281 6.87647C46.6281 6.96706 46.5293 7.04941 46.3399 7.14C45.1458 6.61294 40.4105 6.21765 34.7446 6.21765C29.0787 6.21765 24.3434 6.61294 23.1493 7.14C22.9599 7.05765 22.8611 6.96706 22.8611 6.87647C22.8611 6.22588 28.1811 5.69882 34.7446 5.69882C41.3081 5.69882 46.6281 6.22588 46.6281 6.87647Z" stroke="#3F4E55" stroke-width="0.354118" stroke-linecap="square" stroke-linejoin="bevel"/>
<path d="M46.34 7.13176C45.1459 7.65882 40.4106 8.05412 34.7447 8.05412C29.0788 8.05412 24.3435 7.65882 23.1494 7.13176C24.3435 6.60471 29.0788 6.20941 34.7447 6.20941C40.4106 6.20941 45.1459 6.60471 46.34 7.13176Z" stroke="#3F4E55" stroke-width="0.354118" stroke-linecap="square" stroke-linejoin="bevel"/>
<path d="M46.34 7.13176C45.1459 7.65882 40.4106 8.05412 34.7447 8.05412C29.0788 8.05412 24.3435 7.65882 23.1494 7.13176C24.3435 6.60471 29.0788 6.20941 34.7447 6.20941C40.4106 6.20941 45.1459 6.60471 46.34 7.13176Z" stroke="#3F4E55" stroke-width="0.354118" stroke-linecap="square" stroke-linejoin="bevel"/>
<path d="M21.6342 6.94236C21.6177 7.12354 22.153 7.30471 22.8859 7.46118C24.9942 7.92236 29.5153 8.2353 34.7447 8.2353C39.9742 8.2353 44.4953 7.92236 46.6036 7.46118C47.3859 7.28824 47.8389 7.09883 47.8718 6.90118" stroke="#3F4E55" stroke-width="0.354118" stroke-linecap="square" stroke-linejoin="bevel"/>
<path d="M21.6258 6.8847C19.9869 16.5365 19.0316 36.7624 18.5458 45.5906C18.3646 48.9835 18.9081 59.4341 25.5128 63.4365C28.7163 65.0753 31.0469 65.0753 34.7611 65.24" stroke="#3F4E55" stroke-width="0.354118" stroke-linecap="square" stroke-linejoin="bevel"/>
<path d="M47.8882 6.8847C49.527 16.5365 50.4823 36.7624 50.9682 45.5906C51.1494 48.9835 50.6059 59.4341 44.0012 63.4365C40.7976 65.0753 38.467 65.0753 34.7529 65.24" stroke="#3F4E55" stroke-width="0.354118" stroke-linecap="square" stroke-linejoin="bevel"/>
</g>
</g>
<defs>
<clipPath id="clip0_2050_3993">
<rect width="70" height="70" fill="white"/>
</clipPath>
<clipPath id="clip1_2050_3993">
<rect width="70" height="70" fill="white"/>
</clipPath>
</defs>
</svg>
