<svg width="70" height="70" viewBox="0 0 70 70" fill="none" xmlns="http://www.w3.org/2000/svg">
<g clip-path="url(#clip0_2050_3959)">
<g clip-path="url(#clip1_2050_3959)">
<path d="M47.2541 7.36234C45.887 7.96352 40.4682 8.41646 33.987 8.41646C27.5059 8.41646 22.0788 7.96352 20.72 7.36234C22.087 6.76117 27.5059 6.30823 33.987 6.30823C40.4682 6.30823 45.8953 6.76117 47.2541 7.36234Z" stroke="#3F4E55" stroke-width="0.354118" stroke-linecap="square" stroke-linejoin="bevel"/>
<path d="M49 7.04117C48.8106 6.20117 42.1565 5.52588 33.9789 5.52588C25.8012 5.52588 19.3942 6.17647 18.9742 6.99176C18.9577 7.01647 18.9495 7.04941 18.9495 7.07411C18.9495 7.09882 18.9495 7.12353 18.9659 7.14C19.0565 7.35411 19.5589 7.55176 20.3989 7.73294C22.8118 8.26 27.9836 8.62235 33.9706 8.62235C39.9577 8.62235 45.1295 8.26 47.5424 7.73294C48.4401 7.53529 48.9589 7.32117 48.9918 7.09058C48.9918 7.07411 48.9918 7.04941 48.9918 7.03294L49 7.04117ZM47.2542 7.36235C45.8871 7.96353 40.4683 8.41647 33.9871 8.41647C27.5059 8.41647 22.0789 7.96353 20.7201 7.36235C20.5059 7.26353 20.3906 7.1647 20.3906 7.06588C20.3906 6.31647 26.4765 5.71529 33.9871 5.71529C41.4977 5.71529 47.5836 6.31647 47.5836 7.06588C47.5836 7.1647 47.4683 7.26353 47.2542 7.36235Z" stroke="#3F4E55" stroke-width="0.354118" stroke-linecap="square" stroke-linejoin="bevel"/>
<path d="M47.2541 7.36234C45.887 7.96352 40.4682 8.41646 33.987 8.41646C27.5059 8.41646 22.0788 7.96352 20.72 7.36234C22.087 6.76117 27.5059 6.30823 33.987 6.30823C40.4682 6.30823 45.8953 6.76117 47.2541 7.36234Z" stroke="#3F4E55" stroke-width="0.354118" stroke-linecap="square" stroke-linejoin="bevel"/>
<path d="M49.0083 7.08235C49.0083 7.08235 49.0083 7.09882 49.0083 7.10705C49.0083 7.09058 49.0083 7.06588 49.0083 7.04941C49.0083 7.05764 49.0083 7.07411 49.0083 7.08235Z" stroke="#3F4E55" stroke-width="0.354118" stroke-linecap="square" stroke-linejoin="bevel"/>
<path d="M47.5836 7.06589C47.5836 7.16471 47.4683 7.26354 47.2542 7.36236C45.8871 6.76118 40.4683 6.30824 33.9871 6.30824C27.5059 6.30824 22.0789 6.76118 20.72 7.36236C20.5059 7.26354 20.3906 7.16471 20.3906 7.06589C20.3906 6.31648 26.4765 5.7153 33.9871 5.7153C41.4977 5.7153 47.5836 6.31648 47.5836 7.06589Z" stroke="#3F4E55" stroke-width="0.354118" stroke-linecap="square" stroke-linejoin="bevel"/>
<path d="M47.2541 7.36234C45.887 7.96352 40.4682 8.41646 33.987 8.41646C27.5059 8.41646 22.0788 7.96352 20.72 7.36234C22.087 6.76117 27.5059 6.30823 33.987 6.30823C40.4682 6.30823 45.8953 6.76117 47.2541 7.36234Z" stroke="#3F4E55" stroke-width="0.354118" stroke-linecap="square" stroke-linejoin="bevel"/>
<path d="M47.2541 7.36234C45.887 7.96352 40.4682 8.41646 33.987 8.41646C27.5059 8.41646 22.0788 7.96352 20.72 7.36234C22.087 6.76117 27.5059 6.30823 33.987 6.30823C40.4682 6.30823 45.8953 6.76117 47.2541 7.36234Z" stroke="#3F4E55" stroke-width="0.354118" stroke-linecap="square" stroke-linejoin="bevel"/>
<path d="M49.0083 7.09882C48.9753 7.3294 48.4565 7.54352 47.5589 7.74117C45.1459 8.26823 39.9742 8.63058 33.9871 8.63058C28.0001 8.63058 22.8283 8.26823 20.4153 7.74117C19.5753 7.55999 18.9577 7.35411 18.9824 7.14823" stroke="#3F4E55" stroke-width="0.354118" stroke-linecap="square" stroke-linejoin="bevel"/>
<path d="M18.9578 7.08234C19.9789 20.3329 21.6589 39.4388 23.9978 63.0412C25.5213 64.5647 28.9472 65.24 34.1354 65.24" stroke="#3F4E55" stroke-width="0.354118" stroke-linecap="square" stroke-linejoin="bevel"/>
<path d="M18.9578 7.08237C19.9789 20.333 21.6589 39.4388 23.9978 63.0412C25.5213 64.5647 28.9472 65.24 34.1354 65.24" stroke="#3F4E55" stroke-width="0.354118" stroke-linecap="square" stroke-linejoin="bevel"/>
<path d="M48.9999 7.08237C47.9787 20.333 46.2987 39.4388 43.9599 63.0412C42.4364 64.5647 39.0105 65.24 33.8223 65.24" stroke="#3F4E55" stroke-width="0.354118" stroke-linecap="square" stroke-linejoin="bevel"/>
</g>
</g>
<defs>
<clipPath id="clip0_2050_3959">
<rect width="70" height="70" fill="white"/>
</clipPath>
<clipPath id="clip1_2050_3959">
<rect width="70" height="70" fill="white"/>
</clipPath>
</defs>
</svg>
