<svg width="70" height="70" viewBox="0 0 70 70" fill="none" xmlns="http://www.w3.org/2000/svg">
<g clip-path="url(#clip0_2050_3852)">
<g clip-path="url(#clip1_2050_3852)">
<path d="M54.1799 21.4694C52.2117 23.0176 44.3635 24.1706 34.9917 24.1706C25.6199 24.1706 17.7717 23.0176 15.8035 21.4694C17.7717 19.9212 25.6199 18.76 34.9917 18.76C44.3635 18.76 52.2117 19.9129 54.1799 21.4694Z" stroke="#3F4E55" stroke-width="0.354118" stroke-linecap="square" stroke-linejoin="bevel"/>
<path d="M56.7081 20.6459C56.4364 18.4882 46.8175 16.7588 34.9834 16.7588C23.1493 16.7588 13.8928 18.4223 13.2834 20.5223C13.2587 20.5965 13.2505 20.6623 13.2505 20.7365C13.2505 20.7941 13.2505 20.8518 13.2752 20.9094C13.407 21.4529 14.1399 21.9718 15.3505 22.4412C18.8423 23.7835 26.3199 24.7141 34.9834 24.7141C43.647 24.7141 51.1246 23.7835 54.6164 22.4412C55.9175 21.9388 56.667 21.3788 56.7081 20.7941C56.7081 20.7447 56.7081 20.6953 56.7081 20.6459ZM54.1799 21.4694C52.2117 23.0176 44.3634 24.1706 34.9917 24.1706C25.6199 24.1706 17.7717 23.0176 15.8034 21.4694C15.4905 21.2223 15.3258 20.9671 15.3258 20.7035C15.3258 18.7929 24.1293 17.2365 34.9917 17.2365C45.854 17.2365 54.6575 18.7847 54.6575 20.7035C54.6575 20.9671 54.4928 21.2223 54.1799 21.4694Z" stroke="#3F4E55" stroke-width="0.354118" stroke-linecap="square" stroke-linejoin="bevel"/>
<path d="M54.1799 21.4694C52.2117 23.0176 44.3635 24.1706 34.9917 24.1706C25.6199 24.1706 17.7717 23.0176 15.8035 21.4694C17.7717 19.9212 25.6199 18.76 34.9917 18.76C44.3635 18.76 52.2117 19.9129 54.1799 21.4694Z" stroke="#3F4E55" stroke-width="0.354118" stroke-linecap="square" stroke-linejoin="bevel"/>
<path d="M56.7166 20.7365C56.7166 20.7365 56.7166 20.7776 56.7166 20.7941C56.7166 20.7447 56.7166 20.6953 56.7166 20.6459C56.7166 20.6788 56.7166 20.7035 56.7166 20.7365Z" stroke="#3F4E55" stroke-width="0.354118" stroke-linecap="square" stroke-linejoin="bevel"/>
<path d="M54.6577 20.7118C54.6577 20.9753 54.493 21.2306 54.18 21.4776C52.2118 19.9294 44.3636 18.7682 34.9918 18.7682C25.62 18.7682 17.7718 19.9212 15.8036 21.4776C15.4906 21.2306 15.3259 20.9753 15.3259 20.7118C15.3259 18.8012 24.1295 17.2447 34.9918 17.2447C45.8542 17.2447 54.6577 18.7929 54.6577 20.7118Z" stroke="#3F4E55" stroke-width="0.354118" stroke-linecap="square" stroke-linejoin="bevel"/>
<path d="M54.1799 21.4694C52.2117 23.0176 44.3635 24.1706 34.9917 24.1706C25.6199 24.1706 17.7717 23.0176 15.8035 21.4694C17.7717 19.9212 25.6199 18.76 34.9917 18.76C44.3635 18.76 52.2117 19.9129 54.1799 21.4694Z" stroke="#3F4E55" stroke-width="0.354118" stroke-linecap="square" stroke-linejoin="bevel"/>
<path d="M54.1799 21.4694C52.2117 23.0176 44.3635 24.1706 34.9917 24.1706C25.6199 24.1706 17.7717 23.0176 15.8035 21.4694C17.7717 19.9212 25.6199 18.76 34.9917 18.76C44.3635 18.76 52.2117 19.9129 54.1799 21.4694Z" stroke="#3F4E55" stroke-width="0.354118" stroke-linecap="square" stroke-linejoin="bevel"/>
<path d="M56.7494 23.3553C56.7494 33.7812 55.2753 43.4494 52.7635 51.3553C51.4541 55.4977 49.8564 59.1541 48.0364 62.1929C47.6906 62.7694 47.1388 63.1894 46.5047 63.42C43.2682 64.5812 39.2906 65.2647 34.9917 65.2647C30.2482 65.2647 25.9329 64.4741 22.54 63.0906L22.4988 63.0412C20.4564 59.8377 18.6776 55.8765 17.2364 51.3306C14.7329 43.4247 13.2588 33.773 13.2588 23.3471C13.2588 22.5318 13.267 21.7165 13.2835 20.9094C13.2506 21.4447 14.1482 21.9718 15.3588 22.4412C18.8506 23.7835 26.3282 24.7141 34.9917 24.7141C43.6553 24.7141 51.1329 23.7835 54.6247 22.4412C55.9259 21.9388 56.6753 21.3788 56.7164 20.7941C56.7329 21.6424 56.7494 22.4906 56.7494 23.3471V23.3553Z" stroke="#3F4E55" stroke-width="0.354118" stroke-linecap="square" stroke-linejoin="bevel"/>
</g>
</g>
<defs>
<clipPath id="clip0_2050_3852">
<rect width="70" height="70" fill="white"/>
</clipPath>
<clipPath id="clip1_2050_3852">
<rect width="70" height="70" fill="white"/>
</clipPath>
</defs>
</svg>
