<svg width="70" height="70" viewBox="0 0 70 70" fill="none" xmlns="http://www.w3.org/2000/svg">
<g clip-path="url(#clip0_2050_3757)">
<g clip-path="url(#clip1_2050_3757)">
<path d="M3.02246 10.7224L3.57423 62.2835C3.62364 64.9847 12.773 65.5776 19.4025 65.0753C35.8236 63.7906 60.1672 61.7812 60.1672 61.7812C64.6966 61.32 66.2942 60.0847 66.5742 59.2612C66.5742 56.2388 66.986 8.52353 66.986 8.52353C66.986 7.10706 57.9272 6.14353 51.1578 6.4153C44.3883 6.68706 16.5366 8.0953 11.933 8.38353C7.32952 8.67177 3.08834 9.54471 3.0307 10.7141L3.02246 10.7224Z" stroke="#3F4E55" stroke-width="0.354118" stroke-linecap="square" stroke-linejoin="bevel"/>
<path d="M65.5777 8.71293C65.5777 7.38705 57.0953 6.48941 50.7541 6.7447C44.413 6.99999 17.3271 8.31764 13.0118 8.58941C8.69649 8.86117 4.72708 9.67646 4.66943 10.7718C4.66943 11.2576 7.86473 12.9212 22.5977 12.0976C37.3306 11.2741 60.8918 9.98941 60.8918 9.98941C63.3624 9.71764 65.2647 9.35529 65.5694 8.71293H65.5777Z" stroke="#3F4E55" stroke-width="0.354118" stroke-linecap="square" stroke-linejoin="bevel"/>
<path d="M66.8871 8.27647C67.0024 8.71294 66.9777 8.75412 66.6565 9.16589C66.2283 9.73412 64.2189 10.1706 61.7483 10.4424C61.7483 10.4424 36.3506 11.7271 21.6177 12.5506C6.88476 13.3741 3.68947 11.2247 3.68947 11.2247C3.68947 11.2247 3.04712 10.5906 3.78829 9.89883" stroke="#3F4E55" stroke-width="0.354118" stroke-linecap="square" stroke-linejoin="bevel"/>
<path d="M64.7212 9.24823C62.4154 8.32587 55.8848 7.78235 50.7542 7.98823C44.413 8.24352 17.3271 9.56117 13.0118 9.83293C9.71772 10.0388 6.62948 10.5659 5.32007 11.2906" stroke="#3F4E55" stroke-width="0.354118" stroke-linecap="square" stroke-linejoin="bevel"/>
</g>
</g>
<defs>
<clipPath id="clip0_2050_3757">
<rect width="70" height="70" fill="white"/>
</clipPath>
<clipPath id="clip1_2050_3757">
<rect width="70" height="70" fill="white"/>
</clipPath>
</defs>
</svg>
