<svg width="11" height="13" viewBox="0 0 11 13" fill="none" xmlns="http://www.w3.org/2000/svg">
<path d="M6.875 0H1.375C1.01033 0 0.660591 0.136964 0.402728 0.380761C0.144866 0.624558 0 0.955219 0 1.3V11.7C0 12.0448 0.144866 12.3754 0.402728 12.6192C0.660591 12.863 1.01033 13 1.375 13H9.625C9.98967 13 10.3394 12.863 10.5973 12.6192C10.8551 12.3754 11 12.0448 11 11.7V3.9L6.875 0ZM8.1125 11.7H6.875L5.5 9.49L4.125 11.7H2.8875L4.88125 8.775L2.8875 5.85H4.125L5.5 8.06L6.875 5.85H8.1125L6.11875 8.775L8.1125 11.7ZM6.1875 4.55V0.975L9.96875 4.55H6.1875Z" fill="#F87B42"/>
</svg>
