<svg width="20" height="20" viewBox="0 0 20 20" fill="none" xmlns="http://www.w3.org/2000/svg">
<g opacity="0.5">
<path d="M12.5522 5.26942L3.94009 13.8804C3.68402 14.1363 3.5174 14.4681 3.465 14.8264L3 18L6.17427 17.535C6.53262 17.4823 6.86439 17.3154 7.12024 17.059L15.7307 8.44807M12.5522 5.26942L14.4265 3.39418C14.5515 3.26921 14.6998 3.17008 14.863 3.10245C15.0263 3.03481 15.2013 3 15.378 3C15.5547 3 15.7296 3.03481 15.8929 3.10245C16.0561 3.17008 16.2045 3.26921 16.3294 3.39418L17.6058 4.67069C17.7308 4.79563 17.8299 4.94397 17.8976 5.10723C17.9652 5.27049 18 5.44547 18 5.62218C18 5.7989 17.9652 5.97388 17.8976 6.13714C17.8299 6.3004 17.7308 6.44873 17.6058 6.57368L15.7307 8.44807M12.5522 5.26942L15.7307 8.44807" stroke="#2D363B" stroke-width="1.5" stroke-linecap="round" stroke-linejoin="round"/>
</g>
</svg>
