<svg width="16" height="16" viewBox="0 0 16 16" fill="none" xmlns="http://www.w3.org/2000/svg">
<path d="M12 10.1888C11.4933 10.1888 11.04 10.3845 10.6933 10.6913L5.94 7.98293C5.97333 7.83283 6 7.68273 6 7.5261C6 7.36948 5.97333 7.21938 5.94 7.06928L10.64 4.38705C11 4.71335 11.4733 4.91566 12 4.91566C13.1067 4.91566 14 4.04116 14 2.95783C14 1.8745 13.1067 1 12 1C10.8933 1 10 1.8745 10 2.95783C10 3.11446 10.0267 3.26456 10.06 3.41466L5.36 6.09689C5 5.77058 4.52667 5.56827 4 5.56827C2.89333 5.56827 2 6.44277 2 7.5261C2 8.60944 2.89333 9.48394 4 9.48394C4.52667 9.48394 5 9.28163 5.36 8.95532L10.1067 11.6702C10.0733 11.8072 10.0533 11.9508 10.0533 12.0944C10.0533 13.1451 10.9267 14 12 14C13.0733 14 13.9467 13.1451 13.9467 12.0944C13.9467 11.0437 13.0733 10.1888 12 10.1888ZM12 2.30522C12.3667 2.30522 12.6667 2.5989 12.6667 2.95783C12.6667 3.31677 12.3667 3.61044 12 3.61044C11.6333 3.61044 11.3333 3.31677 11.3333 2.95783C11.3333 2.5989 11.6333 2.30522 12 2.30522ZM4 8.17871C3.63333 8.17871 3.33333 7.88504 3.33333 7.5261C3.33333 7.16717 3.63333 6.87349 4 6.87349C4.36667 6.87349 4.66667 7.16717 4.66667 7.5261C4.66667 7.88504 4.36667 8.17871 4 8.17871ZM12 12.76C11.6333 12.76 11.3333 12.4664 11.3333 12.1074C11.3333 11.7485 11.6333 11.4548 12 11.4548C12.3667 11.4548 12.6667 11.7485 12.6667 12.1074C12.6667 12.4664 12.3667 12.76 12 12.76Z" fill="#F87B42"/>
</svg>
