<svg width="139" height="60" viewBox="0 0 139 60" fill="none" xmlns="http://www.w3.org/2000/svg">
<mask id="mask0_6002_111" style="mask-type:alpha" maskUnits="userSpaceOnUse" x="0" y="0" width="139" height="60">
<rect width="139" height="60" fill="#D9D9D9"/>
</mask>
<g mask="url(#mask0_6002_111)">
</g>
<g clip-path="url(#clip0_6002_111)">
<path fill-rule="evenodd" clip-rule="evenodd" d="M67.797 0.802384C57.3972 5.53109 48.7789 11.8141 41.2467 20.159C40.142 21.3828 40.126 21.4095 40.1839 21.9229C40.2162 22.2096 40.3286 23.2107 40.4338 24.1474C41.5864 34.4243 45.1734 45.164 50.6222 54.6527C51.4852 56.1554 51.1911 55.9902 54.0262 56.5648C64.1021 58.6063 75.0043 58.6059 85.0881 56.5636C87.9986 55.974 87.6719 56.1609 88.5909 54.5602C94.3321 44.5616 97.8971 33.3632 98.8246 22.4148L98.9096 21.4123L98.36 20.7726C91.2883 12.5419 81.1463 5.09463 71.0035 0.684532C69.4251 -0.00178587 69.5779 -0.00753841 67.797 0.802384ZM73.0238 4.00181C81.6401 8.28683 88.0297 13.02 94.9638 20.2547L96.7127 22.0794L96.6393 22.9868C95.8925 32.213 92.1941 43.8696 87.2602 52.5477C86.2691 54.2909 86.573 54.08 84.454 54.4962C74.5718 56.4378 64.8707 56.4341 54.7454 54.4852L52.7639 54.1039L52.2213 53.1761C47.4281 44.9826 43.9065 34.3847 42.6652 24.4176C42.3326 21.7472 42.0657 22.2813 45.4134 18.9166C52.0367 12.259 59.0762 7.25271 67.2494 3.38673C69.7323 2.21234 69.3414 2.17059 73.0238 4.00181ZM68.3443 12.834C68.3443 13.2304 68.3707 13.2598 68.7273 13.2598H69.11L69.0438 14.6892C68.9609 16.4765 68.4685 18.1603 68.0098 18.2255C67.7459 18.263 67.7361 18.3099 67.7361 19.5331V20.8021H68.4051H69.0742V20.0076V19.2133L70.6253 19.2474L72.1762 19.2815L72.1367 20.0417L72.0972 20.8021H72.7754H73.4536V19.5936V18.3853L73.1191 18.3468L72.7845 18.3083L72.7474 16.4226C72.6943 13.7249 72.7636 13.2598 73.2191 13.2598C73.545 13.2598 73.5753 13.2237 73.5753 12.834V12.4083H70.9598H68.3443V12.834ZM60.7736 13.6156L60.3762 13.9712L60.4122 15.1861C60.446 16.3294 60.432 16.4125 60.1739 16.5933C59.8354 16.8303 59.7783 16.7722 59.5358 15.9444C59.2861 15.0917 59.2912 15.0046 59.5971 14.9246C59.8302 14.8637 59.8537 14.2405 59.6318 13.9994C59.5238 13.8821 57.1526 14.6357 57.1526 14.7873C57.1526 15.2395 57.3813 15.5401 57.6817 15.4828C58.0412 15.414 58.643 16.9777 58.3345 17.179C57.9794 17.4109 57.6944 17.2026 57.2742 16.4045C56.6122 15.1468 56.0982 14.7792 55.3384 15.0204C54.932 15.1493 54.9685 16.0577 55.38 16.0577C55.7422 16.0577 56.035 16.3366 56.2688 16.9044C56.4958 17.4562 56.8904 17.8824 57.1737 17.8824C57.296 17.8824 57.3959 17.9372 57.3959 18.0041C57.3959 18.0709 57.3478 18.1258 57.2889 18.1258C57.0355 18.1258 56.8767 18.881 56.9544 19.7172C57.0298 20.5283 57.0186 20.5818 56.7123 20.8656L56.3911 21.1634L56.712 21.5842C57.0708 22.0546 57.4941 22.0295 57.962 21.5103C58.1907 21.2564 58.2435 20.0013 58.0667 19.0197C57.9901 18.5952 58.2313 18.2474 58.6023 18.2474C59.1054 18.2474 59.4482 20.3034 58.947 20.3135C58.8197 20.3162 58.8362 20.8261 58.9703 21.0382C59.1955 21.3941 61.5483 20.609 61.453 20.2097C61.3412 19.7409 61.3068 19.7072 60.9419 19.7072C60.636 19.7072 60.5931 19.6451 60.4013 18.9253C60.2867 18.4953 60.1607 18.0596 60.1215 17.9572C60.0234 17.7018 60.6153 17.5553 60.8749 17.7708C60.9803 17.8583 61.2792 18.3528 61.5393 18.8701C62.0762 19.938 62.3629 20.1938 63.0227 20.1938C63.5137 20.1938 63.5417 20.1597 63.6416 19.4405C63.7013 19.0107 63.6878 18.9899 63.3227 18.9539C62.9936 18.9216 62.8802 18.8079 62.4971 18.1258C62.2016 17.5994 61.9088 17.2529 61.6216 17.0895C61.2196 16.8607 61.2024 16.8274 61.3716 16.6029C61.5079 16.4217 61.5396 16.1371 61.4986 15.4584C61.4481 14.6206 61.4658 14.5349 61.7421 14.2789C62.0369 14.0056 62.0377 13.9988 61.8206 13.6312C61.5459 13.1661 61.2798 13.1621 60.7736 13.6156ZM71.3578 15.784L71.3247 18.1866L70.9669 18.2273C70.7701 18.2497 70.3794 18.2336 70.0987 18.1915L69.5884 18.1149L69.8193 17.5068C70.0545 16.888 70.2848 15.1767 70.2887 14.0202L70.2907 13.3815H70.8408H71.3907L71.3578 15.784ZM79.9378 13.7414C79.7719 13.8122 79.6244 14.0311 79.5492 14.318C79.2206 15.571 79.1999 15.4971 79.9175 15.6316C80.3519 15.7132 80.36 15.7073 80.5247 15.1864C80.8783 14.069 82.4055 14.99 82.386 16.3089C82.3737 17.1441 82.3363 17.1528 80.6743 16.7134C80.4588 16.6564 80.3888 16.7197 80.2703 17.0786C80.0828 17.6466 80.1287 17.6984 80.9761 17.8783C82.0238 18.1006 82.0483 18.1267 81.805 18.7636C81.2881 20.1171 79.0732 20.6066 79.3633 19.3033C79.5113 18.6385 79.4893 18.5766 79.0651 18.4636C78.4704 18.3053 78.3748 18.387 78.2016 19.2034C78.0007 20.1497 78.0544 20.2619 78.8959 20.6553C79.8392 21.0962 81.1611 21.1167 81.9449 20.7023C83.6338 19.8098 84.283 15.8627 82.9613 14.5245C82.3331 13.8884 80.628 13.4468 79.9378 13.7414ZM64.9448 18.2407C64.6037 18.5819 64.6119 19.2555 64.9611 19.5808C65.7671 20.3317 67.0835 19.265 66.432 18.3888C66.1079 17.9529 65.3119 17.8737 64.9448 18.2407ZM75.0767 18.4379C74.8249 18.6897 74.779 18.825 74.8394 19.1374C75.0615 20.2877 76.7381 20.2042 76.7381 19.0428C76.7381 18.1771 75.7114 17.8032 75.0767 18.4379ZM46.5691 23.4544C46.6694 23.5166 51.8835 25.7967 58.1559 28.5212L69.5603 33.4747L81.1134 28.4524C87.4676 25.6902 92.6543 23.4178 92.6392 23.4028C92.6242 23.3877 91.8334 23.5071 90.8819 23.6678C86.2603 24.4491 80.3728 25.2055 76.0691 25.5712C74.9941 25.6625 72.3198 25.7262 69.5608 25.7262C64.7067 25.7262 63.3211 25.6492 58.4908 25.1114C55.0512 24.7284 48.4379 23.7729 46.7105 23.4094C46.481 23.3612 46.4397 23.3743 46.5691 23.4544ZM61.3089 43.6235C56.8073 49.1513 53.1411 53.6901 53.1616 53.7096C53.1822 53.7292 56.8393 51.2627 61.2887 48.2286C65.738 45.1944 69.449 42.7089 69.5353 42.7054C69.6636 42.7002 73.4452 45.2456 85.4664 53.4288C85.7508 53.6224 85.9836 53.7541 85.9836 53.7215C85.9836 53.6308 69.6872 33.6405 69.5839 33.6046C69.5342 33.5872 65.8104 38.0958 61.3089 43.6235Z" fill="#E6342A"/>
</g>
<defs>
<clipPath id="clip0_6002_111">
<rect width="59" height="59" fill="white" transform="translate(40)"/>
</clipPath>
</defs>
</svg>
