<svg width="139" height="60" viewBox="0 0 139 60" fill="none" xmlns="http://www.w3.org/2000/svg">
<mask id="mask0_6002_111" style="mask-type:alpha" maskUnits="userSpaceOnUse" x="0" y="0" width="139" height="60">
<rect width="139" height="60" fill="#D9D9D9"/>
</mask>
<g mask="url(#mask0_6002_111)">
</g>
<g clip-path="url(#clip0_6002_111)">
<path d="M137.038 30.0187C136.633 30.7992 135.86 31.2638 135.05 31.2638C133.834 31.2638 132.822 30.2231 132.748 28.9222V28.885C132.748 28.8479 132.748 28.8107 132.748 28.7735C132.748 28.3461 132.84 27.9372 133.043 27.5656C133.448 26.7664 134.221 26.2647 135.068 26.2647C135.896 26.2647 136.67 26.7479 137.093 27.547L137.13 27.6213L138.953 26.8779L138.916 26.8036C138.198 25.2054 136.67 24.1647 134.994 24.1647C133.098 24.1647 131.441 25.447 130.87 27.3425C130.742 27.7886 130.668 28.2532 130.668 28.7364C130.668 28.7921 130.668 28.8479 130.668 28.9036C130.76 31.3753 132.656 33.2895 134.994 33.2895C136.651 33.2895 138.124 32.3231 138.861 30.762L138.897 30.6877L137.112 29.9629L137.038 30.0187Z" fill="#453C36"/>
<path d="M99.333 27.8443H95.2091C95.2459 27.7514 95.2827 27.6771 95.3195 27.5841C95.7246 26.785 96.4978 26.2833 97.3447 26.2833C97.6577 26.2833 97.9522 26.339 98.2284 26.4691C98.7439 26.7664 99.1305 27.2682 99.333 27.8443ZM99.7197 25.001C99.646 24.9452 99.5724 24.8895 99.4803 24.8337C99.4619 24.8151 99.4435 24.8151 99.4251 24.7965C99.3699 24.7594 99.333 24.7408 99.2778 24.7036L99.2042 24.6664C99.1121 24.6107 99.02 24.5735 98.9464 24.5364C98.9096 24.5178 98.8912 24.5178 98.8544 24.4992C98.7991 24.4806 98.7623 24.462 98.7071 24.4434C98.6703 24.4248 98.6518 24.4248 98.615 24.4063H98.5966C98.523 24.3877 98.4493 24.3505 98.3757 24.3319C98.3389 24.3133 98.2836 24.3133 98.2468 24.2948C98.21 24.2762 98.1548 24.2762 98.1179 24.2576C98.0627 24.239 98.0075 24.239 97.9338 24.2204C97.897 24.2204 97.8418 24.2018 97.805 24.2018C97.7313 24.1833 97.6577 24.1833 97.6024 24.1833C97.5656 24.1833 97.5472 24.1833 97.5104 24.1833C97.4183 24.1833 97.3263 24.1647 97.2526 24.1647H97.2342C97.1238 24.1647 97.0133 24.1647 96.8844 24.1833H96.8292C96.7371 24.2018 96.6451 24.2018 96.553 24.2204L96.4794 24.239C96.3873 24.2576 96.2953 24.2762 96.2032 24.2948L96.148 24.3133C96.056 24.3319 95.9639 24.3691 95.8718 24.4063L95.835 24.4249C95.743 24.462 95.6509 24.4992 95.522 24.5549C94.5831 24.9824 93.8099 25.7443 93.3496 26.7107L93.3128 26.785C93.2207 26.9709 93.1655 27.1567 93.0918 27.3611C92.963 27.8072 92.8893 28.2718 92.8893 28.7549C92.8893 28.8107 92.8893 28.8664 92.8893 28.9222C92.9077 29.3125 92.963 29.6841 93.0734 30.0558L93.0918 30.1487C93.1471 30.316 93.2023 30.5018 93.2944 30.6877C93.3128 30.7248 93.3312 30.7434 93.3312 30.7806L93.368 30.8549C93.4601 31.0222 93.5521 31.208 93.6626 31.3753L93.6994 31.4125C93.8099 31.5611 93.9203 31.7284 94.0492 31.8771L94.086 31.9142C94.1228 31.9514 94.1597 32.0071 94.2149 32.0443L94.2333 32.0629C94.3069 32.1372 94.399 32.2302 94.4911 32.3045C94.5095 32.3231 94.5279 32.3417 94.5463 32.3417C94.5831 32.3788 94.6383 32.416 94.6936 32.4532L94.7304 32.4718C94.8224 32.5275 94.8961 32.6018 94.9881 32.6576L95.0434 32.6948C95.0986 32.7319 95.1354 32.7505 95.1907 32.7877L95.2459 32.8248C95.3379 32.862 95.4116 32.9178 95.5036 32.9549C95.5405 32.9735 95.5589 32.9735 95.5957 32.9921C95.6509 33.0107 95.6877 33.0293 95.743 33.0479C95.7798 33.0664 95.8166 33.0664 95.8534 33.085C95.9271 33.1036 96.0007 33.1408 96.0744 33.1594C96.1112 33.1779 96.1664 33.1779 96.2032 33.1965C96.2401 33.2151 96.2953 33.2151 96.3321 33.2337C96.3873 33.2523 96.4426 33.2523 96.5162 33.2709C96.553 33.2709 96.6083 33.2895 96.6451 33.2895C96.7187 33.308 96.7924 33.308 96.8476 33.308C96.8844 33.308 96.9028 33.308 96.9397 33.308C97.0317 33.308 97.1238 33.3266 97.2158 33.3266C97.3263 33.3266 97.4367 33.3266 97.5656 33.308H97.6209C97.7129 33.308 97.805 33.2895 97.897 33.2709L97.9706 33.2523C98.0627 33.2337 98.1548 33.2151 98.2468 33.1965L98.302 33.1779C98.3941 33.1594 98.4861 33.1222 98.5782 33.1036L98.6334 33.085C98.7255 33.0479 98.836 33.0107 98.9096 32.9735H98.928C99.8669 32.5461 100.64 31.7841 101.1 30.8178L101.137 30.7434L99.2042 29.8886L99.1673 29.9629C98.7623 30.7248 97.9891 31.208 97.1606 31.208C96.8476 31.208 96.553 31.1523 96.2769 31.0222C95.5773 30.6319 95.2091 30.1673 95.0802 29.5169H101.303V29.4425C101.377 28.7364 101.469 26.3018 99.7197 25.001Z" fill="#453C36"/>
<path d="M90.1093 28.7735L90.0725 28.8479C89.3729 30.1487 88.1762 30.9293 86.8875 30.9293C84.8071 30.9293 83.1133 28.9222 83.1133 26.4505C83.1133 23.9788 84.8071 21.9717 86.8875 21.9717C88.4156 21.9717 89.7779 23.0496 90.3671 24.7222L90.4039 24.7965L92.5763 23.8673L92.5395 23.793C91.5822 21.2284 89.3545 19.5744 86.8875 19.5744C83.4999 19.5744 80.7567 22.6594 80.7567 26.4319C80.7567 30.2231 83.4999 33.2894 86.8875 33.2894C89.0415 33.2894 91.0667 31.9886 92.1713 29.9071L92.245 29.7771V29.7585L90.1093 28.7735Z" fill="#453C36"/>
<path d="M105.335 26.8965C105.758 26.562 106.255 26.3762 106.789 26.3762C107.655 26.3762 108.465 26.8779 108.888 27.677C109.091 28.0487 109.183 28.4576 109.183 28.885C109.183 28.9222 109.183 28.9408 109.183 28.9779V29.0337C109.146 29.7213 108.851 30.3346 108.354 30.7806C107.931 31.1151 107.434 31.3009 106.9 31.3009C106.034 31.3009 105.224 30.7992 104.801 30C104.783 29.9629 104.764 29.9071 104.746 29.87C104.598 29.5354 104.506 29.1638 104.506 28.7921C104.506 28.7549 104.506 28.7177 104.506 28.6992V28.6434C104.525 28.3275 104.598 28.0301 104.727 27.7328C104.875 27.4169 105.096 27.1381 105.335 26.8965ZM111.134 27.454C110.527 25.5213 108.943 24.2576 107.065 24.2576H107.01C107.01 24.2576 106.973 24.2576 106.937 24.2576H106.918C106.9 24.2576 105.574 24.2762 104.727 25.1496V24.4806H102.334V37.9726H104.746V32.5646C104.856 32.6947 104.948 32.7691 104.948 32.7877H104.967C105.537 33.3266 106.458 33.4195 106.973 33.4195C109.348 33.3823 111.263 31.431 111.355 29.0151C111.355 28.9593 111.355 28.9036 111.355 28.8292C111.355 28.3832 111.282 27.9186 111.134 27.454Z" fill="#453C36"/>
<path d="M117.467 27.5098C117.283 27.5841 117.173 27.6027 117.136 27.6027H116.749C116.657 27.6027 116.584 27.6027 116.584 27.6027H116.4H114.798V26.2089H117.154C117.173 26.2089 117.265 26.2275 117.394 26.2832C117.633 26.4133 117.817 26.6549 117.817 26.8779C117.799 27.1938 117.707 27.3983 117.467 27.5098ZM118.038 30.4832C118.02 30.8549 117.707 31.1337 117.412 31.2266C117.375 31.2452 117.32 31.2452 117.265 31.2637C117.062 31.3009 116.805 31.3195 116.657 31.3195H116.068C115.847 31.3195 115.608 31.3195 115.405 31.3195H114.816V29.3124H115.405C115.608 29.3124 115.829 29.3124 116.068 29.3124H116.602C116.676 29.3124 117.081 29.3124 117.375 29.3868H117.394C117.412 29.3868 117.431 29.3868 117.431 29.4053C117.467 29.4053 117.486 29.4239 117.523 29.4425L117.541 29.4611C117.56 29.4797 117.596 29.4797 117.615 29.4983C117.854 29.6469 118.02 29.8885 118.038 30.1487V30.1673C118.038 30.2045 118.038 30.316 118.038 30.316C118.038 30.316 118.038 30.4646 118.038 30.4832ZM120.376 30.1487V30.1301C120.358 29.5912 120.155 29.1266 119.769 28.7363L119.75 28.7177C119.603 28.5691 119.437 28.439 119.216 28.2903C119.253 28.2345 119.309 28.1602 119.345 28.1045C119.75 27.7328 119.971 27.2496 119.971 26.7478C119.971 25.7629 118.977 24.7407 117.854 24.5735C117.523 24.5549 117.265 24.5363 117.154 24.5363C117.081 24.5363 117.044 24.5363 117.044 24.5363L112.46 24.5549V33.0107H114.706L115.811 32.9921H117.523C118.756 32.8991 119.824 32.1372 120.192 31.0779C120.284 30.7991 120.34 30.5204 120.34 30.2416C120.376 30.2045 120.376 30.1673 120.376 30.1487Z" fill="#453C36"/>
<path d="M129.895 32.9177C129.876 32.8806 129.858 32.8248 129.858 32.7691C129.858 32.7505 129.858 32.7319 129.839 32.7133L129.821 32.6204C129.747 32.1558 129.729 31.2452 129.711 30.5761V24.5549H127.372V28.8107C127.372 28.8107 127.372 28.885 127.372 29.0151V29.0522C127.354 29.3868 127.28 29.9814 127.041 30.3531C126.691 30.8363 126.157 31.1151 125.587 31.1151C125.531 31.1151 125.476 31.1151 125.439 31.1151C125.126 31.0965 124.832 30.985 124.592 30.7991C124.243 30.5576 124.003 30.2045 123.874 29.7956V29.777C123.838 29.6655 123.801 29.4239 123.764 29.108V29.0894C123.764 29.0151 123.745 28.9593 123.745 28.9222V28.885C123.635 27.2496 123.745 24.685 123.745 24.6478V24.5363H121.463V24.6292C121.463 26.0602 121.481 28.5505 121.463 29.0151C121.481 29.554 121.555 30.3345 121.794 31.0407C121.923 31.3567 122.089 31.654 122.254 31.8956C122.291 31.9514 122.346 32.0071 122.383 32.0629C122.438 32.1186 122.494 32.1744 122.53 32.2301C122.807 32.5275 123.156 32.7505 123.543 32.9177H123.561C123.745 33.0107 124.279 33.2151 125.071 33.2151H125.108C125.218 33.2151 125.31 33.2151 125.384 33.1965C125.439 33.1965 126.71 33.1779 127.556 32.193C127.593 32.5832 127.685 32.862 127.796 32.9735L127.814 32.9921H129.968L129.895 32.9177Z" fill="#453C36"/>
<path d="M26.4271 24.3691L26.6848 24.3505H24.5124L24.6044 24.3691H26.4271Z" fill="#00A0DD"/>
<path d="M75.1231 32.9178H77.2956L74.626 24.7965L74.5708 24.6293H72.4904L72.4352 24.7965L69.7656 32.9178H71.9565L73.5398 27.5841L75.1231 32.9178Z" fill="#00A0DD"/>
<path d="M52.3492 32.8992H54.4112V30.2045L54.9635 29.5726L57.6699 32.8992H60.2289L56.3627 27.9744L59.6398 24.5921H57.1912L54.4112 27.3425V24.5921H52.3492V32.8992Z" fill="#00A0DD"/>
<path d="M38.6333 29.7585C38.6149 29.7956 38.5965 29.8514 38.5781 29.8885C38.173 30.6691 37.3814 31.1894 36.4793 31.1894C35.9269 31.1894 35.4299 31.0036 35.0248 30.6691C34.5461 30.2416 34.2332 29.6098 34.1963 28.9222C34.1963 28.8664 34.1963 28.8293 34.1963 28.7735C34.1963 28.3275 34.3068 27.9186 34.4909 27.5655C34.8959 26.785 35.6876 26.2647 36.5897 26.2647C37.142 26.2647 37.6391 26.4505 38.0442 26.785C38.3019 27.008 38.5044 27.3054 38.6517 27.6213C38.7806 27.9001 38.8542 28.1974 38.8726 28.5319C38.8726 28.5877 38.8726 28.6248 38.8726 28.6806C38.8726 29.0708 38.7806 29.4425 38.6333 29.7585ZM36.4424 24.3691C36.424 24.3691 36.424 24.3691 36.4424 24.3691ZM38.6333 24.5921V25.3912C38.6333 25.3726 38.6149 25.3726 38.6149 25.354C37.8232 24.3877 36.424 24.3691 36.4056 24.3877C36.3688 24.3877 36.332 24.3877 36.332 24.3877C34.4173 24.3691 32.9812 25.6514 32.4289 27.4169C32.3001 27.8257 32.2264 28.2903 32.2264 28.7363C32.2264 28.7921 32.2264 28.8478 32.2264 28.9036C32.3185 31.208 34.1411 33.0478 36.3872 33.085C36.9763 33.085 37.7864 32.9549 38.2835 32.4717C38.2835 32.4717 38.486 32.3045 38.6149 32.0815V32.862H40.7873V28.7363V24.5921H38.6333Z" fill="#00A0DD"/>
<path d="M66.2676 29.8142C66.2492 29.8514 66.2308 29.9071 66.2124 29.9443C65.8073 30.7248 65.0157 31.2452 64.132 31.2452C63.5797 31.2452 63.0826 31.0593 62.6775 30.7248C62.1989 30.2974 61.8859 29.6841 61.8491 28.9779C61.8491 28.9222 61.8491 28.885 61.8491 28.8292C61.8491 28.4018 61.9595 27.9744 62.1436 27.6213C62.5487 26.8408 63.3403 26.3204 64.224 26.3204C64.7763 26.3204 65.2734 26.5062 65.6785 26.8408C65.9362 27.0638 66.1387 27.3611 66.286 27.677C66.4149 27.9558 66.4885 28.2531 66.5069 28.5877C66.5069 28.6434 66.5069 28.6806 66.5069 28.7363C66.4885 29.108 66.4149 29.4797 66.2676 29.8142ZM66.2676 24.6478V25.4284C66.2676 25.4098 66.2492 25.4098 66.2492 25.3912C65.4759 24.4248 64.0583 24.4248 64.0583 24.4248C64.0215 24.4248 63.9847 24.4248 63.9847 24.4248C62.0884 24.4062 60.634 25.6885 60.1001 27.454C59.9712 27.8629 59.8975 28.3089 59.8975 28.7735C59.8975 28.8292 59.8975 28.885 59.8975 28.9408C59.9896 31.2452 61.7938 33.0664 64.0399 33.1222C64.6291 33.1222 65.4391 32.9921 65.9178 32.5089C65.9178 32.5089 66.1203 32.3416 66.2492 32.1186V32.8992H68.4032V28.7735V24.6478H66.2676Z" fill="#00A0DD"/>
<path d="M28.3418 29.6655C28.0104 30.223 27.4212 30.6319 26.7216 30.7992H24.3651V26.4133L26.1325 26.3947H26.6848C26.7401 26.4133 26.8137 26.4133 26.8689 26.4319C27.2003 26.5062 27.4949 26.6549 27.771 26.8222C28.2681 27.2124 28.5995 27.7885 28.6363 28.4204C28.6363 28.4576 28.6363 28.5133 28.6363 28.5505C28.6548 28.9593 28.5443 29.331 28.3418 29.6655ZM30.9745 28.439C30.9193 27.1009 30.2197 25.9115 29.1703 25.1682C28.1208 24.2761 26.5375 24.3133 26.5375 24.3133H26.2798H24.4571H24.3651V24.2947V21.693H29.428V19.6301H22.3031V19.7045V21.6744V32.862H22.7081H26.5928C26.6664 32.862 26.7769 32.862 26.8873 32.8434C28.71 32.7133 30.2381 31.5053 30.772 29.8885C30.9008 29.4797 30.9745 29.0523 30.9745 28.5876C30.9745 28.5505 30.9745 28.4947 30.9745 28.439Z" fill="#00A0DD"/>
<path d="M50.637 32.6204C50.637 32.6018 50.637 32.5832 50.6186 32.5647C50.6186 32.5461 50.6186 32.5275 50.6002 32.5089C50.6002 32.4903 50.6002 32.4717 50.6002 32.4717C50.5266 32.0071 50.5081 31.1523 50.4897 30.4089V28.6248V24.4806H48.8144H48.3357V25.447V26.0974V26.5063V27.5284V28.662C48.3357 28.662 48.3357 28.7363 48.3357 28.8664V28.885C48.3173 29.2195 48.2436 29.8514 47.9859 30.2417C47.6361 30.7248 47.0838 31.0408 46.4578 31.0408C46.4026 31.0408 46.3473 31.0408 46.2921 31.0408C45.9607 31.0036 45.6477 30.8921 45.39 30.7248C45.0402 30.4832 44.764 30.1116 44.6352 29.6841C44.6352 29.6841 44.6352 29.6841 44.6352 29.6655C44.5799 29.5169 44.5431 29.1824 44.5247 28.9594C44.5063 28.8478 44.5063 28.7549 44.5063 28.7549C44.3958 27.0824 44.5063 24.5178 44.5063 24.5178L44.4326 24.4992H42.3891C42.3891 25.2983 42.4075 28.3647 42.3891 28.885C42.4075 29.3682 42.4627 30.1673 42.7205 30.8921C42.8309 31.1709 42.9782 31.4682 43.1807 31.7284C43.2175 31.7841 43.2544 31.8399 43.3096 31.8956C43.3648 31.9514 43.4201 32.0071 43.4569 32.0629C43.7146 32.3417 44.0276 32.5647 44.4326 32.7319H44.4511C44.6168 32.8063 45.1507 33.0107 45.9607 33.0107C46.0712 33.0107 46.1632 33.0107 46.2369 32.9921C46.2369 32.9921 47.6545 33.0107 48.4646 31.8399C48.483 32.1558 48.5382 32.6204 48.7039 32.7877H50.7107C50.6738 32.7319 50.6554 32.6762 50.637 32.6204Z" fill="#00A0DD"/>
<path d="M47.7465 22.2319C47.4704 22.6036 47.0101 22.8638 46.4946 22.8823C45.9239 22.9009 45.4084 22.6222 45.1138 22.2133L44.0276 22.808C44.4326 23.7744 45.4084 24.4434 46.5499 24.3877C47.5993 24.3505 48.483 23.7186 48.8512 22.8266L47.7465 22.2319Z" fill="#00A0DD"/>
<path d="M91.8215 38.8089C91.7295 38.8833 91.619 38.939 91.4901 38.939C91.3981 38.939 91.3244 38.9204 91.2692 38.8833C91.214 38.8461 91.1771 38.7904 91.1771 38.716C91.1771 38.5673 91.2692 38.493 91.4717 38.493H91.932V38.5116C91.9504 38.6231 91.9136 38.7346 91.8215 38.8089ZM92.2818 37.3408C92.1161 37.1735 91.8952 37.0992 91.6006 37.0992C91.214 37.0992 90.901 37.2479 90.6616 37.5452L90.9746 37.9169C91.0667 37.8054 91.1587 37.7311 91.2508 37.6939C91.3428 37.6381 91.4349 37.6196 91.5453 37.6196C91.6742 37.6196 91.7847 37.6567 91.8399 37.7125C91.9136 37.7868 91.9504 37.8797 91.9504 37.9912V38.0842H91.4165C91.1587 38.0842 90.9746 38.1399 90.8273 38.2514C90.6801 38.3629 90.6064 38.5116 90.6064 38.716C90.6064 38.9019 90.6801 39.0691 90.8089 39.1806C90.9378 39.2921 91.1219 39.3665 91.3612 39.3665C91.6374 39.3665 91.8583 39.2735 92.024 39.1063V39.3107H92.5579V38.0098C92.5395 37.7311 92.4475 37.4895 92.2818 37.3408ZM87.8632 39.0319C88.1026 39.255 88.3603 39.3665 88.6917 39.3665C88.8942 39.3665 89.0783 39.3107 89.244 39.2178C89.4097 39.1249 89.5386 38.9948 89.6306 38.8089L89.2256 38.493C89.0783 38.6974 88.9126 38.8089 88.7101 38.8089C88.5444 38.8089 88.4155 38.7532 88.3051 38.6417C88.1946 38.5302 88.1394 38.3815 88.1394 38.2142C88.1394 38.047 88.1946 37.8983 88.3051 37.7868C88.4155 37.6753 88.5444 37.6196 88.7101 37.6196C88.9126 37.6196 89.0783 37.7311 89.2256 37.9355L89.6306 37.6196C89.4281 37.2665 89.1152 37.0806 88.6917 37.0806C88.3603 37.0806 88.1026 37.1921 87.8632 37.4151C87.6423 37.6381 87.5318 37.8983 87.5318 38.2328C87.5318 38.5488 87.6423 38.8089 87.8632 39.0319ZM85.433 38.1771C85.341 38.1771 85.2673 38.1585 85.2121 38.1027C85.1569 38.047 85.1201 37.9912 85.1201 37.8983C85.1201 37.824 85.1385 37.7496 85.2121 37.7125C85.2673 37.6567 85.341 37.6381 85.433 37.6381H85.8012V38.1771H85.433ZM84.7703 37.3408C84.6046 37.4709 84.5309 37.6567 84.5309 37.8983C84.5309 38.047 84.5677 38.1957 84.6598 38.3072C84.7334 38.4187 84.8623 38.5116 84.9912 38.5673L84.3836 39.3293H85.0464L85.5803 38.6603H85.8197V39.3293H86.4088V37.1364H85.433C85.1569 37.1364 84.9359 37.2107 84.7703 37.3408ZM82.3585 38.8275C82.1928 38.8275 82.0639 38.7718 81.9534 38.6603C81.843 38.5488 81.7877 38.4001 81.7877 38.2328C81.7877 38.0656 81.843 37.9169 81.9534 37.8054C82.0639 37.6939 82.1928 37.6381 82.3585 37.6381C82.5242 37.6381 82.653 37.6939 82.7635 37.8054C82.874 37.9169 82.9292 38.0656 82.9292 38.2328C82.9292 38.4001 82.874 38.5488 82.7635 38.6603C82.653 38.7718 82.5242 38.8275 82.3585 38.8275ZM81.53 39.0319C81.7509 39.255 82.0271 39.3665 82.3585 39.3665C82.6714 39.3665 82.9476 39.255 83.1869 39.0319C83.4263 38.8089 83.5367 38.5302 83.5367 38.2142C83.5367 37.8983 83.4263 37.6381 83.2054 37.3965C82.966 37.1735 82.6899 37.062 82.3769 37.062C82.0639 37.062 81.7877 37.1735 81.5484 37.3965C81.3091 37.6196 81.1986 37.8983 81.217 38.2142C81.1986 38.5302 81.3091 38.8089 81.53 39.0319ZM78.6948 39.3293V37.6381H79.468V39.3293H80.0571V37.1364H78.1056V39.3293H78.6948ZM73.7423 37.6939C73.8344 37.6196 73.9448 37.5824 74.0737 37.5824C74.2026 37.5824 74.313 37.6196 74.4051 37.7125C74.4971 37.7868 74.534 37.8983 74.534 38.0284H73.5582C73.5766 37.8797 73.6503 37.7682 73.7423 37.6939ZM75.1047 38.1027C75.1047 37.8054 75.0126 37.5638 74.8101 37.378C74.626 37.1921 74.3683 37.0806 74.0737 37.0806C73.7607 37.0806 73.4846 37.1921 73.2636 37.4151C73.0427 37.6381 72.9322 37.9169 72.9322 38.2328C72.9322 38.5488 73.0427 38.8275 73.2636 39.0505C73.503 39.2735 73.7791 39.385 74.1105 39.385C74.4235 39.385 74.7181 39.2735 74.9758 39.0505L74.7365 38.6417C74.5524 38.7904 74.3499 38.8647 74.1289 38.8647C73.9632 38.8647 73.8344 38.8275 73.7239 38.7532C73.6134 38.6789 73.5398 38.5673 73.503 38.4373H75.0126C75.0863 38.3258 75.1047 38.2142 75.1047 38.1027ZM69.692 38.27H70.0602C70.1522 38.27 70.2443 38.2886 70.2995 38.3443C70.3548 38.4001 70.3916 38.4558 70.3916 38.5488C70.3916 38.7346 70.2811 38.8089 70.0786 38.8089H69.7104V38.27H69.692ZM71.8276 37.1364H71.2385V39.3293H71.8276V37.1364ZM70.097 39.3293C70.3548 39.3293 70.5757 39.255 70.7414 39.1249C70.9071 38.9948 70.9991 38.7904 70.9991 38.5488C70.9991 38.3072 70.9071 38.1213 70.7414 37.9912C70.5757 37.8612 70.3548 37.7868 70.097 37.7868H69.7104V37.155H69.1212V39.3479H70.097V39.3293ZM67.1145 38.8833H66.5806V38.4001H67.1145C67.2065 38.4001 67.2802 38.4187 67.3354 38.4558C67.3907 38.493 67.4091 38.5488 67.4091 38.6231C67.4091 38.6974 67.3907 38.7532 67.3354 38.8089C67.2802 38.8647 67.2065 38.8833 67.1145 38.8833ZM67.004 37.5824C67.1697 37.5824 67.2618 37.6567 67.2618 37.7868C67.2618 37.9169 67.1697 37.9912 67.004 37.9912H66.599V37.5824H67.004ZM67.63 38.1585C67.7405 38.047 67.8141 37.9169 67.8141 37.7496C67.8141 37.5638 67.7405 37.4151 67.5932 37.3036C67.4459 37.1921 67.2618 37.1364 67.0408 37.1364H66.0283V39.3293H67.1881C67.4091 39.3293 67.5932 39.2735 67.7405 39.1435C67.8877 39.0134 67.9614 38.8647 67.9614 38.6603C67.9614 38.4187 67.8509 38.2514 67.63 38.1585ZM63.7454 38.8275C63.5797 38.8275 63.4508 38.7718 63.3403 38.6603C63.2299 38.5488 63.1746 38.4001 63.1746 38.2328C63.1746 38.0656 63.2299 37.9169 63.3403 37.8054C63.4508 37.6939 63.5797 37.6381 63.7454 37.6381C63.911 37.6381 64.0399 37.6939 64.1504 37.8054C64.2609 37.9169 64.3161 38.0656 64.3161 38.2328C64.3161 38.4001 64.2609 38.5488 64.1504 38.6603C64.0399 38.7718 63.911 38.8275 63.7454 38.8275ZM62.9169 39.0319C63.1378 39.255 63.414 39.3665 63.7454 39.3665C64.0583 39.3665 64.3345 39.255 64.5738 39.0319C64.8132 38.8089 64.9236 38.5302 64.9236 38.2142C64.9236 37.8983 64.8132 37.6381 64.5922 37.3965C64.3529 37.1735 64.0767 37.062 63.7638 37.062C63.4508 37.062 63.1746 37.1735 62.9353 37.3965C62.6959 37.6196 62.5855 37.8983 62.6039 38.2142C62.5855 38.5302 62.6959 38.8089 62.9169 39.0319ZM59.8975 39.0319C60.1369 39.255 60.3946 39.3665 60.726 39.3665C60.9285 39.3665 61.1126 39.3107 61.2783 39.2178C61.444 39.1249 61.5729 38.9948 61.665 38.8089L61.2599 38.493C61.1126 38.6974 60.9469 38.8089 60.7444 38.8089C60.5787 38.8089 60.4499 38.7532 60.3394 38.6417C60.2289 38.5302 60.1737 38.3815 60.1737 38.2142C60.1737 38.047 60.2289 37.8983 60.3394 37.7868C60.4499 37.6753 60.5787 37.6196 60.7444 37.6196C60.9469 37.6196 61.1126 37.7311 61.2599 37.9355L61.665 37.6196C61.4624 37.2665 61.1495 37.0806 60.726 37.0806C60.3946 37.0806 60.1369 37.1921 59.8975 37.4151C59.6766 37.6381 59.5662 37.8983 59.5662 38.2328C59.5477 38.5488 59.6582 38.8089 59.8975 39.0319ZM57.7251 38.8089C57.633 38.8833 57.5226 38.939 57.3937 38.939C57.3016 38.939 57.228 38.9204 57.1728 38.8833C57.1175 38.8461 57.0807 38.7904 57.0807 38.716C57.0807 38.5673 57.1728 38.493 57.3753 38.493H57.8355V38.5116C57.854 38.6231 57.8171 38.7346 57.7251 38.8089ZM58.2038 37.3408C58.0381 37.1735 57.8171 37.0992 57.5226 37.0992C57.136 37.0992 56.823 37.2479 56.5836 37.5452L56.8966 37.9169C56.9887 37.8054 57.0807 37.7311 57.1728 37.6939C57.2648 37.6381 57.3569 37.6196 57.4673 37.6196C57.5962 37.6196 57.7067 37.6567 57.7619 37.7125C57.8356 37.7868 57.8724 37.8797 57.8724 37.9912V38.0842H57.3385C57.0807 38.0842 56.8966 38.1399 56.7493 38.2514C56.602 38.3629 56.5284 38.5116 56.5284 38.716C56.5284 38.9019 56.602 39.0691 56.7309 39.1806C56.8598 39.2921 57.0439 39.3665 57.2832 39.3665C57.5594 39.3665 57.7803 39.2735 57.946 39.1063V39.3107H58.4799V38.0098C58.4615 37.7311 58.3695 37.4895 58.2038 37.3408ZM54.7978 38.0284C54.7057 38.0656 54.5953 38.0842 54.448 38.0842C54.1718 38.0842 54.0246 37.9355 54.0246 37.6196V37.1178H53.4354V37.6567C53.4354 37.9541 53.5091 38.1957 53.6748 38.3629C53.822 38.5302 54.043 38.6045 54.3375 38.6045C54.5401 38.6045 54.6873 38.5859 54.7978 38.5302V39.2921H55.3869V37.0992H54.7978V38.0284ZM49.4587 38.1771C49.3667 38.1771 49.293 38.1585 49.2378 38.1027C49.1826 38.047 49.1458 37.9912 49.1458 37.8983C49.1458 37.824 49.1642 37.7496 49.2378 37.7125C49.293 37.6567 49.3667 37.6381 49.4587 37.6381H49.8269V38.1771H49.4587ZM48.796 37.3408C48.6303 37.4709 48.5566 37.6567 48.5566 37.8983C48.5566 38.047 48.5934 38.1957 48.6855 38.3072C48.7591 38.4187 48.888 38.5116 49.0169 38.5673L48.4093 39.3293H49.0721L49.606 38.6603H49.8454V39.3293H50.4345V37.1364H49.4587C49.1642 37.1364 48.9616 37.2107 48.796 37.3408ZM46.3842 38.1771C46.2921 38.1771 46.2185 38.1585 46.1632 38.1027C46.108 38.047 46.0712 37.9912 46.0712 37.8983C46.0712 37.824 46.108 37.7496 46.1632 37.7125C46.2185 37.6567 46.2921 37.6381 46.3842 37.6381H46.7524V38.1771H46.3842ZM45.7214 37.3408C45.5557 37.4709 45.482 37.6567 45.482 37.8983C45.482 38.047 45.5189 38.1957 45.6109 38.3072C45.6846 38.4187 45.8134 38.5116 45.9423 38.5673L45.3348 39.3293H45.9975L46.5314 38.6603H46.7708V39.3293H47.3599V37.1364H46.3658C46.0896 37.1364 45.8687 37.2107 45.7214 37.3408ZM42.8677 39.3293V38.4558H43.6594V39.3293H44.2485V37.1364H43.6594V37.9355H42.8677V37.1364H42.2786V39.3293H42.8677ZM39.6091 38.3258V37.1364H39.0199V39.3665H39.204L40.4191 38.1213V39.3107H41.0083V37.0806H40.8242L39.6091 38.3258ZM36.3504 37.7682V37.6381H36.9763V38.8089H36.1479C36.2583 38.5859 36.332 38.2328 36.3504 37.7682ZM37.5655 37.1364H35.8349L35.8165 37.6753C35.7981 37.9912 35.7797 38.2514 35.7428 38.4187C35.706 38.6045 35.6324 38.7346 35.5587 38.8089H35.3194V39.9426H35.8901V39.3293H37.363V39.9426H37.9337V38.8089H37.5839V37.1364H37.5655ZM33.1469 37.6939C33.239 37.6196 33.3495 37.5824 33.4783 37.5824C33.6072 37.5824 33.7177 37.6196 33.8097 37.7125C33.9018 37.7868 33.9386 37.8983 33.9386 38.0284H32.9628C32.9997 37.8797 33.0549 37.7682 33.1469 37.6939ZM34.5277 38.1027C34.5277 37.8054 34.4357 37.5638 34.2332 37.378C34.0491 37.1921 33.7913 37.0806 33.4967 37.0806C33.1838 37.0806 32.9076 37.1921 32.6867 37.4151C32.4657 37.6381 32.3553 37.9169 32.3553 38.2328C32.3553 38.5488 32.4657 38.8275 32.6867 39.0505C32.926 39.2735 33.2022 39.385 33.5336 39.385C33.8465 39.385 34.1411 39.2735 34.3989 39.0505L34.1595 38.6417C33.9754 38.7904 33.7729 38.8647 33.552 38.8647C33.3863 38.8647 33.2574 38.8275 33.1469 38.7532C33.0365 38.6789 32.9628 38.5673 32.926 38.4373H34.4357C34.5093 38.3258 34.5277 38.2142 34.5277 38.1027ZM30.0724 38.27H30.4406C30.5326 38.27 30.6063 38.2886 30.6799 38.3443C30.7352 38.4001 30.772 38.4558 30.772 38.5488C30.772 38.6417 30.7352 38.6974 30.6799 38.7532C30.6247 38.7904 30.551 38.8275 30.4406 38.8275H30.0724V38.27ZM30.4774 39.3293C30.7352 39.3293 30.9561 39.255 31.1218 39.1249C31.2875 38.9762 31.3795 38.7904 31.3795 38.5488C31.3795 38.3072 31.2875 38.1213 31.1218 37.9912C30.9561 37.8612 30.7352 37.7868 30.4774 37.7868H30.0908V37.155H28.9861V37.6567H29.5201V39.3479H30.4774V39.3293ZM27.3292 38.6603C27.2187 38.7718 27.0899 38.8275 26.9426 38.8275C26.7953 38.8275 26.648 38.7718 26.5559 38.6603C26.4455 38.5488 26.3903 38.4187 26.3903 38.27C26.3903 38.1213 26.4455 37.9912 26.5559 37.8797C26.6664 37.7682 26.7953 37.7125 26.9426 37.7125C27.1083 37.7125 27.2371 37.7682 27.3292 37.8797C27.4397 37.9912 27.4949 38.1213 27.4949 38.27C27.4765 38.4187 27.4212 38.5488 27.3292 38.6603ZM27.7895 37.4895C27.5869 37.285 27.3476 37.1735 27.0714 37.1735C26.7401 37.1735 26.4823 37.3036 26.3166 37.5452C26.3166 37.378 26.335 37.2479 26.3718 37.155C26.3903 37.062 26.4455 36.9691 26.5191 36.8948C26.5928 36.8204 26.6848 36.7647 26.7953 36.7089C26.9057 36.6718 27.0714 36.6346 27.2555 36.616C27.5869 36.5789 27.7895 36.5417 27.8999 36.5045V35.9656C27.771 36.0027 27.5685 36.0399 27.2555 36.0957C26.961 36.1328 26.7216 36.1886 26.5191 36.2815C26.335 36.3558 26.1877 36.4673 26.0773 36.616C25.9668 36.7647 25.8932 36.9134 25.8563 37.0992C25.8195 37.2665 25.8011 37.4895 25.7827 37.7496V38.0842C25.7827 38.4744 25.8932 38.7904 26.0957 39.0319C26.3166 39.2735 26.5928 39.385 26.9426 39.385C27.274 39.385 27.5501 39.2735 27.771 39.0691C27.992 38.8647 28.1024 38.6045 28.1024 38.27C28.084 37.9541 27.992 37.6939 27.7895 37.4895ZM23.5734 38.8275C23.4077 38.8275 23.2789 38.7718 23.1684 38.6603C23.0579 38.5488 23.0027 38.4001 23.0027 38.2328C23.0027 38.0656 23.0579 37.9169 23.1684 37.8054C23.2789 37.6939 23.4077 37.6381 23.5734 37.6381C23.7391 37.6381 23.868 37.6939 23.9785 37.8054C24.0889 37.9169 24.1442 38.0656 24.1442 38.2328C24.1442 38.4001 24.0889 38.5488 23.9785 38.6603C23.868 38.7718 23.7207 38.8275 23.5734 38.8275ZM22.745 39.0319C22.9659 39.255 23.242 39.3665 23.5734 39.3665C23.8864 39.3665 24.1626 39.255 24.4019 39.0319C24.6412 38.8089 24.7517 38.5302 24.7517 38.2142C24.7517 37.8983 24.6412 37.6381 24.4203 37.3965C24.181 37.1735 23.9048 37.062 23.5918 37.062C23.2789 37.062 23.0027 37.1735 22.7634 37.3965C22.524 37.6196 22.4136 37.8983 22.432 38.2142C22.3952 38.5302 22.5056 38.8089 22.745 39.0319Z" fill="#00A0DD"/>
<path d="M13.7422 39.7753H0.854758C0.431314 39.7753 0.0815125 39.4222 0.0815125 38.9948C0.0815125 38.5673 0.431314 38.2142 0.854758 38.2142H13.7422C14.1656 38.2142 14.5154 38.5673 14.5154 38.9948C14.5154 39.4408 14.1656 39.7753 13.7422 39.7753Z" fill="#00A0DD"/>
<path d="M14.5154 20.2248C14.5154 20.4293 14.3497 20.6151 14.1288 20.6151H13.3556C13.153 20.6151 12.9689 20.4479 12.9689 20.2248V19.4257C12.9689 19.2213 13.1346 19.0355 13.3556 19.0355H14.1472C14.3497 19.0355 14.5338 19.2027 14.5338 19.4257V20.2248H14.5154Z" fill="#00A0DD"/>
<path d="M1.60969 20.2248C1.60969 20.4292 1.44399 20.5965 1.24148 20.5965H0.468233C0.265717 20.5965 0.100021 20.4292 0.100021 20.2248V19.4257C0.100021 19.2213 0.265717 19.054 0.468233 19.054H1.24148C1.44399 19.054 1.60969 19.2213 1.60969 19.4257V20.2248Z" fill="#00A0DD"/>
<path d="M0.854758 31.4496C0.431314 31.4496 0.0815125 31.0965 0.0815125 30.6691V21.9531C0.0815125 21.5257 0.431314 21.1726 0.854758 21.1726C1.2782 21.1726 1.628 21.5257 1.628 21.9531V30.6691C1.60959 31.0965 1.2782 31.4496 0.854758 31.4496Z" fill="#00A0DD"/>
<path d="M13.7606 31.4496C13.3371 31.4496 12.9873 31.0965 12.9873 30.6691V21.9531C12.9873 21.5257 13.3371 21.1726 13.7606 21.1726C14.184 21.1726 14.5338 21.5257 14.5338 21.9531V30.6691C14.5154 31.0965 14.184 31.4496 13.7606 31.4496Z" fill="#00A0DD"/>
<path d="M11.6065 20.5965H2.97198C2.54853 20.5965 2.19873 20.2434 2.19873 19.816C2.19873 19.3886 2.54853 19.0355 2.97198 19.0355H11.6065C12.03 19.0355 12.3798 19.3886 12.3798 19.816C12.3798 20.2434 12.03 20.5965 11.6065 20.5965Z" fill="#00A0DD"/>
<path d="M14.5154 32.416C14.5154 32.2116 14.3497 32.0443 14.1472 32.0443H13.374C13.1714 32.0443 13.0058 32.2116 13.0058 32.416V33.1965C13.0058 33.4009 13.1714 33.5682 13.374 33.5682H14.1472C14.3497 33.5682 14.5154 33.4009 14.5154 33.1965V32.416Z" fill="#00A0DD"/>
<path d="M1.628 32.416C1.628 32.2116 1.46231 32.0258 1.24138 32.0258H0.468135C0.265618 32.0258 0.0815125 32.193 0.0815125 32.416V33.1966C0.0815125 33.401 0.247208 33.5868 0.468135 33.5868H1.24138C1.4439 33.5868 1.628 33.4196 1.628 33.1966V32.416Z" fill="#00A0DD"/>
<path d="M11.6065 32.0443H2.97198C2.54853 32.0443 2.19873 32.3974 2.19873 32.8248C2.19873 33.2523 2.54853 33.6054 2.97198 33.6054H11.6065C12.03 33.6054 12.3798 33.2523 12.3798 32.8248C12.3798 32.3788 12.03 32.0443 11.6065 32.0443Z" fill="#00A0DD"/>
<path d="M11.6618 31.4125C11.4777 31.4125 11.2936 31.3381 11.1647 31.208L2.43807 22.4178C2.16191 22.139 2.1435 21.6744 2.41966 21.3771C2.69581 21.0797 3.15608 21.0797 3.43224 21.3585L12.1589 30.1487C12.435 30.4275 12.4534 30.8921 12.1773 31.1894C12.03 31.3381 11.8459 31.4125 11.6618 31.4125Z" fill="#00A0DD"/>
<path d="M2.93515 31.4125C2.75105 31.4125 2.56694 31.3381 2.41966 31.1894C2.1435 30.8921 2.1435 30.4275 2.43807 30.1487L11.1647 21.3585C11.4408 21.0797 11.9011 21.0797 12.1773 21.3771C12.4534 21.6744 12.4534 22.139 12.1589 22.4178L3.43224 31.1894C3.30336 31.3381 3.11926 31.4125 2.93515 31.4125Z" fill="#00A0DD"/>
</g>
<defs>
<clipPath id="clip0_6002_111">
<rect width="139" height="21" fill="white" transform="translate(0 19)"/>
</clipPath>
</defs>
</svg>
