<svg width="40" height="40" viewBox="0 0 40 40" fill="none" xmlns="http://www.w3.org/2000/svg">
<path d="M37.6562 24.6875H36.2297L37.4651 23.9742C38.0072 23.6612 38.395 23.1558 38.5571 22.5511C38.7192 21.9464 38.636 21.3148 38.323 20.7726L33.0105 11.5711C32.6975 11.0289 32.192 10.6411 31.5873 10.479C30.9824 10.317 30.3509 10.4001 29.8088 10.7131L28.5734 11.4264L29.2866 10.1911C29.5997 9.64891 29.6828 9.01727 29.5209 8.41258C29.3588 7.80789 28.9709 7.30242 28.4287 6.98945L19.2273 1.67695C18.6851 1.36391 18.0535 1.2807 17.4487 1.44281C16.8441 1.60484 16.3386 1.99266 16.0256 2.53484L15.3125 3.77031V2.34375C15.3125 1.05141 14.2611 0 12.9688 0H2.34375C1.05141 0 0 1.05141 0 2.34375V37.6562C0 38.9486 1.05141 40 2.34375 40H37.6562C38.9486 40 40 38.9486 40 37.6562V27.0312C40 25.7389 38.9486 24.6875 37.6562 24.6875ZM13.75 37.6562C13.75 38.087 13.3995 38.4375 12.9688 38.4375H2.34375C1.91297 38.4375 1.5625 38.087 1.5625 37.6562V2.34375C1.5625 1.91297 1.91297 1.5625 2.34375 1.5625H12.9688C13.3995 1.5625 13.75 1.91297 13.75 2.34375V37.6562ZM30.5902 12.0664C30.6789 12.0148 30.777 11.9814 30.8787 11.968C30.9805 11.9546 31.0839 11.9615 31.183 11.9884C31.2822 12.0147 31.3752 12.0604 31.4566 12.1228C31.538 12.1853 31.6063 12.2633 31.6573 12.3523L36.9698 21.5538C37.0214 21.6426 37.0549 21.7407 37.0683 21.8424C37.0817 21.9442 37.0747 22.0476 37.0479 22.1466C37.0216 22.2458 36.9759 22.3389 36.9134 22.4203C36.8509 22.5017 36.7729 22.5699 36.6839 22.621L30.2337 26.345L25.097 17.4479L27.011 14.1328L30.5902 12.0664ZM28.8805 27.1263L21.754 31.2409L19.4438 27.2395L24.1948 19.0104L28.8805 27.1263ZM15.3125 6.89523L17.3789 3.31609C17.43 3.22709 17.4982 3.1491 17.5796 3.08663C17.661 3.02415 17.754 2.97843 17.8532 2.95211C17.9523 2.92526 18.0557 2.91834 18.1575 2.93174C18.2592 2.94513 18.3573 2.97858 18.4461 3.03016L27.6476 8.34266C27.7366 8.39371 27.8146 8.46192 27.8771 8.54333C27.9396 8.62475 27.9853 8.71775 28.0116 8.81695C28.0384 8.91602 28.0453 9.01942 28.0319 9.12118C28.0185 9.22294 27.9851 9.32102 27.9335 9.40977L24.2095 15.8598L15.3125 10.7232V6.89523ZM15.3125 12.5274L23.4284 17.2131L19.3138 24.3398L15.3125 22.0296V12.5274ZM15.3125 23.8338L18.5326 25.6929L15.3125 31.2702V23.8338ZM18.8541 38.4375H15.1781C15.2672 38.1867 15.3126 37.9224 15.3125 37.6562V36.7641L18.8541 34.7193V38.4375ZM15.3125 34.9598V34.3905C15.3187 34.3809 15.3257 34.3723 15.3315 34.3623L18.5417 28.802L20.4009 32.0221L15.3125 34.9598ZM38.4375 37.6562C38.4375 38.087 38.087 38.4375 37.6562 38.4375H20.4166V33.9716C20.4166 33.9216 20.4115 33.8728 20.4025 33.8254L28.6458 29.0661V32.5961C28.6458 33.0275 28.9956 33.3773 29.427 33.3773C29.8584 33.3773 30.2083 33.0275 30.2083 32.5961V28.164L33.5234 26.25H37.6562C38.087 26.25 38.4375 26.6005 38.4375 27.0312V37.6562Z" fill="white"/>
<path d="M7.65636 29.375C6.0194 29.375 4.68761 30.7068 4.68761 32.3437C4.68761 33.9807 6.0194 35.3125 7.65636 35.3125C9.29331 35.3125 10.6251 33.9807 10.6251 32.3437C10.6251 30.7068 9.29331 29.375 7.65636 29.375ZM7.65636 33.75C6.88097 33.75 6.25011 33.1191 6.25011 32.3437C6.25011 31.5683 6.88097 30.9375 7.65636 30.9375C8.43175 30.9375 9.06261 31.5683 9.06261 32.3437C9.06261 33.1191 8.43175 33.75 7.65636 33.75ZM29.9789 35.1117C29.8322 34.9656 29.6337 34.8833 29.4267 34.8828C29.2212 34.8828 29.0204 34.9663 28.875 35.1117C28.7289 35.257 28.6461 35.4586 28.6461 35.664C28.6461 35.8695 28.7289 36.0711 28.875 36.2163C29.0216 36.3623 29.2198 36.4446 29.4267 36.4453C29.6329 36.4453 29.8337 36.3617 29.9789 36.2163C30.125 36.0711 30.2086 35.8695 30.2086 35.664C30.2086 35.4586 30.125 35.257 29.9789 35.1117ZM4.24487 7.8385C3.81347 7.8385 3.46362 8.18827 3.46362 8.61975V17.1004C3.46362 17.5319 3.81347 17.8817 4.24487 17.8817C4.67628 17.8817 5.02612 17.5319 5.02612 17.1005V8.61975C5.02612 8.18827 4.67628 7.8385 4.24487 7.8385ZM4.24487 19.4422C3.81347 19.4422 3.46362 19.7919 3.46362 20.2234V20.2383C3.46362 20.6698 3.81347 21.0196 4.24487 21.0196C4.67628 21.0196 5.02612 20.6698 5.02612 20.2383V20.2234C5.02612 19.7919 4.67628 19.4422 4.24487 19.4422Z" fill="white"/>
</svg>
