<svg width="38" height="42" viewBox="0 0 38 42" fill="none" xmlns="http://www.w3.org/2000/svg">
<path d="M31.9406 35.5137H35.2405C35.9326 35.5137 36.5 36.0899 36.5 36.793V39.7227C36.5 40.4258 35.9326 40.9998 35.2405 40.9998H2.75948C2.06738 40.9998 1.5 40.4258 1.5 39.7227V36.793C1.5 36.0899 2.06738 35.5137 2.75948 35.5137H6.23182" stroke="white" stroke-width="2" stroke-miterlimit="10" stroke-linecap="round" stroke-linejoin="round"/>
<path d="M6.23145 31.8649V27.075C6.32454 21.3308 11.828 21.0288 15.8155 19.6896V17.0365M31.9402 28.889V31.8649M22.3561 17.0365V19.6896C24.7346 20.4871 27.6555 20.9182 29.6412 22.3543" stroke="white" stroke-width="2" stroke-miterlimit="10" stroke-linecap="round" stroke-linejoin="round"/>
<path d="M31.9404 31.8647V35.5135C31.9404 36.235 31.3595 36.8274 30.6469 36.8274H25.2001C23.8565 36.8274 22.7559 35.7118 22.7559 34.3449C22.7559 32.9803 23.8565 31.8647 25.2001 31.8647H31.9404Z" stroke="white" stroke-width="2" stroke-miterlimit="10" stroke-linecap="round" stroke-linejoin="round"/>
<path d="M15.8159 19.6888C15.8159 21.5172 17.2888 23.0112 19.0862 23.0112C20.886 23.0112 22.3566 21.5172 22.3566 19.6888" stroke="white" stroke-width="2" stroke-miterlimit="10" stroke-linecap="round" stroke-linejoin="round"/>
<path d="M27.8872 21.3953V31.8649" stroke="white" stroke-width="2" stroke-miterlimit="10" stroke-linecap="round" stroke-linejoin="round"/>
<path d="M6.23145 31.8647V35.5135C6.23145 36.235 6.81244 36.8274 7.52511 36.8274H12.9718C14.3154 36.8274 15.4161 35.7118 15.4161 34.3449C15.4161 32.9803 14.3154 31.8647 12.9718 31.8647H6.23145Z" stroke="white" stroke-width="2" stroke-miterlimit="10" stroke-linecap="round" stroke-linejoin="round"/>
<path d="M24.2016 32.0815C23.7727 30.1753 23.6888 27.8494 24.3015 26.5217H13.8709C14.4859 27.8494 14.3997 30.1753 13.9707 32.0815M12.9404 36.8276C12.945 38.3144 13.5214 39.7873 14.6856 40.9998H23.4867C24.6533 39.7873 25.2274 38.3144 25.232 36.8276" stroke="white" stroke-width="2" stroke-miterlimit="10" stroke-linecap="round" stroke-linejoin="round"/>
<path d="M14.2729 30.0668H23.9002" stroke="white" stroke-width="2" stroke-miterlimit="10" stroke-linecap="round" stroke-linejoin="round"/>
<path d="M26.2009 8.91791V10.6236C26.2009 14.5976 22.9987 17.85 19.0861 17.85C15.1735 17.85 11.9599 14.5998 11.9712 10.6236L11.978 8.89027" stroke="white" stroke-width="2" stroke-miterlimit="10" stroke-linecap="round" stroke-linejoin="round"/>
<path d="M26.201 8.91799C23.0306 10.1927 18.217 9.26149 15.7636 7.62027C15.1009 7.1754 15.3552 8.9249 11.9781 8.89035C11.9691 7.73548 11.7625 3.37208 15.0488 2.99168C18.6936 -1.09049 26.201 1.20762 26.201 8.91799Z" stroke="white" stroke-width="2" stroke-miterlimit="10" stroke-linecap="round" stroke-linejoin="round"/>
<path d="M10.2852 21.3953V31.8649" stroke="white" stroke-width="2" stroke-miterlimit="10" stroke-linecap="round" stroke-linejoin="round"/>
<path d="M10.2852 27.4484H14.1637" stroke="white" stroke-width="2" stroke-miterlimit="10" stroke-linecap="round" stroke-linejoin="round"/>
<path d="M24.0088 27.4484H27.8874" stroke="white" stroke-width="2" stroke-miterlimit="10" stroke-linecap="round" stroke-linejoin="round"/>
<path d="M31.7044 25.291L31.7021 25.2887" stroke="white" stroke-width="2" stroke-miterlimit="10" stroke-linecap="round" stroke-linejoin="round"/>
</svg>
