<svg width="42" height="42" viewBox="0 0 42 42" fill="none" xmlns="http://www.w3.org/2000/svg">
<path d="M39.3741 22.9512H26.366L28.805 19.6992V7.50407C28.805 6.60602 29.533 5.87805 30.431 5.87805H39.3741C40.2721 5.87805 41.0001 6.60602 41.0001 7.50407V21.3252C41.0001 22.2233 40.2721 22.9512 39.3741 22.9512Z" stroke="white" stroke-width="2" stroke-miterlimit="10" stroke-linecap="round" stroke-linejoin="round"/>
<path d="M34.9023 16.4471V14.0081C36.2494 14.0081 37.3413 12.9161 37.3413 11.569C37.3413 10.222 36.2494 9.13001 34.9023 9.13001C33.5552 9.13001 32.4633 10.222 32.4633 11.569M11.5689 40.9999L13.195 33.5203M16.447 33.5203L18.073 40.9999M5.47138 36.7723V40.9999M24.1706 36.7723V40.9999M8.31691 11.9755C10.273 11.9755 12.024 10.7621 12.7108 8.93058L12.7885 8.72351C13.8195 9.75453 15.0435 10.5724 16.3905 11.1304C17.7376 11.6884 19.1814 11.9755 20.6395 11.9755H21.325M8.31691 11.9755V16.8536C8.31691 20.4457 11.2289 23.3577 14.821 23.3577C18.4131 23.3577 21.325 20.4457 21.325 16.8536V11.9755M8.31691 11.9755H7.0974C5.97488 11.9755 5.06488 12.8855 5.06488 14.0081C5.06488 15.1306 5.97488 16.0406 7.0974 16.0406H8.31691M21.325 11.9755H22.5446C23.6671 11.9755 24.5771 12.8855 24.5771 14.0081C24.5771 15.1306 23.6671 16.0406 22.5446 16.0406H21.325" stroke="white" stroke-width="2" stroke-miterlimit="10" stroke-linecap="round" stroke-linejoin="round"/>
<path d="M5.87793 12.3821V6.23089C5.87793 2.89195 9.55061 0.856423 12.382 2.62602C13.6977 1.57342 15.3325 0.999977 17.0174 1C20.7435 1 23.7641 4.02057 23.7641 7.74667V12.3821M14.821 29.4553L10.3495 31.8943L8.35126 26.2855L11.1625 25.3902L14.821 29.4553ZM14.821 29.4553L19.2926 31.8943L21.2908 26.2855L18.4796 25.3902L14.821 29.4553ZM17.0201 30.6548L16.447 33.5203H13.195L12.6219 30.6548" stroke="white" stroke-width="2" stroke-miterlimit="10" stroke-linecap="round" stroke-linejoin="round"/>
<path d="M21.2907 26.2859C24.215 26.6922 26.6657 28.5788 27.86 31.1653M8.35138 26.2855C4.1978 26.8626 1 30.4275 1 34.7398V41H28.6423V38.3984M11.1626 22.2312V25.3902M18.4797 22.2313V25.3902" stroke="white" stroke-width="2" stroke-miterlimit="10" stroke-linecap="round" stroke-linejoin="round"/>
</svg>
