<svg width="25" height="24" viewBox="0 0 25 24" fill="none" xmlns="http://www.w3.org/2000/svg">
<path d="M17.8144 10.0112H19.8032C21.792 10.0112 22.7864 9.01683 22.7864 7.02806V5.0393C22.7864 3.05053 21.792 2.05615 19.8032 2.05615H17.8144C15.8257 2.05615 14.8313 3.05053 14.8313 5.0393V7.02806C14.8313 9.01683 15.8257 10.0112 17.8144 10.0112Z" stroke="#FCFCFD" stroke-width="1.49157" stroke-miterlimit="10" stroke-linecap="round" stroke-linejoin="round"/>
<path d="M5.88189 10.0112H7.87065C9.85942 10.0112 10.8538 9.01683 10.8538 7.02806V5.0393C10.8538 3.05053 9.85942 2.05615 7.87065 2.05615H5.88189C3.89312 2.05615 2.89874 3.05053 2.89874 5.0393V7.02806C2.89874 9.01683 3.89312 10.0112 5.88189 10.0112Z" stroke="#FCFCFD" stroke-width="1.49157" stroke-miterlimit="10" stroke-linecap="round" stroke-linejoin="round"/>
<path d="M5.88189 21.9438H7.87065C9.85942 21.9438 10.8538 20.9494 10.8538 18.9606V16.9719C10.8538 14.9831 9.85942 13.9887 7.87065 13.9887H5.88189C3.89312 13.9887 2.89874 14.9831 2.89874 16.9719V18.9606C2.89874 20.9494 3.89312 21.9438 5.88189 21.9438Z" stroke="#FCFCFD" stroke-width="1.49157" stroke-miterlimit="10" stroke-linecap="round" stroke-linejoin="round"/>
<path d="M18.8088 21.9438C21.0056 21.9438 22.7864 20.163 22.7864 17.9662C22.7864 15.7695 21.0056 13.9887 18.8088 13.9887C16.6121 13.9887 14.8313 15.7695 14.8313 17.9662C14.8313 20.163 16.6121 21.9438 18.8088 21.9438Z" stroke="#FCFCFD" stroke-width="1.49157" stroke-miterlimit="10" stroke-linecap="round" stroke-linejoin="round"/>
</svg>
