<svg width="29" height="29" viewBox="0 0 29 29" fill="none" xmlns="http://www.w3.org/2000/svg">
<path d="M14.5 0C22.5081 0 29 6.49187 29 14.5C29 22.5081 22.5081 29 14.5 29C6.49187 29 0 22.5081 0 14.5C0 6.49187 6.49187 0 14.5 0ZM6.6377 10.001C6.10629 10.001 6.00011 10.2513 6 10.5273C6.48647 12.7604 7.49201 14.8507 8.93652 16.6318C9.54512 17.598 10.377 18.4076 11.3633 18.9932C12.3495 19.5786 13.4621 19.9237 14.6094 20C15.7921 20 15.9395 19.7373 15.9395 19.2891V17.6318C15.9395 17.1063 16.0442 17.0011 16.4297 17.001C16.7086 17.001 17.1746 17.1322 18.2773 18.1846C19.5389 19.4346 19.7515 19.9988 20.4551 19.999H22.3164C22.8474 19.999 23.114 19.7363 22.9541 19.2227C22.5536 18.4248 22.0235 17.6963 21.3857 17.0664C20.9478 16.5538 20.2958 16.0145 20.1113 15.7383C19.8307 15.3829 19.9107 15.2247 20.1113 14.9219C21.0946 13.5977 21.9325 12.1726 22.6094 10.6719C22.7274 10.278 22.6084 10.002 22.0508 10.002H20.1904C20.0162 9.98971 19.8425 10.0342 19.6963 10.1289C19.55 10.2237 19.4393 10.3642 19.3809 10.5273C18.8072 11.8849 18.0367 13.1528 17.0947 14.291C16.6555 14.7251 16.471 14.8563 16.2314 14.8564C16.1107 14.8564 15.9395 14.725 15.9395 14.3301V10.6719C15.9395 10.1986 15.8069 10.001 15.4072 10.001H12.4834C12.3643 9.99619 12.2481 10.0377 12.1592 10.1162C12.0701 10.1951 12.0152 10.3058 12.0068 10.4238C12.0071 10.8711 12.6699 10.9756 12.749 12.2119V14.9219C12.749 15.5139 12.6441 15.6191 12.4043 15.6191C11.7784 15.6181 10.2377 13.3299 9.33496 10.6992C9.14741 10.2123 8.97571 10.0011 8.49805 10.001H6.6377Z" fill="#3F4E55"/>
</svg>
