<svg width="30" height="29" viewBox="0 0 30 29" fill="none" xmlns="http://www.w3.org/2000/svg">
<path d="M15.2915 0C7.2875 0 0.791504 6.496 0.791504 14.5C0.791504 22.504 7.2875 29 15.2915 29C23.2955 29 29.7915 22.504 29.7915 14.5C29.7915 6.496 23.2955 0 15.2915 0ZM22.0195 9.86C21.802 12.151 20.8595 17.719 20.381 20.2855C20.178 21.373 19.772 21.7355 19.395 21.779C18.554 21.8515 17.916 21.228 17.104 20.6915C15.828 19.8505 15.103 19.3285 13.8705 18.5165C12.435 17.574 13.363 17.052 14.1895 16.211C14.407 15.9935 18.119 12.615 18.1915 12.3105C18.2016 12.2644 18.2002 12.2165 18.1876 12.171C18.175 12.1255 18.1514 12.0838 18.119 12.0495C18.032 11.977 17.916 12.006 17.8145 12.0205C17.684 12.0495 15.654 13.398 11.6955 16.066C11.1155 16.4575 10.5935 16.6605 10.1295 16.646C9.6075 16.6315 8.6215 16.356 7.882 16.1095C6.9685 15.8195 6.258 15.66 6.316 15.1525C6.345 14.8915 6.7075 14.6305 7.389 14.355C11.623 12.5135 14.436 11.2955 15.8425 10.7155C19.8735 9.0335 20.7 8.7435 21.251 8.7435C21.367 8.7435 21.6425 8.7725 21.8165 8.9175C21.9615 9.0335 22.005 9.193 22.0195 9.309C22.005 9.396 22.034 9.657 22.0195 9.86Z" fill="#3F4E55"/>
</svg>
