<svg width="30" height="29" viewBox="0 0 30 29" fill="none" xmlns="http://www.w3.org/2000/svg">
<path d="M17.5044 14.2478L14.1121 12.6648C13.816 12.5274 13.5728 12.6815 13.5728 13.0092V15.9908C13.5728 16.3185 13.816 16.4726 14.1121 16.3352L17.5029 14.7522C17.8005 14.6133 17.8005 14.3867 17.5044 14.2478ZM15.0833 0C7.07502 0 0.583252 6.49177 0.583252 14.5C0.583252 22.5082 7.07502 29 15.0833 29C23.0915 29 29.5833 22.5082 29.5833 14.5C29.5833 6.49177 23.0915 0 15.0833 0ZM15.0833 20.3906C7.66106 20.3906 7.53117 19.7215 7.53117 14.5C7.53117 9.27849 7.66106 8.60937 15.0833 8.60937C22.5054 8.60937 22.6353 9.27849 22.6353 14.5C22.6353 19.7215 22.5054 20.3906 15.0833 20.3906Z" fill="#3F4E55"/>
</svg>
