<svg width="115" height="44" viewBox="0 0 115 44" fill="none" xmlns="http://www.w3.org/2000/svg">
<path fill-rule="evenodd" clip-rule="evenodd" d="M2.50195 31.4953L26.101 31.2756V0L23.6755 0.906141V28.9361C23.6755 29.4358 23.2739 29.8422 22.7801 29.8422C22.2863 29.8422 21.8848 29.4358 21.8848 28.9361V1.57614L19.4375 2.48777V28.9361C19.4375 29.4358 19.0359 29.8422 18.5422 29.8422C18.0484 29.8422 17.6468 29.4358 17.6468 28.9361V3.15776L15.1995 4.0694V28.9361C15.1995 29.4358 14.798 29.8422 14.3042 29.8422C13.8104 29.8422 13.4089 29.4358 13.4089 28.9361V4.73939L10.9616 5.65102V28.9361C10.9616 29.4358 10.56 29.8422 10.0662 29.8422C9.57245 29.8422 9.1709 29.4358 9.1709 28.9361V6.32651L6.72363 7.23814V28.9361C6.72363 29.4358 6.32208 29.8422 5.82829 29.8422C5.33449 29.8422 4.93294 29.4358 4.93294 28.9361V7.90814L2.52366 8.80879V31.5007L2.50195 31.4953Z" fill="#3F4E55"/>
<path d="M2.50658 32.709H26.0785C26.9684 32.709 27.6847 33.4394 27.6847 34.3345C27.6847 35.2352 26.963 35.9601 26.0785 35.9601H2.50658C1.61666 35.9601 0.900391 35.2297 0.900391 34.3345C0.900391 33.4339 1.62209 32.709 2.50658 32.709Z" fill="#3F4E55"/>
<path fill-rule="evenodd" clip-rule="evenodd" d="M14.2929 44H28.5859V37.3989H0V44H14.2929Z" fill="#3F4E55"/>
<path d="M39.2711 26.3988V22.2635H50.7369V26.3988H49.8307L48.9625 23.5486L46.1842 23.3949V34.5926L47.9586 35.0209V35.9161H42.0385V35.0209L43.8129 34.5926V23.3949L41.0183 23.5486L40.1718 26.3988H39.2656H39.2711Z" fill="#1D1D1B"/>
<path d="M52.2559 35.9216V35.0264L54.0303 34.5981V23.5981L52.2559 23.1697V22.2745H62.2023V26.2725H61.3178L60.5093 23.5596L56.4016 23.4058V28.4198L60.5636 28.0683V29.8037L56.4016 29.4742V34.6035L58.5612 35.0319V35.9271H52.2559V35.9216Z" fill="#1D1D1B"/>
<path d="M63.7227 35.9216V35.0264L65.4971 34.5981V23.5981L63.7227 23.1697V22.2745H69.2521C72.3885 22.2745 73.9567 23.3784 73.9567 25.5916C73.9567 26.3055 73.7505 26.9315 73.3327 27.4642C72.9148 27.997 72.3451 28.3814 71.6288 28.6175V28.656C72.6815 28.8537 73.4955 29.2491 74.0652 29.8477C74.635 30.4463 74.9226 31.1932 74.9226 32.0883C74.9226 33.2581 74.4939 34.1917 73.6311 34.8891C72.7683 35.5866 71.6071 35.9325 70.142 35.9325H63.7227V35.9216ZM67.8684 28.2166H68.9645C69.7079 28.2166 70.3211 27.997 70.804 27.5631C71.2869 27.1293 71.5257 26.5252 71.5257 25.7563C71.5257 24.9875 71.2869 24.3998 70.804 24.0209C70.3211 23.642 69.6699 23.4553 68.8451 23.4553H67.8629V28.2166H67.8684ZM67.8684 34.7299H69.5451C70.4839 34.7299 71.211 34.5047 71.7211 34.0489C72.2366 33.5931 72.4916 32.9395 72.4916 32.0773C72.4916 31.2865 72.2257 30.6495 71.6939 30.1662C71.1621 29.6829 70.4133 29.4468 69.4474 29.4468H67.8684V34.7353V34.7299Z" fill="#1D1D1B"/>
<path d="M76.5499 30.9295C76.5499 29.5017 76.9568 28.299 77.7653 27.3324C78.5739 26.3659 79.6917 25.8771 81.1188 25.8771C81.8622 25.8771 82.5188 26.0144 83.0777 26.2945C83.6366 26.5746 84.0816 26.959 84.4072 27.4533C84.7327 27.9475 84.9769 28.5022 85.1289 29.1118C85.2808 29.7214 85.3622 30.3859 85.3622 31.0998H78.8452C78.9374 32.1597 79.2901 33.0658 79.9033 33.8072C80.5219 34.5486 81.363 34.9221 82.4266 34.9221C83.1048 34.9221 83.8483 34.7793 84.6405 34.4937L84.9661 35.4108C83.7723 35.9435 82.6328 36.2126 81.5529 36.2126C79.9956 36.2126 78.7746 35.6964 77.8793 34.6694C76.984 33.6425 76.539 32.3959 76.539 30.9241L76.5499 30.9295ZM78.8452 30.1278L82.9692 29.8147C82.9312 29.0404 82.7521 28.3704 82.432 27.7992C82.1118 27.2336 81.656 26.948 81.0646 26.948C80.4242 26.948 79.8979 27.2501 79.4963 27.8597C79.0894 28.4692 78.8777 29.2216 78.8506 30.1278H78.8452Z" fill="#1D1D1B"/>
<path d="M86.0723 27.338V26.7504L88.8071 24.3889H89.3877V26.2836L92.1606 26.1682V27.338H89.3877V33.3075C89.3877 34.4663 89.8436 35.0429 90.7552 35.0429C91.1405 35.0429 91.6017 34.9276 92.1443 34.6915L92.4699 35.5866C91.6722 36.004 90.8529 36.2127 90.0009 36.2127C89.0784 36.2127 88.3567 35.9875 87.8521 35.5372C87.342 35.0869 87.0924 34.3125 87.0924 33.2087V27.338H86.0723Z" fill="#1D1D1B"/>
<path d="M97.5002 25.8771C98.9111 25.8771 100.083 26.3604 101.006 27.3324C101.934 28.2989 102.395 29.5346 102.395 31.0283C102.395 32.5221 101.934 33.7797 101.006 34.7518C100.083 35.7293 98.9111 36.2126 97.5002 36.2126C96.0894 36.2126 94.9119 35.7238 93.984 34.7518C93.0506 33.7742 92.584 32.5331 92.584 31.0283C92.584 29.5236 93.0506 28.2989 93.984 27.3324C94.9173 26.3658 96.0894 25.8771 97.5002 25.8771ZM97.5002 26.948C96.7026 26.948 96.0894 27.3159 95.6607 28.0573C95.232 28.7987 95.015 29.7872 95.015 31.0229C95.015 32.2585 95.232 33.2525 95.6607 34.0049C96.0894 34.7573 96.7026 35.1362 97.5002 35.1362C98.2979 35.1362 98.9111 34.7573 99.3398 33.9939C99.7684 33.2305 99.9855 32.242 99.9855 31.0174C99.9855 29.7927 99.7684 28.7932 99.3398 28.0518C98.9111 27.3104 98.2979 26.9425 97.5002 26.9425V26.948Z" fill="#1D1D1B"/>
<path d="M103.068 35.9216V35.0813L104.707 34.6914V27.7443H103.068V26.9041L106.15 26.1627H107.019V27.0963C107.995 26.278 109.032 25.8661 110.123 25.8661C111.126 25.8661 111.913 26.1517 112.494 26.7229C113.074 27.294 113.362 28.0299 113.362 28.9251V34.6804L115.001 35.0703V35.9106H109.813V35.0703L111.067 34.6804V29.2765C111.067 27.9475 110.508 27.2885 109.39 27.2885C108.63 27.2885 107.843 27.5851 107.019 28.1837V34.6804L108.272 35.0703V35.9106H103.068V35.9216Z" fill="#1D1D1B"/>
</svg>
