<svg width="0" height="0">
	<symbol xmlns="http://www.w3.org/2000/svg" id="lupa" viewBox="0 0 25 24">
		<path d="M12.2108 20.9494C17.4281 20.9494 21.6575 16.72 21.6575 11.5028C21.6575 6.28555 17.4281 2.05615 12.2108 2.05615C6.99356 2.05615 2.76416 6.28555 2.76416 11.5028C2.76416 16.72 6.99356 20.9494 12.2108 20.9494Z" stroke-width="1.49157" stroke-linecap="round" stroke-linejoin="round" fill="none"/>
		<path d="M22.6517 21.9438L20.663 19.955" stroke-width="1.49157" stroke-linecap="round" stroke-linejoin="round" fill="none"/>
	</symbol>

	<symbol xmlns="http://www.w3.org/2000/svg" id="user" viewBox="0 0 22 22">
		<path d="M14.1293 1.0562H8.16299C3.19109 1.0562 1.20239 3.0449 1.20239 8.0168V13.9831C1.20239 17.7419 2.33599 19.8002 5.04069 20.5659C5.25939 17.9805 7.91439 15.942 11.1462 15.942C14.3779 15.942 17.0329 17.9805 17.2517 20.5659C19.9564 19.8002 21.09 17.7419 21.09 13.9831V8.0168C21.09 3.0449 19.1012 1.0562 14.1293 1.0562ZM11.1462 13.1578C9.17729 13.1578 7.58629 11.5568 7.58629 9.588C7.58629 7.6191 9.17729 6.0281 11.1462 6.0281C13.1151 6.0281 14.7061 7.6191 14.7061 9.588C14.7061 11.5568 13.1151 13.1578 11.1462 13.1578Z" stroke-width="1.74017" stroke-linecap="round" stroke-linejoin="round" fill="none"/>
	</symbol>

	<symbol xmlns="http://www.w3.org/2000/svg" id="cart" viewBox="0 0 24 23">
		<path d="M12.1465 0.815918C14.7968 0.81606 16.9857 2.79256 17.3193 5.35205L17.377 5.7876H18.4746C19.4777 5.7876 20.2583 5.78854 20.8604 5.87256C21.4813 5.95936 21.9555 6.13957 22.3066 6.53174C22.6577 6.92401 22.784 7.41487 22.8018 8.0415C22.8146 8.49725 22.7701 9.0479 22.7002 9.71533L22.623 10.4224L22.3164 13.1782C22.0862 15.2495 21.9101 16.8298 21.6143 18.0483C21.3141 19.2841 20.8841 20.1805 20.125 20.8599C19.3657 21.5394 18.4233 21.8672 17.1543 22.0288C15.9024 22.1883 14.2998 22.1899 12.1992 22.1899H12.0928C9.9923 22.1899 8.39048 22.1883 7.13867 22.0288C5.86933 21.8672 4.92641 21.5395 4.16699 20.8599C3.40796 20.1805 2.97778 19.2841 2.67773 18.0483C2.38184 16.8298 2.20571 15.2495 1.97559 13.1782L1.66895 10.4224C1.55813 9.42533 1.47311 8.6491 1.49023 8.0415C1.50791 7.41488 1.63523 6.92402 1.98633 6.53174C2.3374 6.13979 2.8109 5.95934 3.43164 5.87256C4.03372 5.7885 4.81507 5.7876 5.81836 5.7876H6.91602L6.97266 5.35205C7.30649 2.79241 9.49597 0.815918 12.1465 0.815918ZM5.87305 6.27979C4.82933 6.27979 4.07164 6.28004 3.5 6.35986C2.93466 6.43891 2.59375 6.59056 2.35254 6.85986C2.11155 7.12924 1.99762 7.48458 1.98145 8.05518C1.96523 8.63222 2.04875 9.38582 2.16406 10.4233L2.45801 13.0708C2.69243 15.1809 2.86605 16.7407 3.15527 17.9321C3.44296 19.1168 3.83861 19.9061 4.49512 20.4937C5.15125 21.0808 5.98283 21.3864 7.2002 21.5415C8.42474 21.6975 10.007 21.6978 12.1465 21.6978C14.2858 21.6978 15.8674 21.6975 17.0918 21.5415C18.3096 21.3864 19.1416 21.081 19.7979 20.4937C20.4544 19.9061 20.8491 19.1167 21.1367 17.9321C21.4261 16.7407 21.5996 15.1808 21.834 13.0708L22.1279 10.4233C22.2432 9.38582 22.3268 8.63222 22.3105 8.05518C22.2945 7.48473 22.1816 7.12928 21.9404 6.85986C21.6993 6.59049 21.3584 6.43894 20.793 6.35986C20.2212 6.27999 19.4629 6.27979 18.4189 6.27979H5.87305ZM12.1465 1.30713C9.82049 1.30713 7.88716 2.98739 7.49316 5.19971L7.38867 5.7876H16.9033L16.7988 5.19971C16.4048 2.98751 14.4722 1.30727 12.1465 1.30713Z" fill="none"/>
	</symbol>

	<symbol xmlns="http://www.w3.org/2000/svg" id="arrow" viewBox="0 0 11 10">
		<path d="M1 1H9.5V9.5" stroke-width="2" fill="none"/>
		<path d="M9 1.5L1.5 9" stroke-width="2" fill="none"/>
	</symbol>
</svg>