<svg width="0" height="0">
	<symbol xmlns="http://www.w3.org/2000/svg" id="lupa" viewBox="0 0 25 24">
		<path d="M12.2108 20.9494C17.4281 20.9494 21.6575 16.72 21.6575 11.5028C21.6575 6.28555 17.4281 2.05615 12.2108 2.05615C6.99356 2.05615 2.76416 6.28555 2.76416 11.5028C2.76416 16.72 6.99356 20.9494 12.2108 20.9494Z" stroke-width="1.49157" stroke-linecap="round" stroke-linejoin="round" fill="none"/>
		<path d="M22.6517 21.9438L20.663 19.955" stroke-width="1.49157" stroke-linecap="round" stroke-linejoin="round" fill="none"/>
	</symbol>

	<symbol xmlns="http://www.w3.org/2000/svg" id="user" viewBox="0 0 22 22">
		<path d="M14.1293 1.0562H8.16299C3.19109 1.0562 1.20239 3.0449 1.20239 8.0168V13.9831C1.20239 17.7419 2.33599 19.8002 5.04069 20.5659C5.25939 17.9805 7.91439 15.942 11.1462 15.942C14.3779 15.942 17.0329 17.9805 17.2517 20.5659C19.9564 19.8002 21.09 17.7419 21.09 13.9831V8.0168C21.09 3.0449 19.1012 1.0562 14.1293 1.0562ZM11.1462 13.1578C9.17729 13.1578 7.58629 11.5568 7.58629 9.588C7.58629 7.6191 9.17729 6.0281 11.1462 6.0281C13.1151 6.0281 14.7061 7.6191 14.7061 9.588C14.7061 11.5568 13.1151 13.1578 11.1462 13.1578Z" stroke-width="1.74017" stroke-linecap="round" stroke-linejoin="round" fill="none"/>
	</symbol>

	<symbol xmlns="http://www.w3.org/2000/svg" id="cart" viewBox="0 0 24 23">
		<path d="M12.1465 0.815918C14.7968 0.81606 16.9857 2.79256 17.3193 5.35205L17.377 5.7876H18.4746C19.4777 5.7876 20.2583 5.78854 20.8604 5.87256C21.4813 5.95936 21.9555 6.13957 22.3066 6.53174C22.6577 6.92401 22.784 7.41487 22.8018 8.0415C22.8146 8.49725 22.7701 9.0479 22.7002 9.71533L22.623 10.4224L22.3164 13.1782C22.0862 15.2495 21.9101 16.8298 21.6143 18.0483C21.3141 19.2841 20.8841 20.1805 20.125 20.8599C19.3657 21.5394 18.4233 21.8672 17.1543 22.0288C15.9024 22.1883 14.2998 22.1899 12.1992 22.1899H12.0928C9.9923 22.1899 8.39048 22.1883 7.13867 22.0288C5.86933 21.8672 4.92641 21.5395 4.16699 20.8599C3.40796 20.1805 2.97778 19.2841 2.67773 18.0483C2.38184 16.8298 2.20571 15.2495 1.97559 13.1782L1.66895 10.4224C1.55813 9.42533 1.47311 8.6491 1.49023 8.0415C1.50791 7.41488 1.63523 6.92402 1.98633 6.53174C2.3374 6.13979 2.8109 5.95934 3.43164 5.87256C4.03372 5.7885 4.81507 5.7876 5.81836 5.7876H6.91602L6.97266 5.35205C7.30649 2.79241 9.49597 0.815918 12.1465 0.815918ZM5.87305 6.27979C4.82933 6.27979 4.07164 6.28004 3.5 6.35986C2.93466 6.43891 2.59375 6.59056 2.35254 6.85986C2.11155 7.12924 1.99762 7.48458 1.98145 8.05518C1.96523 8.63222 2.04875 9.38582 2.16406 10.4233L2.45801 13.0708C2.69243 15.1809 2.86605 16.7407 3.15527 17.9321C3.44296 19.1168 3.83861 19.9061 4.49512 20.4937C5.15125 21.0808 5.98283 21.3864 7.2002 21.5415C8.42474 21.6975 10.007 21.6978 12.1465 21.6978C14.2858 21.6978 15.8674 21.6975 17.0918 21.5415C18.3096 21.3864 19.1416 21.081 19.7979 20.4937C20.4544 19.9061 20.8491 19.1167 21.1367 17.9321C21.4261 16.7407 21.5996 15.1808 21.834 13.0708L22.1279 10.4233C22.2432 9.38582 22.3268 8.63222 22.3105 8.05518C22.2945 7.48473 22.1816 7.12928 21.9404 6.85986C21.6993 6.59049 21.3584 6.43894 20.793 6.35986C20.2212 6.27999 19.4629 6.27979 18.4189 6.27979H5.87305ZM12.1465 1.30713C9.82049 1.30713 7.88716 2.98739 7.49316 5.19971L7.38867 5.7876H16.9033L16.7988 5.19971C16.4048 2.98751 14.4722 1.30727 12.1465 1.30713Z" fill="none"/>
	</symbol>

	<symbol xmlns="http://www.w3.org/2000/svg" id="arrow" viewBox="0 0 11 10">
		<path d="M1 1H9.5V9.5" stroke-width="2" fill="none"/>
		<path d="M9 1.5L1.5 9" stroke-width="2" fill="none"/>
	</symbol>

	<symbol xmlns="http://www.w3.org/2000/svg" id="ic_soc1" viewBox="0 0 29 29">
		<path d="M17.5044 14.2478L14.1121 12.6648C13.816 12.5274 13.5728 12.6815 13.5728 13.0092V15.9908C13.5728 16.3185 13.816 16.4726 14.1121 16.3352L17.5029 14.7522C17.8005 14.6133 17.8005 14.3867 17.5044 14.2478ZM15.0833 0C7.07502 0 0.583252 6.49177 0.583252 14.5C0.583252 22.5082 7.07502 29 15.0833 29C23.0915 29 29.5833 22.5082 29.5833 14.5C29.5833 6.49177 23.0915 0 15.0833 0ZM15.0833 20.3906C7.66106 20.3906 7.53117 19.7215 7.53117 14.5C7.53117 9.27849 7.66106 8.60937 15.0833 8.60937C22.5054 8.60937 22.6353 9.27849 22.6353 14.5C22.6353 19.7215 22.5054 20.3906 15.0833 20.3906Z"/>
	</symbol>

	<symbol xmlns="http://www.w3.org/2000/svg" id="ic_soc2" viewBox="0 0 29 29">
		<path d="M15.2915 0C7.2875 0 0.791504 6.496 0.791504 14.5C0.791504 22.504 7.2875 29 15.2915 29C23.2955 29 29.7915 22.504 29.7915 14.5C29.7915 6.496 23.2955 0 15.2915 0ZM22.0195 9.86C21.802 12.151 20.8595 17.719 20.381 20.2855C20.178 21.373 19.772 21.7355 19.395 21.779C18.554 21.8515 17.916 21.228 17.104 20.6915C15.828 19.8505 15.103 19.3285 13.8705 18.5165C12.435 17.574 13.363 17.052 14.1895 16.211C14.407 15.9935 18.119 12.615 18.1915 12.3105C18.2016 12.2644 18.2002 12.2165 18.1876 12.171C18.175 12.1255 18.1514 12.0838 18.119 12.0495C18.032 11.977 17.916 12.006 17.8145 12.0205C17.684 12.0495 15.654 13.398 11.6955 16.066C11.1155 16.4575 10.5935 16.6605 10.1295 16.646C9.6075 16.6315 8.6215 16.356 7.882 16.1095C6.9685 15.8195 6.258 15.66 6.316 15.1525C6.345 14.8915 6.7075 14.6305 7.389 14.355C11.623 12.5135 14.436 11.2955 15.8425 10.7155C19.8735 9.0335 20.7 8.7435 21.251 8.7435C21.367 8.7435 21.6425 8.7725 21.8165 8.9175C21.9615 9.0335 22.005 9.193 22.0195 9.309C22.005 9.396 22.034 9.657 22.0195 9.86Z"/>
	</symbol>

	<symbol xmlns="http://www.w3.org/2000/svg" id="ic_soc3" viewBox="0 0 29 29">
		<path d="M14.5 0C22.5081 0 29 6.49187 29 14.5C29 22.5081 22.5081 29 14.5 29C6.49187 29 0 22.5081 0 14.5C0 6.49187 6.49187 0 14.5 0ZM6.6377 10.001C6.10629 10.001 6.00011 10.2513 6 10.5273C6.48647 12.7604 7.49201 14.8507 8.93652 16.6318C9.54512 17.598 10.377 18.4076 11.3633 18.9932C12.3495 19.5786 13.4621 19.9237 14.6094 20C15.7921 20 15.9395 19.7373 15.9395 19.2891V17.6318C15.9395 17.1063 16.0442 17.0011 16.4297 17.001C16.7086 17.001 17.1746 17.1322 18.2773 18.1846C19.5389 19.4346 19.7515 19.9988 20.4551 19.999H22.3164C22.8474 19.999 23.114 19.7363 22.9541 19.2227C22.5536 18.4248 22.0235 17.6963 21.3857 17.0664C20.9478 16.5538 20.2958 16.0145 20.1113 15.7383C19.8307 15.3829 19.9107 15.2247 20.1113 14.9219C21.0946 13.5977 21.9325 12.1726 22.6094 10.6719C22.7274 10.278 22.6084 10.002 22.0508 10.002H20.1904C20.0162 9.98971 19.8425 10.0342 19.6963 10.1289C19.55 10.2237 19.4393 10.3642 19.3809 10.5273C18.8072 11.8849 18.0367 13.1528 17.0947 14.291C16.6555 14.7251 16.471 14.8563 16.2314 14.8564C16.1107 14.8564 15.9395 14.725 15.9395 14.3301V10.6719C15.9395 10.1986 15.8069 10.001 15.4072 10.001H12.4834C12.3643 9.99619 12.2481 10.0377 12.1592 10.1162C12.0701 10.1951 12.0152 10.3058 12.0068 10.4238C12.0071 10.8711 12.6699 10.9756 12.749 12.2119V14.9219C12.749 15.5139 12.6441 15.6191 12.4043 15.6191C11.7784 15.6181 10.2377 13.3299 9.33496 10.6992C9.14741 10.2123 8.97571 10.0011 8.49805 10.001H6.6377Z"/>
	</symbol>
</svg>